fira-math-regular.sfdir
StartChar: uni0027
Encoding: 39 39 7
Width: 219
Flags: W
HStem: 427 262<75 75 75 144>
VStem: 67.5 84
LayerCount: 2
Fore
SplineSet
75 427 m 1
 60 689 l 1
 159 689 l 1
 144 427 l 1
 75 427 l 1
EndSplineSet
Validated: 1
EndChar
StartChar: uni0028
Encoding: 40 40 8
Width: 324
Flags: W
IsExtendedShape: 1
GlyphVariantsVertical: uni0028 uni0028.size1 uni0028.size2 uni0028.size3 uni0028.size4 uni0028.size5 uni0028.size6 uni0028.size7 uni0028.size8 uni0028.size9 uni0028.size10 uni0028.size11 uni0028.size12 uni0028.size13 uni0028.size14 uni0028.size15
GlyphCompositionVertical: 3  uni239D%0,0,150,2956 uni239C%1,150,150,600 uni239B%0,150,0,2956
HStem: -215 990<226 226>
VStem: 40 96<173 387.5 173 398.5>
LayerCount: 2
Fore
SplineSet
226 775 m 1
 284 735 l 1
 194 602 136 495 136 280 c 0
 136 66 194 -42 284 -175 c 1
 226 -215 l 1
 128 -76 40 43 40 280 c 0
 40 517 128 636 226 775 c 1
EndSplineSet
EndChar
StartChar: uni0029
Encoding: 41 41 9
Width: 324
Flags: W
GlyphVariantsVertical: uni0029 uni0029.size1 uni0029.size2 uni0029.size3 uni0029.size4 uni0029.size5 uni0029.size6 uni0029.size7 uni0029.size8 uni0029.size9 uni0029.size10 uni0029.size11 uni0029.size12 uni0029.size13 uni0029.size14 uni0029.size15
GlyphCompositionVertical: 3  uni23A0%0,0,150,1485 uni239F%1,150,150,700 uni239E%0,150,0,1485
VStem: 188 96<97.7322 462.49>
LayerCount: 2
Fore
SplineSet
98 775 m 1
 196 636 284 517 284 280 c 0
 284 43 196 -76 98 -215 c 1
 40 -175 l 5
 130 -42 188 66 188 280 c 0
 188 495 130 602 40 735 c 1
 98 775 l 1
EndSplineSet
EndChar
StartChar: uni002C
Encoding: 44 44 12
Width: 240
Flags: W
HStem: 0 21G<78 78>
VStem: 50 139<47 77 47 77>
LayerCount: 2
Fore
SplineSet
119 127 m 0
 159 127 189 96 189 58 c 0
 189 36 184 16 171 -13 c 2
 104 -166 l 1
 38 -166 l 1
 78 0 l 1
 61 13 50 34 50 58 c 0
 50 96 80 127 119 127 c 0
EndSplineSet
Validated: 1
EndChar
StartChar: uni002E
Encoding: 46 46 14
Width: 240
Flags: W
HStem: -12 139<99.5 139>
VStem: 50 139<38.5 77>
LayerCount: 2
Fore
SplineSet
119 127 m 0
 159 127 189 96 189 58 c 0
 189 19 159 -12 119 -12 c 0
 80 -12 50 19 50 58 c 0
 50 96 80 127 119 127 c 0
EndSplineSet
Validated: 1
EndChar
StartChar: uni002F
Encoding: 47 47 15
Width: 520
Flags: W
VStem: 105 310
LayerCount: 2
Fore
SplineSet
337 737 m 1
 415 719 l 1
 184 -174 l 5
 105 -155 l 1
 337 737 l 1
EndSplineSet
EndChar
StartChar: uni0030
Encoding: 48 48 16
Width: 560
Flags: W
HStem: -12 73<238 321.5 238 355> 628 73<238 321.5>
VStem: 56 96<241 448.5 241 461.5> 408 96<241 448.5>
LayerCount: 2
Fore
SplineSet
280 701 m 0
 430 701 504 577 504 345 c 0
 504 112 430 -12 280 -12 c 0
 130 -12 56 112 56 345 c 0
 56 578 130 701 280 701 c 0
280 628 m 0
 196 628 152 552 152 345 c 0
 152 137 196 61 280 61 c 0
 363 61 408 137 408 345 c 0
 408 552 363 628 280 628 c 0
EndSplineSet
EndChar
StartChar: uni0032
Encoding: 50 50 18
Width: 560
Flags: W
HStem: 0 77<164 474> 625 76<220 290.5>
VStem: 373 96<449.5 541.5>
LayerCount: 2
Fore
SplineSet
258 701 m 0
 391 701 469 617 469 508 c 0
 469 383 389 282 164 77 c 1
 485 77 l 1
 474 0 l 1
 59 0 l 1
 59 73 l 1
 315 319 373 395 373 504 c 0
 373 579 328 625 253 625 c 0
 187 625 150 603 107 552 c 1
 45 600 l 1
 99 667 163 701 258 701 c 0
EndSplineSet
EndChar
StartChar: uni0037
Encoding: 55 55 23
Width: 560
Flags: W
HStem: -12 21G<215 215> 614 75<76 392 76 485>
VStem: 76 409<620 689 620 689 620 689>
LayerCount: 2
Fore
SplineSet
485 689 m 1
 485 620 l 1
 215 -12 l 1
 132 18 l 1
 392 614 l 1
 76 614 l 1
 76 689 l 1
 485 689 l 1
EndSplineSet
EndChar
StartChar: uni0039
Encoding: 57 57 25
Width: 560
Flags: W
HStem: 251 72<225.5 275> 628 73<230 312>
VStem: 51 95<418.5 522 418.5 546> 394 95
LayerCount: 2
Fore
SplineSet
269 701 m 0
 416 701 489 597 489 433 c 0
 489 142 377 49 126 -22 c 1
 105 47 l 1
 277 95 386 172 392 331 c 1
 363 288 310 251 240 251 c 0
 134 251 51 335 51 472 c 0
 51 620 151 701 269 701 c 0
259 323 m 0
 317 323 361 357 394 408 c 1
 397 571 355 628 269 628 c 0
 191 628 146 574 146 470 c 0
 146 367 192 323 259 323 c 0
EndSplineSet
EndChar
StartChar: uni003A
Encoding: 58 58 26
Width: 240
Flags: W
HStem: -12 139<99.5 139> 356 139<99.5 139>
VStem: 50 139<38.5 77 406.5 445>
LayerCount: 2
Fore
SplineSet
119 495 m 0
 159 495 189 464 189 426 c 0
 189 387 159 356 119 356 c 0
 80 356 50 387 50 426 c 0
 50 464 80 495 119 495 c 0
119 127 m 0
 159 127 189 96 189 58 c 0
 189 19 159 -12 119 -12 c 0
 80 -12 50 19 50 58 c 0
 50 96 80 127 119 127 c 0
EndSplineSet
Validated: 1
EndChar
StartChar: uni0040
Encoding: 64 64 32
Width: 1020
Flags: W
HStem: -213 76<409.5 563.5 409.5 570.5> 11 67<461 520.5> 426 66<485.5 544> 625 76<413.5 634.5>
VStem: 70 93<129.5 350.5 129.5 370.5> 308 90<181 295.5 181 317.5> 600 83<164 193 193 411 411 411> 857 93<227 401.5>
LayerCount: 2
Fore
SplineSet
526 701 m 0
 804 701 950 516 950 307 c 0
 950 144 888 9 753 9 c 0
 670 9 635 67 625 112 c 1
 603 62 560 11 481 11 c 0
 374 11 308 99 308 231 c 0
 308 404 400 492 526 492 c 0
 580 492 627 482 683 452 c 1
 683 193 l 2
 683 107 708 80 751 80 c 0
 819 80 857 149 857 305 c 0
 857 498 743 625 526 625 c 0
 301 625 163 461 163 240 c 0
 163 19 293 -137 526 -137 c 0
 601 -137 664 -122 718 -103 c 1
 743 -174 l 1
 677 -197 616 -213 525 -213 c 0
 256 -213 70 -37 70 240 c 0
 70 501 254 701 526 701 c 0
492 78 m 0
 561 78 589 135 600 164 c 1
 600 411 l 1
 580 420 559 426 529 426 c 0
 442 426 398 360 398 231 c 0
 398 131 430 78 492 78 c 0
EndSplineSet
Validated: 1
EndChar
StartChar: uni0048
Encoding: 72 72 40
Width: 680
Flags: W
TopAccentHorizontal: 340
HStem: 0 21G<100 195 100 100 485 580 485 485> 323 78<195 485 195 485> 669 20G<100 195 195 195 485 580 580 580>
VStem: 100 95<0 323 0 401 401 689> 485 95<0 323 323 323 401 689 0 689>
LayerCount: 2
Fore
SplineSet
485 0 m 1
 485 323 l 1
 195 323 l 1
 195 0 l 1
 100 0 l 1
 100 689 l 1
 195 689 l 1
 195 401 l 1
 485 401 l 1
 485 689 l 1
 580 689 l 1
 580 0 l 1
 485 0 l 1
EndSplineSet
Validated: 1
EndChar
StartChar: uni0055
Encoding: 85 85 53
Width: 662
Flags: W
TopAccentHorizontal: 331
HStem: -12 80<281 379.5 281 407.5> 669 20G<90 185 185 185 476 572 572 572>
VStem: 90 95<221 228 228 689> 476 96<228 689>
LayerCount: 2
Fore
SplineSet
572 689 m 1
 572 221 l 2
 572 84 485 -12 330 -12 c 0
 173 -12 90 84 90 221 c 2
 90 689 l 1
 185 689 l 1
 185 228 l 2
 185 121 232 68 330 68 c 0
 429 68 476 121 476 228 c 2
 476 689 l 1
 572 689 l 1
EndSplineSet
Validated: 1
EndChar
StartChar: uni005B
Encoding: 91 91 59
Width: 322
Flags: HW
GlyphVariantsVertical: uni005B uni005B.size1 uni005B.size2 uni005B.size3 uni005B.size4
GlyphCompositionVertical: 3  uni23A3%0,0,150,1485 uni23A2%1,150,150,700 uni23A1%0,150,0,1485
HStem: -186 76<152 272 152 272> 669 77<152 272 152 152>
VStem: 65 87<-110 669 -110 746 -110 746>
LayerCount: 2
Fore
SplineSet
272 746 m 1
 272 669 l 1
 152 669 l 1
 152 -110 l 1
 272 -110 l 1
 272 -186 l 1
 65 -186 l 1
 65 746 l 1
 272 746 l 1
EndSplineSet
EndChar
StartChar: uni005D
Encoding: 93 93 61
Width: 322
Flags: W
IsExtendedShape: 1
GlyphVariantsVertical: uni005D uni005D.size1 uni005D.size2 uni005D.size3 uni005D.size4 uni005D.size5 uni005D.size6 uni005D.size7 uni005D.size8 uni005D.size9 uni005D.size10 uni005D.size11 uni005D.size12 uni005D.size13 uni005D.size14 uni005D.size15
GlyphCompositionVertical: 3  uni23A6%0,0,150,2956 uni23A5%1,150,150,600 uni23A4%0,150,0,2956
HStem: -186 76<50 170> 669 77<50 170>
VStem: 50 207<-186 -110 669 746> 170 87<-110 669>
LayerCount: 2
Fore
SplineSet
257 746 m 1xe0
 257 -186 l 1
 50 -186 l 1
 50 -110 l 1xe0
 170 -110 l 1
 170 669 l 1xd0
 50 669 l 1
 50 746 l 1
 257 746 l 1xe0
EndSplineSet
EndChar
StartChar: uni0060
Encoding: 96 96 64
Width: 300
Flags: W
HStem: 638 163
VStem: 30 240<687 724>
LayerCount: 2
Fore
SplineSet
71 801 m 1
 270 687 l 1
 242 638 l 1
 30 724 l 1
 71 801 l 1
EndSplineSet
Validated: 1
EndChar
StartChar: uni0069
Encoding: 105 105 73
Width: 282
Flags: W
TopAccentHorizontal: 140
HStem: 0 21G<95 187 95 95> 507 20G<95 187 187 187> 655 125<121 159.5>
VStem: 76 129<699.5 735> 95 92<0 527 0 527>
LayerCount: 2
Fore
SplineSet
140 780 m 0xf0
 179 780 205 753 205 717 c 0
 205 682 179 655 140 655 c 0
 102 655 76 682 76 717 c 0
 76 753 102 780 140 780 c 0xf0
187 527 m 1xe8
 187 0 l 1
 95 0 l 1
 95 527 l 1
 187 527 l 1xe8
EndSplineSet
Validated: 1
Substitution2: "'dtls' subtable" uni0131
EndChar
StartChar: uni007A
Encoding: 122 122 90
Width: 437
Flags: W
TopAccentHorizontal: 216
HStem: 0 77<129 396> 449 78<48 299 48 404>
VStem: 25 382<0 77 69 77>
LayerCount: 2
Fore
SplineSet
404 527 m 1
 404 457 l 1
 129 77 l 1
 407 77 l 1
 396 0 l 1
 25 0 l 1
 25 69 l 1
 299 449 l 1
 48 449 l 1
 48 527 l 1
 404 527 l 1
EndSplineSet
Validated: 1
EndChar
StartChar: uni007C
Encoding: 124 124 92
Width: 403
Flags: W
GlyphVariantsVertical: uni007C uni007C.size1 uni007C.size2 uni007C.size3 uni007C.size4 uni007C.size5 uni007C.size6 uni007C.size7 uni007C.size8 uni007C.size9 uni007C.size10 uni007C.size11 uni007C.size12 uni007C.size13 uni007C.size14 uni007C.size15
GlyphCompositionVertical: 2  uni007C.ext%0,0,200,800 uni007C.ext%1,200,200,800
VStem: 160 83<-186 746>
LayerCount: 2
Fore
SplineSet
243 746 m 1
 243 -186 l 1
 160 -186 l 1
 160 746 l 1
 243 746 l 1
EndSplineSet
EndChar
StartChar: uni007D
Encoding: 125 125 93
Width: 322
Flags: W
IsExtendedShape: 1
GlyphVariantsVertical: uni007D uni007D.size1 uni007D.size2 uni007D.size3 uni007D.size4 uni007D.size5 uni007D.size6 uni007D.size7 uni007D.size8 uni007D.size9 uni007D.size10 uni007D.size11 uni007D.size12 uni007D.size13 uni007D.size14 uni007D.size15
GlyphCompositionVertical: 5  uni23AD%0,0,150,1400 uni23AA%1,150,150,600 uni23AC%0,150,150,2000 uni23AA%1,150,150,600 uni23AB%0,150,0,1400
HStem: -206 71<45 121.39> 241 76<240.163 297> 695 71<45 121.39>
VStem: 140 87<-117.327 227.967 329.517 677.327>
LayerCount: 2
Fore
SplineSet
45 766 m 1
 180 766 227 722 227 617 c 2
 227 395 l 2
 227 340 244 317 297 317 c 1
 297 241 l 1
 244 241 227 220 227 165 c 2
 227 -57 l 2
 227 -162 180 -206 45 -206 c 1
 45 -135 l 1
 112 -135 140 -117 140 -67 c 2
 140 172 l 2
 140 245 168 263 215 279 c 1
 168 295 140 315 140 388 c 2
 140 627 l 2
 140 677 112 695 45 695 c 1
 45 766 l 1
EndSplineSet
EndChar
StartChar: uni00A1
Encoding: 161 161 96
Width: 241
Flags: W
HStem: -202 21G<71 173 71 71> 356 139<101 140.5>
VStem: 51 139<406 444.5> 76 91.5
LayerCount: 2
Fore
SplineSet
121 495 m 0xe0
 160 495 190 464 190 425 c 0
 190 387 160 356 121 356 c 0
 81 356 51 387 51 425 c 0
 51 464 81 495 121 495 c 0xe0
162 247 m 1xd0
 173 -202 l 1
 71 -202 l 1
 81 247 l 1
 162 247 l 1xd0
EndSplineSet
EndChar
StartChar: uni00A5
Encoding: 165 165 100
Width: 536
Flags: W
HStem: 0 194<82 315 82 221> 133 61<82 221 82 221 315 453> 284 62<82 196 82 221 82 196 340 453>
VStem: 221 94<0 133 0 133 194 284>
LayerCount: 2
Fore
SplineSet
531 669 m 1x70
 340 346 l 1
 453 346 l 1
 453 284 l 1
 315 284 l 1
 315 194 l 1
 453 194 l 1
 453 133 l 1
 315 133 l 1x70
 315 0 l 1
 221 0 l 1xb0
 221 133 l 1
 82 133 l 1
 82 194 l 1
 221 194 l 1
 221 284 l 1
 82 284 l 1
 82 346 l 1
 196 346 l 1
 5 669 l 1
 107 669 l 1
 271 374 l 1
 434 669 l 1
 531 669 l 1x70
EndSplineSet
EndChar
StartChar: uni00B1
Encoding: 177 177 112
Width: 500
Flags: W
HStem: 22 76<62 438> 312 76<62 208 292 438> 518 20G<208 292>
VStem: 208 84<163 312 388 538>
LayerCount: 2
Fore
SplineSet
62 22 m 1
 62 98 l 1
 438 98 l 1
 438 22 l 1
 62 22 l 1
62 312 m 1
 62 388 l 1
 208 388 l 1
 208 538 l 1
 292 538 l 1
 292 388 l 1
 438 388 l 1
 438 312 l 1
 292 312 l 1
 292 163 l 1
 208 163 l 1
 208 312 l 1
 62 312 l 1
EndSplineSet
EndChar
StartChar: uni00BC
Encoding: 188 188 123
Width: 932
Flags: W
HStem: 0 156<760 761 655 836 760 760> 96 60<655 760 836 889> 669 20G<205 274 274 274> 730 20G<640 640>
VStem: 197 77<272 610 610 610> 760 76<0 96 0 96>
LayerCount: 2
Fore
SplineSet
640 750 m 1xbc
 699 721 l 1
 293 -78 l 1
 233 -49 l 1
 640 750 l 1xbc
274 272 m 1
 197 272 l 1
 197 610 l 1
 99 553 l 1
 65 606 l 1
 205 689 l 1
 274 689 l 1
 274 272 l 1
889 156 m 1
 889 96 l 1
 836 96 l 1x7c
 836 0 l 1
 760 0 l 1xbc
 760 96 l 1
 574 96 l 1
 574 150 l 1x7c
 702 424 l 1
 768 399 l 1
 655 156 l 1
 761 156 l 1xbc
 768 261 l 1
 836 261 l 1x7c
 836 156 l 1
 889 156 l 1
EndSplineSet
EndChar
StartChar: uni00C0
Encoding: 192 192 127
Width: 573
Flags: W
HStem: 0 21G<6 102 6 6 467 567 467 467> 173 77<177 392 177 415 154 392> 610 79<285 285> 669 20G<227 347 347 347>
VStem: 6 561<0 0>
LayerCount: 2
Fore
SplineSet
397 804 m 1xd8
 373 755 l 1
 157 834 l 1
 196 911 l 1
 397 804 l 1xd8
467 0 m 1
 415 173 l 1
 154 173 l 1
 102 0 l 1
 6 0 l 1
 227 689 l 1
 347 689 l 1
 567 0 l 1
 467 0 l 1
177 250 m 1
 392 250 l 1
 285 610 l 1xe8
 177 250 l 1
EndSplineSet
EndChar
StartChar: uni00CE
Encoding: 206 206 141
Width: 295
Flags: W
HStem: 0 21G<100 195 100 100> 669 20G<100 195 195 195>
VStem: 100 95<0 689 0 689>
LayerCount: 2
Fore
SplineSet
20 759 m 1
 -20 804 l 1
 116 914 l 1
 177 914 l 1
 312 804 l 1
 273 759 l 1
 146 840 l 1
 20 759 l 1
195 689 m 1
 195 0 l 1
 100 0 l 1
 100 689 l 1
 195 689 l 1
EndSplineSet
EndChar
StartChar: uni00DC
Encoding: 220 220 155
Width: 662
Flags: W
HStem: -12 80<281 379.5 281 407.5> 669 20G<90 185 185 185 476 572 572 572> 780 114<209.5 242 419 451.5>
VStem: 90 95<221 228 228 689> 168 115<821 853> 378 115<821 853> 476 96<228 689>
LayerCount: 2
Fore
SplineSet
226 894 m 0xec
 258 894 283 869 283 837 c 0
 283 805 258 780 226 780 c 0
 193 780 168 805 168 837 c 0
 168 869 193 894 226 894 c 0xec
435 894 m 0
 468 894 493 869 493 837 c 0
 493 805 468 780 435 780 c 0
 403 780 378 805 378 837 c 0
 378 869 403 894 435 894 c 0
572 689 m 1xf2
 572 221 l 2
 572 84 485 -12 330 -12 c 0
 173 -12 90 84 90 221 c 2
 90 689 l 1
 185 689 l 1
 185 228 l 2
 185 121 232 68 330 68 c 0
 429 68 476 121 476 228 c 2
 476 689 l 1
 572 689 l 1xf2
EndSplineSet
EndChar
StartChar: uni00EC
Encoding: 236 236 171
Width: 276
Flags: W
HStem: 0 21G<92 184 92 92> 507 20G<92 184 184 184>
VStem: 92 92<0 527 0 527>
LayerCount: 2
Fore
SplineSet
69 801 m 1
 268 687 l 1
 240 638 l 1
 28 724 l 1
 69 801 l 1
184 527 m 1
 184 0 l 1
 92 0 l 1
 92 527 l 1
 184 527 l 1
EndSplineSet
EndChar
StartChar: uni00EE
Encoding: 238 238 173
Width: 276
Flags: W
HStem: 0 21G<92 184 92 92> 507 20G<92 184 184 184>
VStem: 92 92<0 527 0 527>
LayerCount: 2
Fore
SplineSet
11 634 m 1
 -28 679 l 1
 107 792 l 1
 168 792 l 1
 304 679 l 1
 264 634 l 1
 138 718 l 1
 11 634 l 1
184 527 m 1
 184 0 l 1
 92 0 l 1
 92 527 l 1
 184 527 l 1
EndSplineSet
EndChar
StartChar: uni00F0
Encoding: 240 240 175
Width: 570
Flags: W
HStem: -12 73<239.5 317.5 239.5 346> 403 72<225 290.5 189.5 303.5> 549 20G<151 151> 682 20G<281 281> 730 20G<132 132>
VStem: 57 94<180.5 283 180.5 294> 415 93<198.5 276.5>
LayerCount: 2
Fore
SplineSet
342 664 m 1
 466 570 508 445 508 265 c 0
 508 97 414 -12 278 -12 c 0
 155 -12 57 77 57 235 c 0
 57 353 121 475 258 475 c 0
 323 475 370 450 405 408 c 1
 389 491 353 554 286 607 c 1
 214 537 l 1
 151 569 l 1
 225 644 l 1
 186 662 153 672 112 680 c 1
 132 750 l 1
 188 739 234 725 281 702 c 1
 351 776 l 1
 405 729 l 1
 342 664 l 1
277 61 m 0
 358 61 415 131 415 266 c 0
 415 287 414 306 413 325 c 1
 379 376 335 403 272 403 c 0
 178 403 151 327 151 239 c 0
 151 122 202 61 277 61 c 0
EndSplineSet
EndChar
StartChar: uni00F7
Encoding: 247 247 182
Width: 500
Flags: W
HStem: 23 139<199.729 301.157> 242 76<62 438> 399 139<199.729 301.157>
VStem: 181 139<42.2058 142.908 418.206 518.908>
LayerCount: 2
Fore
SplineSet
250 538 m 0
 290 538 320 507 320 469 c 0
 320 430 290 399 250 399 c 0
 211 399 181 430 181 469 c 0
 181 507 211 538 250 538 c 0
62 242 m 1
 62 318 l 1
 438 318 l 1
 438 242 l 1
 62 242 l 1
250 162 m 0
 290 162 320 131 320 93 c 0
 320 54 290 23 250 23 c 0
 211 23 181 54 181 93 c 0
 181 131 211 162 250 162 c 0
EndSplineSet
EndChar
StartChar: uni00F8
Encoding: 248 248 183
Width: 584
Flags: W
HStem: -12 74<286 336 286 366.5> -7 21G<241 241> 465 74<249 299> 514 20G<344 344>
VStem: 57 99<217 332 217 344.5> 428 99<195 309.5>
LayerCount: 2
Fore
SplineSet
416 508 m 1xac
 488 464 527 378 527 264 c 0
 527 101 441 -12 292 -12 c 0xac
 274 -12 257 -10 241 -7 c 1
 202 -130 l 1
 127 -108 l 1
 169 19 l 1
 97 63 57 149 57 263 c 0
 57 426 143 539 293 539 c 0x6c
 311 539 328 537 344 534 c 1x9c
 383 656 l 1
 458 634 l 1
 416 508 l 1xac
293 465 m 0
 205 465 156 401 156 263 c 0
 156 171 173 118 204 89 c 1
 328 462 l 1
 317 464 305 465 293 465 c 0
292 62 m 0
 380 62 428 126 428 264 c 0
 428 355 412 408 381 437 c 1
 258 65 l 1
 268 63 280 62 292 62 c 0
EndSplineSet
EndChar
StartChar: uni00FC
Encoding: 252 252 187
Width: 575
Flags: W
HStem: -12 72<230.5 270.5> 0 21G<404 483 404 404> 507 20G<86 178 178 178 391 483 483 483> 654 114<163.5 196 373 405.5>
VStem: 86 92<149 159 159 527> 122 115<695 727> 332 115<695 727> 391 92<151 527 0 527>
LayerCount: 2
Fore
SplineSet
180 768 m 0xb6
 212 768 237 743 237 711 c 0
 237 679 212 654 180 654 c 0
 147 654 122 679 122 711 c 0
 122 743 147 768 180 768 c 0xb6
389 768 m 0
 422 768 447 743 447 711 c 0
 447 679 422 654 389 654 c 0
 357 654 332 679 332 711 c 0
 332 743 357 768 389 768 c 0
483 527 m 1xb9
 483 0 l 1
 404 0 l 1x79
 397 82 l 1
 357 18 308 -12 233 -12 c 0
 141 -12 86 46 86 149 c 2
 86 527 l 1
 178 527 l 1
 178 159 l 2
 178 87 202 60 259 60 c 0
 316 60 359 98 391 151 c 1
 391 527 l 1
 483 527 l 1xb9
EndSplineSet
EndChar
StartChar: uni0104
Encoding: 260 260 195
Width: 573
Flags: W
HStem: -232 70<439.5 462> 0 21G<6 102 6 6 527 567 527 527> 173 77<177 392 177 415 154 392> 610 79<285 285> 669 20G<227 347 347 347>
VStem: 324 80<-129 -99>
LayerCount: 2
Fore
SplineSet
527 0 m 1xec
 425 -44 404 -78 404 -114 c 0
 404 -144 419 -162 460 -162 c 0
 481 -162 497 -160 521 -155 c 1
 512 -225 l 1
 492 -229 475 -232 449 -232 c 0
 372 -232 324 -189 324 -131 c 0
 324 -67 368 -20 462 16 c 1
 415 173 l 1
 154 173 l 1
 102 0 l 1
 6 0 l 1
 227 689 l 1
 347 689 l 1
 567 0 l 1
 527 0 l 1xec
177 250 m 1
 392 250 l 1
 285 610 l 1xf4
 177 250 l 1
EndSplineSet
EndChar
StartChar: uni010C
Encoding: 268 268 203
Width: 560
Flags: W
HStem: -12 80<292.5 378.5 292.5 389.5> 623 78<295 371>
VStem: 55 101<245.5 449 245.5 461.5>
LayerCount: 2
Fore
SplineSet
474 909 m 1
 513 864 l 1
 378 754 l 1
 317 754 l 1
 181 864 l 1
 221 909 l 1
 347 828 l 1
 474 909 l 1
341 701 m 0
 428 701 477 677 532 633 c 1
 480 572 l 1
 437 607 395 623 347 623 c 0
 243 623 156 553 156 345 c 0
 156 146 239 68 346 68 c 0
 411 68 454 96 493 125 c 1
 540 65 l 1
 502 26 436 -12 343 -12 c 0
 176 -12 55 113 55 345 c 0
 55 578 185 701 341 701 c 0
EndSplineSet
EndChar
StartChar: uni0114
Encoding: 276 276 211
Width: 535
Flags: W
HStem: 0 76<195 481 195 481> 312 76<195 427 195 427> 613 76<195 462 195 195> 758 70<264.5 311.5 264.5 328.5>
VStem: 100 95<76 312 388 613>
LayerCount: 2
Fore
SplineSet
288 758 m 0
 208 758 146 807 138 881 c 1
 199 894 l 1
 213 854 241 828 288 828 c 0
 335 828 366 854 380 894 c 1
 441 881 l 1
 433 807 369 758 288 758 c 0
473 689 m 1
 462 613 l 1
 195 613 l 1
 195 388 l 1
 427 388 l 1
 427 312 l 1
 195 312 l 1
 195 76 l 1
 481 76 l 1
 481 0 l 1
 100 0 l 1
 100 689 l 1
 473 689 l 1
EndSplineSet
EndChar
StartChar: uni0116
Encoding: 278 278 213
Width: 535
Flags: W
HStem: 0 76<195 481 195 481> 312 76<195 427 195 427> 613 76<195 462 195 195> 781 125<270 308.5>
VStem: 100 95<76 312 388 613> 225 129<825.5 861>
LayerCount: 2
Fore
SplineSet
289 906 m 0
 328 906 354 879 354 843 c 0
 354 808 328 781 289 781 c 0
 251 781 225 808 225 843 c 0
 225 879 251 906 289 906 c 0
473 689 m 1
 462 613 l 1
 195 613 l 1
 195 388 l 1
 427 388 l 1
 427 312 l 1
 195 312 l 1
 195 76 l 1
 481 76 l 1
 481 0 l 1
 100 0 l 1
 100 689 l 1xe8
 473 689 l 1
EndSplineSet
EndChar
StartChar: uni0127
Encoding: 295 295 230
Width: 585
Flags: W
HStem: 0 21G<98 190 98 98 407 499 407 407> 467 72<313 348> 606 70<22 98 22 98 190 341> 728 20G<190 190>
VStem: 98 92<0 375 0 454 454 606 676 738 738 738> 407 92<0 365 365 378 0 404.5>
LayerCount: 2
Fore
SplineSet
346 539 m 0
 442 539 499 477 499 378 c 2
 499 0 l 1
 407 0 l 1
 407 365 l 2
 407 444 373 467 323 467 c 0
 266 467 225 430 190 375 c 1
 190 0 l 1
 98 0 l 1
 98 606 l 1
 22 606 l 1
 22 676 l 1
 98 676 l 1
 98 738 l 1
 190 748 l 1
 190 676 l 1
 341 676 l 1
 341 606 l 1
 190 606 l 1
 190 454 l 1
 228 506 280 539 346 539 c 0
EndSplineSet
EndChar
StartChar: uni012A
Encoding: 298 298 233
Width: 295
Flags: W
HStem: 0 21G<100 195 100 100> 669 20G<100 195 195 195> 793 69<10 283 10 283>
VStem: 100 95<0 689 0 689>
LayerCount: 2
Fore
SplineSet
283 793 m 1
 10 793 l 1
 10 862 l 1
 283 862 l 1
 283 793 l 1
195 689 m 1
 195 0 l 1
 100 0 l 1
 100 689 l 1
 195 689 l 1
EndSplineSet
EndChar
StartChar: uni014B
Encoding: 331 331 266
Width: 582
Flags: W
HStem: -213 74<323.5 359.5 323.5 390.5> 0 21G<92 184 92 92 401 404 401 401> 467 72<305.5 343.5> 507 20G<92 171 171 171>
VStem: 92 92<0 374 0 527> 401 92<1 1 1 365 365 378>
LayerCount: 2
Fore
SplineSet
493 1 m 1xec
 496 1 l 1
 496 -57 l 2
 496 -160 436 -213 345 -213 c 0
 292 -213 255 -194 230 -175 c 1
 266 -117 l 1
 289 -130 307 -139 340 -139 c 0
 379 -139 404 -118 404 -65 c 2
 404 0 l 1
 401 0 l 1
 401 365 l 2
 401 444 369 467 318 467 c 0
 259 467 219 430 184 374 c 1xec
 184 0 l 1
 92 0 l 1
 92 527 l 1
 171 527 l 1xdc
 179 449 l 1
 215 503 271 539 340 539 c 0
 437 539 493 478 493 378 c 2
 493 1 l 1xec
EndSplineSet
EndChar
StartChar: uni0164
Encoding: 356 356 291
Width: 517
Flags: W
HStem: 0 21G<211 306 211 211> 608 81<15 211 15 507 306 497 306 306>
VStem: 211 95<0 608 0 608>
LayerCount: 2
Fore
SplineSet
386 909 m 1
 425 864 l 1
 290 754 l 1
 229 754 l 1
 93 864 l 1
 133 909 l 1
 259 828 l 1
 386 909 l 1
507 689 m 1
 497 608 l 1
 306 608 l 1
 306 0 l 1
 211 0 l 1
 211 608 l 1
 15 608 l 1
 15 689 l 1
 507 689 l 1
EndSplineSet
EndChar
StartChar: uni0168
Encoding: 360 360 295
Width: 662
Flags: W
HStem: -12 80<281 379.5 281 407.5> 669 20G<90 185 185 185 476 572 572 572> 782 70<370.5 399 370.5 411.5> 830 70<261.5 291>
VStem: 90 95<221 228 228 689> 476 96<228 689>
LayerCount: 2
Fore
SplineSet
389 782 m 0xec
 336 782 309 830 273 830 c 0
 250 830 236 814 220 784 c 1
 164 812 l 1
 187 861 223 900 273 900 c 0xdc
 329 900 352 852 389 852 c 0
 409 852 424 866 442 896 c 1
 498 868 l 1
 472 811 434 782 389 782 c 0xec
572 689 m 1xdc
 572 221 l 2
 572 84 485 -12 330 -12 c 0
 173 -12 90 84 90 221 c 2
 90 689 l 1
 185 689 l 1
 185 228 l 2
 185 121 232 68 330 68 c 0
 429 68 476 121 476 228 c 2
 476 689 l 1
 572 689 l 1xdc
EndSplineSet
EndChar
StartChar: uni0171
Encoding: 369 369 304
Width: 575
Flags: W
HStem: -12 72<230.5 270.5> 0 21G<404 483 404 404> 507 20G<86 178 178 178 391 483 483 483> 720 20G<509 509> 732 20G<359 359>
VStem: 86 92<149 159 159 527> 391 92<151 527 0 527>
LayerCount: 2
Fore
SplineSet
295 797 m 1xae
 359 752 l 1
 236 597 l 1
 191 625 l 1
 295 797 l 1xae
447 789 m 1
 509 740 l 1xb6
 378 592 l 1
 335 623 l 1
 447 789 l 1
483 527 m 1
 483 0 l 1
 404 0 l 1x6e
 397 82 l 1
 357 18 308 -12 233 -12 c 0
 141 -12 86 46 86 149 c 2
 86 527 l 1
 178 527 l 1
 178 159 l 2
 178 87 202 60 259 60 c 0
 316 60 359 98 391 151 c 1
 391 527 l 1
 483 527 l 1
EndSplineSet
EndChar
StartChar: uni017B
Encoding: 379 379 314
Width: 522
Flags: W
HStem: 0 81<136 466> 609 80<66 374 66 477> 781 125<252 290.5>
VStem: 207 129<825.5 861>
LayerCount: 2
Fore
SplineSet
271 906 m 0
 310 906 336 879 336 843 c 0
 336 808 310 781 271 781 c 0
 233 781 207 808 207 843 c 0
 207 879 233 906 271 906 c 0
477 689 m 1
 477 612 l 1
 136 81 l 1
 477 81 l 1
 466 0 l 1
 30 0 l 1
 30 76 l 1
 374 609 l 1
 66 609 l 1
 66 689 l 1
 477 689 l 1
EndSplineSet
EndChar
StartChar: uni0182
Encoding: 386 386 321
Width: 579
Flags: W
HStem: 0 76<195 282> 356 74<195 286 286 287 195 286> 611 78<195 463 195 195>
VStem: 100 95<76 356 430 611> 448 101<160.5 269>
LayerCount: 2
Fore
SplineSet
286 430 m 2
 447 430 549 362 549 220 c 0
 549 61 438 0 282 0 c 2
 100 0 l 1
 100 689 l 1
 475 689 l 1
 463 611 l 1
 195 611 l 1
 195 430 l 1
 286 430 l 2
290 76 m 2
 381 76 448 103 448 218 c 0
 448 320 388 356 287 356 c 2
 195 356 l 1
 195 76 l 1
 290 76 l 2
EndSplineSet
EndChar
StartChar: uni0189
Encoding: 393 393 328
Width: 656
Flags: W
HStem: 0 75<207 277> 318 70<20 112 20 112 207 364> 613 76<207 256 256 277 207 207>
VStem: 112 95<75 318 75 318 75 318 388 613> 500 101<234.5 464.5>
LayerCount: 2
Fore
SplineSet
256 689 m 2
 432 689 601 634 601 348 c 0
 601 67 426 0 277 0 c 2
 112 0 l 1
 112 318 l 1
 20 318 l 1
 20 388 l 1
 112 388 l 1
 112 689 l 1
 256 689 l 2
284 75 m 2
 392 75 500 121 500 348 c 0
 500 581 387 613 277 613 c 2
 207 613 l 1
 207 388 l 1
 364 388 l 1
 364 318 l 1
 207 318 l 1
 207 75 l 1
 284 75 l 2
EndSplineSet
EndChar
StartChar: uni018B
Encoding: 395 395 330
Width: 579
Flags: W
HStem: 0 76<213.5 384 289 384 289 479> 356 74<241.5 384 293 384 293 384> 611 78<109 384 109 479>
VStem: 30 101<156 264.5 156 283.5> 384 95<76 356 356 356 430 611 611 611>
LayerCount: 2
Fore
SplineSet
479 689 m 1
 479 0 l 1
 287 0 l 2
 140 0 30 58 30 212 c 0
 30 355 132 430 293 430 c 2
 384 430 l 1
 384 611 l 1
 109 611 l 1
 109 689 l 1
 479 689 l 1
289 76 m 2
 384 76 l 1
 384 356 l 1
 292 356 l 2
 191 356 131 317 131 212 c 0
 131 100 198 76 289 76 c 2
EndSplineSet
EndChar
StartChar: uni018C
Encoding: 396 396 331
Width: 590
Flags: W
HStem: -12 73<238 288.5> 0 21G<417 498 417 417> 466 73<244.5 295 199.5 310> 669 70<188 406 188 498>
VStem: 57 99<193.5 331.5 193.5 341.5> 406 92<139 397 397 397 474 669 669 669>
LayerCount: 2
Fore
SplineSet
498 739 m 1xbc
 498 0 l 1
 417 0 l 1x7c
 408 73 l 1
 374 20 321 -12 256 -12 c 0
 128 -12 57 97 57 261 c 0
 57 422 135 539 264 539 c 0
 326 539 371 511 406 474 c 1
 406 669 l 1
 188 669 l 1
 188 739 l 1
 498 739 l 1xbc
276 61 m 0xbc
 335 61 371 90 406 139 c 1
 406 397 l 1
 373 439 336 466 284 466 c 0
 205 466 156 400 156 263 c 0
 156 124 200 61 276 61 c 0xbc
EndSplineSet
EndChar
StartChar: uni018E
Encoding: 398 398 333
Width: 535
Flags: W
HStem: 0 76<54 340 54 435 54 340> 312 76<108 340 108 340> 613 76<60 340 60 435>
VStem: 340 95<76 312 312 312 388 613 613 613>
LayerCount: 2
Fore
SplineSet
60 689 m 1
 435 689 l 1
 435 0 l 1
 54 0 l 1
 54 76 l 1
 340 76 l 1
 340 312 l 1
 108 312 l 1
 108 388 l 1
 340 388 l 1
 340 613 l 1
 60 613 l 1
 60 689 l 1
EndSplineSet
EndChar
StartChar: uni0190
Encoding: 400 400 335
Width: 521
Flags: W
HStem: -12 80<248.5 330 248.5 333.5> 325 78<298 299 299 351> 623 78<243.5 314.5>
VStem: 45 102<158.5 239 158.5 251.5> 68 99<481.5 546 481.5 574>
LayerCount: 2
Fore
SplineSet
279 701 m 0xf0
 363 701 434 672 494 616 c 1
 442 559 l 1
 395 601 343 623 286 623 c 0
 201 623 167 575 167 517 c 0xe8
 167 446 219 403 298 403 c 2
 364 403 l 1
 351 325 l 1
 299 325 l 2
 198 325 147 279 147 199 c 0
 147 118 201 68 296 68 c 0
 364 68 415 93 455 135 c 1
 511 81 l 1
 454 18 376 -12 291 -12 c 0
 149 -12 45 72 45 198 c 0xf0
 45 305 119 360 203 369 c 1
 123 387 68 438 68 525 c 0xe8
 68 623 141 701 279 701 c 0xf0
EndSplineSet
EndChar
StartChar: uni0196
Encoding: 406 406 341
Width: 366
Flags: W
HStem: -12 76<226.5 262.5 226.5 267.5> 669 20G<90 185 185 185>
VStem: 90 95<144 689>
LayerCount: 2
Fore
SplineSet
319 86 m 1
 356 26 l 1
 331 7 294 -12 241 -12 c 0
 149 -12 90 40 90 144 c 2
 90 689 l 1
 185 689 l 1
 185 138 l 2
 185 87 207 64 246 64 c 0
 279 64 297 73 319 86 c 1
EndSplineSet
EndChar
StartChar: uni0198
Encoding: 408 408 343
Width: 617
Flags: W
HStem: 0 21G<100 195 100 100 472 472 472 589> 624 77<507.5 537.5> 669 20G<100 195 195 195>
VStem: 100 95<0 689 0 689>
LayerCount: 2
Fore
SplineSet
472 0 m 1xd0
 200 368 l 1
 369 610 l 2
 413 673 450 701 517 701 c 0
 564 701 593 685 617 666 c 1
 583 605 l 1
 568 615 552 624 523 624 c 0
 492 624 472 616 438 566 c 2
 308 374 l 1
 589 0 l 1
 472 0 l 1xd0
195 689 m 1xb0
 195 0 l 1
 100 0 l 1
 100 689 l 1
 195 689 l 1xb0
EndSplineSet
EndChar
StartChar: uni019D
Encoding: 413 413 348
Width: 683
Flags: W
HStem: -213 74<19.5 55.5 19.5 85.5> 0 21G<456 583 456 456> 0 103<507 507 507 583 456 507> 585 104<176 176> 669 20G<100 224 224 224 494 583 583 583>
VStem: 100 89<-65 -59 -59 316> 494 89<313 689 0 689>
LayerCount: 2
Fore
SplineSet
494 689 m 1xce
 583 689 l 1
 583 0 l 1
 456 0 l 1
 176 585 l 1xd6
 181 528 189 444 189 316 c 2
 189 -59 l 2
 189 -161 130 -213 41 -213 c 0
 -12 -213 -49 -194 -74 -175 c 1
 -38 -116 l 1
 -15 -130 3 -139 36 -139 c 0
 75 -139 100 -118 100 -65 c 2
 100 689 l 1
 224 689 l 1
 507 103 l 1xae
 505 119 494 229 494 313 c 2
 494 689 l 1xce
EndSplineSet
EndChar
StartChar: uni01A5
Encoding: 421 421 356
Width: 586
Flags: W
HStem: -213 21G<92 92> -202 21G<184 184> -12 75<293.5 342 276 390> 466 73<305 350.5> 676 74<233 275.5>
VStem: 92 92<-202 48 -202 127 127 384 458 599 599 600> 430 99<195 332.5>
LayerCount: 2
Fore
SplineSet
334 539 m 0x7e
 474 539 529 430 529 264 c 0
 529 104 458 -12 322 -12 c 0
 265 -12 218 7 184 48 c 1
 184 -202 l 1x7e
 92 -213 l 1xbe
 92 599 l 2
 92 687 150 750 257 750 c 0
 307 750 341 741 383 723 c 1
 354 656 l 1
 320 671 289 676 262 676 c 0
 204 676 184 651 184 600 c 2
 184 458 l 1
 223 512 276 539 334 539 c 0x7e
300 63 m 0
 384 63 430 126 430 264 c 0
 430 401 390 466 311 466 c 0
 255 466 212 426 184 384 c 1
 184 127 l 1
 211 86 252 63 300 63 c 0
EndSplineSet
EndChar
StartChar: uni01A6
Encoding: 422 422 357
Width: 605
Flags: W
HStem: 0 21G<100 195 100 100> 170 73<195 291 291 302 195 291> 493 74<195 280 195 281> 669 20G<100 195 195 195>
VStem: 100 95<0 170 243 493 567 689> 442 101<325.5 415>
LayerCount: 2
Fore
SplineSet
467 -122 m 1
 302 170 l 1
 195 170 l 1
 195 0 l 1
 100 0 l 1
 100 689 l 1
 195 689 l 1
 195 567 l 1
 281 567 l 2
 453 567 543 501 543 372 c 0
 543 275 493 217 394 187 c 1
 580 -122 l 1
 467 -122 l 1
195 243 m 1
 291 243 l 2
 387 243 442 279 442 372 c 0
 442 458 393 493 280 493 c 2
 195 493 l 1
 195 243 l 1
EndSplineSet
EndChar
StartChar: uni01AC
Encoding: 428 428 363
Width: 555
Flags: W
HStem: 0 21G<249 344 249 249> 608 81<134.5 545 159 249 344 535 344 344>
VStem: 10 89<549 575.5 549 601.5> 249 95<0 608 0 608>
LayerCount: 2
Fore
SplineSet
545 689 m 1
 535 608 l 1
 344 608 l 1
 344 0 l 1
 249 0 l 1
 249 608 l 1
 153 608 l 2
 116 608 99 589 99 562 c 0
 99 536 108 517 119 494 c 1
 48 458 l 1
 29 487 10 523 10 565 c 0
 10 638 62 689 159 689 c 2
 545 689 l 1
EndSplineSet
EndChar
StartChar: uni01B0
Encoding: 432 432 367
Width: 601
Flags: W
HStem: -12 72<230.5 270.5> 0 21G<404 483 404 404> 417 56<483 487> 417 110 439 88<483 483>
VStem: 86 92<149 159 159 527> 391 92<151 439 0 473 473 527 0 527> 534 77<506.5 537>
LayerCount: 2
Fore
SplineSet
592 607 m 1x97
 603 588 611 561 611 525 c 0
 611 456 567 420 487 417 c 1x97
 483 439 l 1
 483 0 l 1
 404 0 l 1x4f
 397 82 l 1
 357 18 308 -12 233 -12 c 0
 141 -12 86 46 86 149 c 2
 86 527 l 1
 178 527 l 1
 178 159 l 2
 178 87 202 60 259 60 c 0
 316 60 359 98 391 151 c 1
 391 527 l 1
 483 527 l 1x97
 483 473 l 1
 518 478 534 493 534 520 c 0xa7
 534 554 528 572 520 592 c 1
 592 607 l 1x97
EndSplineSet
EndChar
StartChar: uni01B1
Encoding: 433 433 368
Width: 692
Flags: W
HStem: -12 78<287 403.5 287 432> 611 78<77 184 77 279 77 279 509 509 509 616>
VStem: 55 101<231 391 231 395> 77 202<611 689 611 689> 414 202<611 689 611 689> 536 101<231.5 391.5>
LayerCount: 2
Fore
SplineSet
346 -12 m 0xe4
 169 -12 55 113 55 315 c 0xe4
 55 475 116 552 184 611 c 1
 77 611 l 1
 77 689 l 1
 279 689 l 1xd4
 279 611 l 1
 198 546 156 467 156 315 c 0
 156 147 228 66 346 66 c 0
 461 66 536 147 536 316 c 0xe4
 536 467 487 547 414 611 c 1
 414 689 l 1
 616 689 l 1
 616 611 l 1xe8
 509 611 l 1
 577 560 637 481 637 316 c 0
 637 119 518 -12 346 -12 c 0xe4
EndSplineSet
EndChar
StartChar: uni01BC
Encoding: 444 444 379
Width: 511
Flags: W
HStem: -12 75<199 272.5 199 301> 365 71<257 283> 617 72<160 430 160 160>
VStem: 72 88<407 617 407 689 407 689> 370 96<169.5 275>
LayerCount: 2
Fore
SplineSet
443 689 m 1
 430 617 l 1
 160 617 l 1
 160 407 l 1
 201 429 237 436 277 436 c 0
 389 436 466 357 466 219 c 0
 466 81 373 -12 229 -12 c 0
 144 -12 79 20 26 73 c 1
 80 126 l 1
 123 84 170 63 228 63 c 0
 317 63 370 118 370 221 c 0
 370 329 317 365 249 365 c 0
 210 365 183 357 144 342 c 1
 72 342 l 1
 72 689 l 1
 443 689 l 1
EndSplineSet
EndChar
StartChar: uni01CF
Encoding: 463 463 398
Width: 295
Flags: W
HStem: 0 21G<100 195 100 100> 669 20G<100 195 195 195>
VStem: 100 95<0 689 0 689>
LayerCount: 2
Fore
SplineSet
274 909 m 1
 313 864 l 1
 178 754 l 1
 117 754 l 1
 -19 864 l 1
 21 909 l 1
 147 828 l 1
 274 909 l 1
195 689 m 1
 195 0 l 1
 100 0 l 1
 100 689 l 1
 195 689 l 1
EndSplineSet
EndChar
StartChar: uni01D2
Encoding: 466 466 401
Width: 584
Flags: W
HStem: -12 74<248 336 248 366.5> 465 74<249 336.5> 627 74<292 292 292 323 262 292> 681 20G<292 292> 720 20G<126 126 458 458>
VStem: 57 99<194.5 332 194.5 344.5> 428 99<195 332.5>
LayerCount: 2
Fore
SplineSet
419 785 m 1xde
 458 740 l 1
 323 627 l 1
 262 627 l 1xee
 126 740 l 1
 166 785 l 1
 292 701 l 1
 419 785 l 1xde
293 539 m 0
 443 539 527 431 527 264 c 0
 527 101 441 -12 292 -12 c 0
 142 -12 57 96 57 263 c 0
 57 426 143 539 293 539 c 0
293 465 m 0
 205 465 156 401 156 263 c 0
 156 126 204 62 292 62 c 0
 380 62 428 126 428 264 c 0
 428 401 380 465 293 465 c 0
EndSplineSet
EndChar
StartChar: uni01D3
Encoding: 467 467 402
Width: 662
Flags: W
HStem: -12 80<281 379.5 281 407.5> 669 20G<90 185 185 185 476 572 572 572>
VStem: 90 95<221 228 228 689> 476 96<228 689>
LayerCount: 2
Fore
SplineSet
458 909 m 1
 497 864 l 1
 362 754 l 1
 301 754 l 1
 165 864 l 1
 205 909 l 1
 331 828 l 1
 458 909 l 1
572 689 m 1
 572 221 l 2
 572 84 485 -12 330 -12 c 0
 173 -12 90 84 90 221 c 2
 90 689 l 1
 185 689 l 1
 185 228 l 2
 185 121 232 68 330 68 c 0
 429 68 476 121 476 228 c 2
 476 689 l 1
 572 689 l 1
EndSplineSet
EndChar
StartChar: uni01DD
Encoding: 477 477 412
Width: 553
Flags: W
HStem: -12 73<230 308.5 230 339> 227 68<141 398 53 399 141 141> 464 75<242 306>
VStem: 51 90<168.5 219 219 227 168.5 256.5> 399 97<227 227>
LayerCount: 2
Fore
SplineSet
268 539 m 0
 425 539 496 431 496 264 c 0
 496 94 408 -12 270 -12 c 0
 137 -12 51 85 51 248 c 0
 51 265 51 281 53 295 c 1
 398 295 l 1
 391 414 346 464 266 464 c 0
 218 464 176 452 131 415 c 1
 89 476 l 1
 137 515 197 539 268 539 c 0
270 61 m 0
 347 61 394 105 399 227 c 1
 141 227 l 1
 141 219 l 2
 141 118 190 61 270 61 c 0
EndSplineSet
EndChar
StartChar: uni01E0
Encoding: 480 480 415
Width: 573
Flags: W
HStem: 0 21G<6 102 6 6 467 567 467 467> 173 77<177 392 177 415 154 392> 610 79<285 285> 669 20G<227 347 347 347> 741 125<270 308.5> 904 69<155 428 155 428>
VStem: 155 273<904 973 904 973> 225 129<785.5 821>
LayerCount: 2
Fore
SplineSet
428 973 m 1xde
 428 904 l 1
 155 904 l 1
 155 973 l 1
 428 973 l 1xde
225 803 m 0xdd
 225 839 251 866 289 866 c 0
 328 866 354 839 354 803 c 0
 354 768 328 741 289 741 c 0
 251 741 225 768 225 803 c 0xdd
467 0 m 1
 415 173 l 1
 154 173 l 1
 102 0 l 1
 6 0 l 1
 227 689 l 1
 347 689 l 1
 567 0 l 1
 467 0 l 1
177 250 m 1
 392 250 l 1
 285 610 l 1xed
 177 250 l 1
EndSplineSet
EndChar
StartChar: uni01E6
Encoding: 486 486 421
Width: 631
Flags: W
HStem: -12 78<283.5 367 283.5 388> 305 77<353 475 353 353> 623 78<304.5 385>
VStem: 55 101<246 446.5 246 461> 475 94<97 305 305 305>
LayerCount: 2
Fore
SplineSet
482 909 m 1
 521 864 l 1
 386 754 l 1
 325 754 l 1
 189 864 l 1
 229 909 l 1
 355 828 l 1
 482 909 l 1
354 701 m 0
 445 701 502 674 561 625 c 1
 505 567 l 1
 457 606 416 623 354 623 c 0
 255 623 156 548 156 345 c 0
 156 147 223 66 344 66 c 0
 390 66 436 75 475 97 c 1
 475 305 l 1
 353 305 l 1
 342 382 l 1
 569 382 l 1
 569 49 l 1
 504 12 432 -12 344 -12 c 0
 166 -12 55 107 55 345 c 0
 55 577 195 701 354 701 c 0
EndSplineSet
EndChar
StartChar: uni01EF
Encoding: 495 495 430
Width: 476
Flags: W
HStem: -213 75<177 255.5 177 283.5> 138 68<117 216> 451 76<31 322 31 427> 627 74<229 229 229 260 199 229> 720 20G<63 63 395 395>
VStem: 352 99<-39 55.5>
LayerCount: 2
Fore
SplineSet
260 627 m 1
 199 627 l 1
 63 740 l 1
 103 785 l 1
 229 701 l 1
 356 785 l 1
 395 740 l 1
 260 627 l 1
216 206 m 2
 367 206 451 138 451 7 c 0
 451 -125 356 -213 211 -213 c 0
 117 -213 52 -182 0 -123 c 1
 54 -73 l 1
 100 -118 145 -138 209 -138 c 0
 302 -138 352 -87 352 9 c 0
 352 102 307 138 196 138 c 2
 117 138 l 1
 117 205 l 1
 322 451 l 1
 31 451 l 1
 31 527 l 1
 427 527 l 1
 427 457 l 1
 213 206 l 1
 216 206 l 2
EndSplineSet
EndChar
StartChar: uni0204
Encoding: 516 516 451
Width: 535
Flags: W
HStem: 0 76<195 481 195 481> 312 76<195 427 195 427> 613 76<195 462 195 195>
VStem: 100 95<76 312 388 613>
LayerCount: 2
Fore
SplineSet
168 958 m 1
 254 785 l 1
 196 760 l 1
 90 917 l 1
 168 958 l 1
320 958 m 1
 396 790 l 1
 338 765 l 1
 242 917 l 1
 320 958 l 1
473 689 m 1
 462 613 l 1
 195 613 l 1
 195 388 l 1
 427 388 l 1
 427 312 l 1
 195 312 l 1
 195 76 l 1
 481 76 l 1
 481 0 l 1
 100 0 l 1
 100 689 l 1
 473 689 l 1
EndSplineSet
EndChar
StartChar: uni020B
Encoding: 523 523 458
Width: 276
Flags: W
HStem: 0 21G<92 184 92 92> 507 20G<92 184 184 184> 690 70<112.5 159.5>
VStem: 92 92<0 527 0 527>
LayerCount: 2
Fore
SplineSet
136 760 m 0
 217 760 281 711 289 627 c 1
 228 614 l 1
 214 664 183 690 136 690 c 0
 89 690 61 664 47 614 c 1
 -14 627 l 1
 -6 711 56 760 136 760 c 0
184 527 m 1
 184 0 l 1
 92 0 l 1
 92 527 l 1
 184 527 l 1
EndSplineSet
EndChar
StartChar: uni020F
Encoding: 527 527 462
Width: 584
Flags: W
HStem: -12 74<248 336 248 366.5> 465 74<249 336.5> 690 70<266.5 313.5>
VStem: 57 99<194.5 332 194.5 344.5> 428 99<195 332.5>
LayerCount: 2
Fore
SplineSet
290 760 m 0
 371 760 435 711 443 627 c 1
 382 614 l 1
 368 664 337 690 290 690 c 0
 243 690 215 664 201 614 c 1
 140 627 l 1
 148 711 210 760 290 760 c 0
293 539 m 0
 443 539 527 431 527 264 c 0
 527 101 441 -12 292 -12 c 0
 142 -12 57 96 57 263 c 0
 57 426 143 539 293 539 c 0
293 465 m 0
 205 465 156 401 156 263 c 0
 156 126 204 62 292 62 c 0
 380 62 428 126 428 264 c 0
 428 401 380 465 293 465 c 0
EndSplineSet
EndChar
StartChar: uni0212
Encoding: 530 530 465
Width: 605
Flags: W
HStem: 0 21G<100 195 100 100 467 580 467 467> 292 73<195 291 291 302 195 291> 615 74<195 280 195 195> 852 70<273.5 320.5>
VStem: 100 95<0 292 365 615> 442 101<447.5 537>
LayerCount: 2
Fore
SplineSet
297 852 m 0
 250 852 222 826 208 776 c 1
 147 789 l 1
 155 873 217 922 297 922 c 0
 378 922 442 873 450 789 c 1
 389 776 l 1
 375 826 344 852 297 852 c 0
467 0 m 1
 302 292 l 1
 195 292 l 1
 195 0 l 1
 100 0 l 1
 100 689 l 1
 281 689 l 2
 453 689 543 623 543 494 c 0
 543 397 493 339 394 309 c 1
 580 0 l 1
 467 0 l 1
195 365 m 1
 291 365 l 2
 387 365 442 401 442 494 c 0
 442 580 393 615 280 615 c 2
 195 615 l 1
 195 365 l 1
EndSplineSet
EndChar
StartChar: uni0216
Encoding: 534 534 469
Width: 662
Flags: W
HStem: -12 80<281 379.5 281 407.5> 669 20G<90 185 185 185 476 572 572 572> 852 70<305.5 352.5>
VStem: 90 95<221 228 228 689> 476 96<228 689>
LayerCount: 2
Fore
SplineSet
329 922 m 0
 410 922 474 873 482 789 c 1
 421 776 l 1
 407 826 376 852 329 852 c 0
 282 852 254 826 240 776 c 1
 179 789 l 1
 187 873 249 922 329 922 c 0
572 689 m 1
 572 221 l 2
 572 84 485 -12 330 -12 c 0
 173 -12 90 84 90 221 c 2
 90 689 l 1
 185 689 l 1
 185 228 l 2
 185 121 232 68 330 68 c 0
 429 68 476 121 476 228 c 2
 476 689 l 1
 572 689 l 1
EndSplineSet
EndChar
StartChar: uni021D
Encoding: 541 541 476
Width: 474
Flags: W
HStem: 229 72<132 191 191 220.5 132 226 126 191> 467 72<165.5 223.5>
VStem: 300 95<360 417.5> 324 99<113.5 183.5>
LayerCount: 2
Fore
SplineSet
204 539 m 0xe0
 303 539 395 490 395 392 c 0xe0
 395 328 363 292 289 272 c 1
 374 270 423 226 423 158 c 0
 423 41 291 -52 66 -102 c 1
 53 -35 l 1
 235 19 324 72 324 155 c 0
 324 212 287 229 226 229 c 2xd0
 126 229 l 1
 132 301 l 1
 191 301 l 2
 250 301 300 323 300 387 c 0
 300 448 252 467 195 467 c 0
 136 467 98 450 59 425 c 1
 15 479 l 1
 67 518 127 539 204 539 c 0xe0
EndSplineSet
EndChar
StartChar: uni0221
Encoding: 545 545 480
Width: 733
Flags: W
HStem: -12 73<238 291> -12 78<576.5 613.5 576.5 632.5> -4 21G<520 520> 157 67<620 648> 466 73<244.5 295 199.5 310> 719 20G<498 498> 730 20G<406 406>
VStem: 57 99<193.5 331.5 193.5 341.5> 406 92<140 150 150 397 397 397 474 739> 672 81<103 132.5>
LayerCount: 2
Fore
SplineSet
644 224 m 0x9bc0
 709 224 753 183 753 121 c 0
 753 38 683 -12 582 -12 c 0x9bc0
 562 -12 541 -10 520 -4 c 1
 488 -75 l 1
 429 -50 l 1
 463 23 l 1x3bc0
 443 38 426 59 416 86 c 1
 383 25 326 -12 256 -12 c 0
 128 -12 57 97 57 261 c 0
 57 422 135 539 264 539 c 0
 326 539 371 511 406 474 c 1
 406 750 l 1x9bc0
 498 739 l 1x9dc0
 498 140 l 2
 498 125 499 113 502 103 c 1
 503 106 l 1
 535 182 574 224 644 224 c 0x9bc0
276 61 m 0
 335 61 371 90 406 140 c 1
 406 150 l 1
 406 397 l 1
 373 439 336 466 284 466 c 0
 205 466 156 400 156 263 c 0
 156 124 200 61 276 61 c 0
582 66 m 0x5bc0
 645 66 672 85 672 121 c 0
 672 144 660 157 636 157 c 0
 604 157 585 137 553 67 c 1
 561 66 571 66 582 66 c 0x5bc0
EndSplineSet
EndChar
StartChar: uni0238
Encoding: 568 568 503
Width: 860
Flags: W
HStem: -12 73<233 274 576.5 621> 0 61 466 73<236.5 278.5 192.5 292.5 587 627> 719 20G<386 386> 730 20G<478 478>
VStem: 57 99<193.5 331.5 193.5 341.5> 386 92<147 388 147 389 147 389 463 739 739 739> 392.5 79.5 704 99<192 339>
LayerCount: 2
Fore
SplineSet
619 539 m 0xae80
 728 539 803 440 803 264 c 0
 803 99 724 -12 606 -12 c 0
 547 -12 505 24 477 71 c 1xad80
 467 0 l 1
 397 0 l 1x6d80
 388 73 l 1xad80
 354 20 302 -12 246 -12 c 0
 128 -12 57 97 57 261 c 0
 57 422 133 539 252 539 c 0
 305 539 351 511 386 463 c 1
 386 739 l 1xb680
 478 750 l 1
 478 461 l 1
 513 510 555 539 619 539 c 0xae80
266 61 m 0
 315 61 351 90 386 139 c 1
 386 389 l 1
 353 439 315 466 270 466 c 0
 203 466 156 400 156 263 c 0
 156 124 200 61 266 61 c 0
591 61 m 0
 651 61 704 120 704 264 c 0
 704 414 659 466 595 466 c 0
 537 466 504 426 478 388 c 1
 478 147 l 1
 509 95 533 61 591 61 c 0
EndSplineSet
EndChar
StartChar: uni023B
Encoding: 571 571 506
Width: 560
Flags: W
HStem: -12 80<336 378.5 336 389.5> -3 21G<267 267> 623 78<295 353 263 353.5> 676 20G<404 404> 681 20G<263 353> 719 20G<464 464> 730 20G<419 419>
VStem: 55 101<280 449 280 461.5>
LayerCount: 2
Fore
SplineSet
493 125 m 1xa3
 540 65 l 1
 502 26 436 -12 343 -12 c 0xa3
 316 -12 291 -9 267 -3 c 1
 249 -70 l 1
 204 -59 l 1
 223 13 l 1
 121 60 55 173 55 345 c 0
 55 578 185 701 341 701 c 0x63
 365 701 386 699 404 696 c 1
 419 750 l 1x93
 464 739 l 1
 449 683 l 1
 479 672 505 655 532 633 c 1x8d
 480 572 l 1
 463 586 446 597 428 605 c 1
 288 77 l 1
 306 71 326 68 346 68 c 0
 411 68 454 96 493 125 c 1xa3
347 623 m 0
 243 623 156 553 156 345 c 0
 156 215 191 137 246 98 c 1
 384 620 l 1
 372 622 360 623 347 623 c 0
EndSplineSet
EndChar
StartChar: uni0240
Encoding: 576 576 511
Width: 405
Flags: W
HStem: -213 75<318.5 378.5 318.5 381> 0 21G<25 25> 449 78<48 299 48 404>
VStem: 25 430<-183 69 -183 69>
LayerCount: 2
Fore
SplineSet
358 -213 m 0
 203 -213 225 -22 25 0 c 1
 25 69 l 1
 299 449 l 1
 48 449 l 1
 48 527 l 1
 404 527 l 1
 404 457 l 1
 114 57 l 1
 268 16 271 -138 366 -138 c 0
 391 -138 407 -132 424 -123 c 1
 455 -183 l 1
 434 -199 404 -213 358 -213 c 0
EndSplineSet
EndChar
StartChar: uni0243
Encoding: 579 579 514
Width: 620
Flags: W
HStem: 0 76<207 302 207 302> 168 70<20 112 20 112 207 364> 324 73<207 311 311 320 207 311> 614 75<207 275 275 285 207 207>
VStem: 112 95<76 168 76 168 76 168 238 324 397 614> 448 97<472.5 550.5> 475 100<146 244.5>
LayerCount: 2
Fore
SplineSet
416 364 m 1xfa
 496 350 575 313 575 196 c 0xfa
 575 50 462 0 302 0 c 2
 112 0 l 1
 112 168 l 1
 20 168 l 1
 20 238 l 1
 112 238 l 1
 112 689 l 1
 275 689 l 2
 445 689 545 635 545 515 c 0xfc
 545 430 483 378 416 364 c 1xfa
285 614 m 2
 207 614 l 1
 207 397 l 1
 311 397 l 2
 388 397 448 435 448 508 c 0xfc
 448 593 387 614 285 614 c 2
302 76 m 2xfa
 402 76 475 96 475 196 c 0
 475 293 403 324 320 324 c 2
 207 324 l 1
 207 238 l 1
 364 238 l 1
 364 168 l 1
 207 168 l 1
 207 76 l 1
 302 76 l 2xfa
EndSplineSet
EndChar
StartChar: uni024E
Encoding: 590 590 525
Width: 550
Flags: W
HStem: 0 21G<227 323 227 227> 535 69<10 49 10 85 10 49 186 186 186 370 500 545> 535 154<10 85 10 10 5 186 5 370 464 545 464 464>
VStem: 227 96<0 264 264 264>
LayerCount: 2
Fore
SplineSet
500 604 m 1xd0
 545 604 l 1xd0
 545 535 l 1
 464 535 l 1
 323 265 l 1
 323 0 l 1
 227 0 l 1
 227 264 l 1
 85 535 l 1
 10 535 l 1xb0
 10 604 l 1
 49 604 l 1xd0
 5 689 l 1
 110 689 l 1xb0
 152 604 l 1
 404 604 l 1xd0
 446 689 l 1
 545 689 l 1xb0
 500 604 l 1xd0
278 348 m 1
 370 535 l 1
 186 535 l 1xb0
 278 348 l 1
EndSplineSet
EndChar
StartChar: uni0305
Encoding: 773 773 532
Width: 0
Flags: W
TopAccentHorizontal: -270
HStem: 667 69<-510 -30>
LayerCount: 2
Fore
SplineSet
-30 667 m 1
 -510 667 l 1
 -510 736 l 1
 -30 736 l 1
 -30 667 l 1
EndSplineSet
EndChar
StartChar: uni0306
Encoding: 774 774 533
Width: 0
Flags: W
TopAccentHorizontal: -182
HStem: 643 70<-206.5 -159.5 -206.5 -142.5>
VStem: -333 303<776 776>
LayerCount: 2
Fore
SplineSet
-183 643 m 0
 -263 643 -325 692 -333 776 c 1
 -272 789 l 1
 -258 739 -230 713 -183 713 c 0
 -136 713 -105 739 -91 789 c 1
 -30 776 l 1
 -38 692 -102 643 -183 643 c 0
EndSplineSet
EndChar
StartChar: uni0309
Encoding: 777 777 536
Width: 0
Flags: W
TopAccentHorizontal: -131
HStem: 611 94<-180 -180 -180 -111> 784 62<-158.5 -140>
VStem: -180 69<611 669 611 705 611 705> -109 79<732.5 760.5>
LayerCount: 2
Fore
SplineSet
-180 611 m 1
 -180 705 l 1xe0
 -135 711 -109 717 -109 748 c 0
 -109 773 -127 784 -153 784 c 0
 -175 784 -192 779 -210 771 c 1
 -232 822 l 1
 -208 836 -179 846 -138 846 c 0
 -69 846 -30 811 -30 755 c 0xd0
 -30 705 -61 677 -111 669 c 1
 -111 611 l 1
 -180 611 l 1
EndSplineSet
EndChar
StartChar: uni0319
Encoding: 793 793 548
Width: 0
Flags: W
TopAccentHorizontal: -133
HStem: -237 57<-171 -31 -171 -31>
VStem: -235 64<-353 -237 -180 -63>
LayerCount: 2
Fore
SplineSet
-171 -63 m 1
 -171 -180 l 1
 -31 -180 l 1
 -31 -237 l 1
 -171 -237 l 1
 -171 -353 l 1
 -235 -353 l 1
 -235 -63 l 1
 -171 -63 l 1
EndSplineSet
EndChar
StartChar: uni031A
Encoding: 794 794 549
Width: 0
Flags: W
TopAccentHorizontal: -93
HStem: 720 59<-213 -93 -213 -30>
VStem: -93 63<594 720 720 720>
LayerCount: 2
Fore
SplineSet
-213 779 m 1
 -30 779 l 1
 -30 594 l 1
 -93 594 l 1
 -93 720 l 1
 -213 720 l 1
 -213 779 l 1
EndSplineSet
EndChar
StartChar: uni031B
Encoding: 795 795 550
Width: 0
Flags: W
TopAccentHorizontal: -97
HStem: 417 55<-164 -154>
VStem: -107 77<505.5 537>
LayerCount: 2
Fore
SplineSet
-154 417 m 1
 -164 472 l 1
 -125 476 -107 491 -107 520 c 0
 -107 554 -113 572 -121 592 c 1
 -49 607 l 1
 -38 588 -30 561 -30 525 c 0
 -30 456 -74 420 -154 417 c 1
EndSplineSet
EndChar
StartChar: uni031E
Encoding: 798 798 553
Width: 0
Flags: W
HStem: -150 59<-330 -212 -330 -30 -149 -30 -149 -149>
VStem: -212 63<-310 -150 -310 -150>
LayerCount: 2
Fore
SplineSet
-30 -150 m 1
 -149 -150 l 1
 -149 -310 l 1
 -212 -310 l 1
 -212 -150 l 1
 -330 -150 l 1
 -330 -91 l 1
 -30 -91 l 1
 -30 -150 l 1
EndSplineSet
EndChar
StartChar: uni0320
Encoding: 800 800 555
Width: 0
Flags: W
HStem: -236 65<-283 -31 -283 -31>
VStem: -283 252<-236 -171 -236 -171>
LayerCount: 2
Fore
SplineSet
-283 -236 m 1
 -283 -171 l 1
 -31 -171 l 1
 -31 -236 l 1
 -283 -236 l 1
EndSplineSet
EndChar
StartChar: uni0323
Encoding: 803 803 557
Width: 0
Flags: W
TopAccentHorizontal: -94
HStem: -199 125<-113.5 -75>
VStem: -159 129<-154 -118.5>
LayerCount: 2
Fore
SplineSet
-94 -199 m 0
 -133 -199 -159 -172 -159 -136 c 0
 -159 -101 -133 -74 -94 -74 c 0
 -56 -74 -30 -101 -30 -136 c 0
 -30 -172 -56 -199 -94 -199 c 0
EndSplineSet
EndChar
StartChar: uni0324
Encoding: 804 804 558
Width: 0
Flags: W
TopAccentHorizontal: -192
HStem: -192 114<-313.5 -281 -104 -71.5>
VStem: -355 115<-151 -119> -145 115<-151 -119>
LayerCount: 2
Fore
SplineSet
-297 -78 m 4
 -265 -78 -240 -103 -240 -135 c 4
 -240 -167 -265 -192 -297 -192 c 4
 -330 -192 -355 -167 -355 -135 c 4
 -355 -103 -330 -78 -297 -78 c 4
-88 -78 m 4
 -55 -78 -30 -103 -30 -135 c 4
 -30 -167 -55 -192 -88 -192 c 4
 -120 -192 -145 -167 -145 -135 c 4
 -145 -103 -120 -78 -88 -78 c 4
EndSplineSet
EndChar
StartChar: uni0334
Encoding: 820 820 572
Width: 0
Flags: W
HStem: 250 73<-177.5 -140 -177.5 -127.5> 312 72<-336.5 -299>
VStem: -448 418<287 341>
LayerCount: 2
Fore
SplineSet
-164 250 m 0xa0
 -241 250 -278 312 -320 312 c 0
 -353 312 -376 284 -392 258 c 1
 -448 287 l 1
 -427 328 -386 384 -311 384 c 0x60
 -237 384 -200 323 -155 323 c 0
 -125 323 -101 345 -85 371 c 1
 -30 341 l 1
 -51 300 -91 250 -164 250 c 0xa0
EndSplineSet
EndChar
StartChar: uni0337
Encoding: 823 823 575
Width: 0
Flags: HW
LayerCount: 2
Fore
SplineSet
-361 62 m 1
 -412 91 l 1
 -110 597 l 1
 -60 570 l 1
 -361 62 l 1
EndSplineSet
EndChar
StartChar: uni0338
Encoding: 824 824 576
Width: 0
Flags: HW
TopAccentHorizontal: -312
LayerCount: 2
Fore
SplineSet
-437 62 m 1
 -488 91 l 1
 -186 597 l 1
 -136 570 l 1
 -437 62 l 1
EndSplineSet
EndChar
StartChar: uni0339
Encoding: 825 825 575
Width: 0
Flags: W
HStem: -225 112<-143 -126.5>
VStem: -143 114<-275 -139.5 -275 -139.5 -198.5 -113 -198.5 -63>
LayerCount: 2
Fore
SplineSet
-143 -275 m 1
 -76 -275 -29 -228 -29 -169 c 0
 -29 -110 -76 -63 -143 -63 c 1
 -143 -113 l 1
 -110 -113 -90 -134 -90 -169 c 0
 -90 -204 -110 -225 -143 -225 c 1
 -143 -275 l 1
EndSplineSet
EndChar
StartChar: uni033D
Encoding: 829 829 581
Width: 0
Flags: W
HStem: 600 238<-308 -233 -318 -222 -117 -44 -308 -30 -117 -117>
VStem: -318 288<600 600>
LayerCount: 2
Fore
SplineSet
-127 728 m 1
 -30 600 l 1
 -117 600 l 1
 -176 691 l 1
 -233 600 l 1
 -318 600 l 1
 -221 726 l 1
 -308 838 l 1
 -222 838 l 1
 -173 761 l 1
 -127 838 l 1
 -44 838 l 1
 -127 728 l 1
EndSplineSet
EndChar
StartChar: uni0342
Encoding: 834 834 580
Width: 0
Flags: W
HStem: 656 70<-157.5 -129 -157.5 -116.5> 704 70<-266.5 -237> 722 20G<-30 -30>
VStem: -364 334<686 742>
LayerCount: 2
Fore
SplineSet
-139 656 m 0x90
 -192 656 -219 704 -255 704 c 0
 -278 704 -292 688 -308 658 c 1
 -364 686 l 1
 -341 735 -305 774 -255 774 c 0x50
 -199 774 -176 726 -139 726 c 0
 -119 726 -104 740 -86 770 c 1x90
 -30 742 l 1x30
 -56 685 -94 656 -139 656 c 0x90
EndSplineSet
EndChar
StartChar: uni03C1
Encoding: 961 961 626
Width: 584
Flags: W
TopAccentHorizontal: 300
HStem: -213 21G<85 85> -202 21G<177 177> -12 75<287 335 269 383> 467 72<255 341.5>
VStem: 85 92<-202 54 -202 133 133 256> 423 99<198.5 334.5>
LayerCount: 2
Fore
SplineSet
300 539 m 0x7c
 446 539 522 440 522 264 c 0
 522 115 451 -12 315 -12 c 0
 259 -12 211 6 177 54 c 1
 177 -202 l 1x7c
 85 -213 l 1xbc
 85 271 l 2
 85 448 159 539 300 539 c 0x7c
293 63 m 0
 377 63 423 133 423 264 c 0
 423 405 381 467 302 467 c 0
 208 467 177 392 177 256 c 2
 177 133 l 1
 203 86 245 63 293 63 c 0
EndSplineSet
EndChar
StartChar: uni03D0
Encoding: 976 976 635
Width: 568
Flags: W
TopAccentHorizontal: 289
HStem: -12 74<236.5 329.5 236.5 363.5> 383 54<339.5 345.5> 680 70<289 344.5>
VStem: 60 99<338 338 338 479> 386 94<585 642> 417 101<173.5 269>
LayerCount: 2
Fore
SplineSet
346 437 m 0xf4
 483 437 518 332 518 224 c 0xf4
 518 104 438 -12 289 -12 c 0
 120 -12 60 121 60 345 c 0
 60 613 192 750 330 750 c 0
 448 750 480 682 480 628 c 0xf8
 480 542 419 466 298 429 c 1
 320 435 333 437 346 437 c 0xf4
327 680 m 0xf8
 251 680 177 613 162 414 c 1
 199 430 l 2
 322 483 386 532 386 621 c 0
 386 663 362 680 327 680 c 0xf8
288 62 m 0xf4
 371 62 417 127 417 220 c 0
 417 318 396 383 295 383 c 0
 265 383 232 373 196 356 c 2
 159 338 l 1
 157 165 185 62 288 62 c 0xf4
EndSplineSet
EndChar
StartChar: uni03F1
Encoding: 1009 1009 642
Width: 584
Flags: W
TopAccentHorizontal: 304
HStem: -216 21G<377 377> 22 74<287 335 269 383> 467 72<255 341.5>
VStem: 85 92<13 91 170 256> 423 99<229.5 347>
LayerCount: 2
Fore
SplineSet
315 -100 m 0
 409 -114 447 -140 462 -184 c 1
 377 -216 l 1
 363 -188 349 -182 256 -167 c 0
 141 -149 85 -106 85 13 c 2
 85 271 l 2
 85 448 159 539 300 539 c 0
 446 539 522 440 522 289 c 0
 522 152 451 22 315 22 c 0
 259 22 211 43 177 91 c 1
 177 13 l 2
 177 -67 203 -83 315 -100 c 0
302 467 m 0
 208 467 177 392 177 256 c 2
 177 170 l 1
 203 122 245 96 293 96 c 0
 377 96 423 170 423 289 c 0
 423 405 381 467 302 467 c 0
EndSplineSet
EndChar
StartChar: uni03F5
Encoding: 1013 1013 643
Width: 482
Flags: W
TopAccentHorizontal: 269
HStem: -12 75<252.5 313 252.5 320> 235 70<154 372 154 372> 466 73<254.5 313>
VStem: 57 97<235 235 235 305 235 345.5>
LayerCount: 2
Fore
SplineSet
294 63 m 0
 332 63 366 74 409 105 c 1
 452 46 l 1
 403 6 348 -12 292 -12 c 0
 145 -12 57 89 57 261 c 0
 57 430 147 539 289 539 c 0
 349 539 403 523 452 482 c 1
 409 426 l 1
 365 457 332 466 294 466 c 0
 215 466 160 412 154 305 c 1
 372 305 l 1
 372 235 l 1
 154 235 l 1
 160 115 211 63 294 63 c 0
EndSplineSet
EndChar
StartChar: uni200D
Encoding: 8205 8205 649
Width: 0
Flags: W
HStem: 673 20G<-68 -68 68 68> 730 20G<-11 -11 11 11>
VStem: -8 16<-150 731 -150 731>
LayerCount: 2
Fore
SplineSet
54 815 m 1
 65 804 l 1
 11 750 l 1
 68 693 l 1
 57 682 l 1
 8 731 l 1
 8 -150 l 1
 -8 -150 l 1
 -8 731 l 1
 -57 682 l 1
 -68 693 l 1
 -11 750 l 1
 -65 804 l 1
 -54 815 l 1
 0 761 l 1
 54 815 l 1
EndSplineSet
EndChar
StartChar: uni200E
Encoding: 8206 8206 652
Width: 0
Flags: W
HStem: 730 20G<128 128> 742 16<8 103 8 8>
VStem: -8 16<-150 742 -150 758>
LayerCount: 2
Fore
SplineSet
73 822 m 1x60
 128 750 l 1
 73 678 l 1
 60 687 l 1xa0
 103 742 l 1
 8 742 l 1
 8 -150 l 1
 -8 -150 l 1
 -8 758 l 1
 103 758 l 1
 60 813 l 1
 73 822 l 1x60
EndSplineSet
EndChar
StartChar: uni2010
Encoding: 8208 8208 652
Width: 327
Flags: W
HStem: 274 78<60 343 60 343>
VStem: 60 283<274 352 274 352>
LayerCount: 2
Fore
SplineSet
60 274 m 1
 60 352 l 1
 343 352 l 1
 343 274 l 1
 60 274 l 1
EndSplineSet
EndChar
StartChar: uni2012
Encoding: 8210 8210 656
Width: 560
Flags: W
HStem: 294 78<25 535 25 535>
VStem: 25 510<294 372 294 372>
LayerCount: 2
Fore
SplineSet
25 294 m 1
 25 372 l 1
 535 372 l 1
 535 294 l 1
 25 294 l 1
EndSplineSet
EndChar
StartChar: uni2016
Encoding: 8214 8214 660
Width: 577
Flags: W
IsExtendedShape: 1
GlyphVariantsVertical: uni2016 uni2016.size1 uni2016.size2 uni2016.size3 uni2016.size4 uni2016.size5 uni2016.size6 uni2016.size7 uni2016.size8 uni2016.size9 uni2016.size10 uni2016.size11 uni2016.size12 uni2016.size13 uni2016.size14 uni2016.size15
GlyphCompositionVertical: 2  uni2016.ext%0,0,150,600 uni2016.ext%1,150,150,600
VStem: 160 83<-186 746> 334 83<-186 746>
LayerCount: 2
Fore
SplineSet
243 746 m 1
 243 -186 l 5
 160 -186 l 5
 160 746 l 1
 243 746 l 1
417 746 m 1
 417 -186 l 5
 334 -186 l 5
 334 746 l 1
 417 746 l 1
EndSplineSet
EndChar
StartChar: uni201A
Encoding: 8218 8218 663
Width: 228
Flags: W
HStem: -6 21G<80 80>
VStem: 54 130<36 61.5 36 61.5>
LayerCount: 2
Fore
SplineSet
119 107 m 0
 155 107 184 79 184 44 c 0
 184 28 180 14 167 -14 c 2
 100 -156 l 1
 40 -156 l 1
 80 -6 l 1
 63 7 54 24 54 44 c 0
 54 79 84 107 119 107 c 0
EndSplineSet
EndChar
StartChar: uni2022
Encoding: 8226 8226 669
Width: 324
Flags: W
HStem: 167 225<94.0674 229.933>
VStem: 50 224<213.232 345.768>
LayerCount: 2
Fore
SplineSet
162 392 m 0
 226 392 274 343 274 279 c 0
 274 215 226 167 162 167 c 0
 98 167 50 216 50 280 c 0
 50 344 98 392 162 392 c 0
EndSplineSet
EndChar
StartChar: uni2032
Encoding: 8242 8242 672
Width: 304
Flags: W
HStem: 669 20G<145 244 244 244>
VStem: 60 184
LayerCount: 2
Fore
SplineSet
60 427 m 1
 145 689 l 1
 244 689 l 1
 129 427 l 1
 60 427 l 1
EndSplineSet
Substitution2: "'ssty' subtable" uni2032.ssty1
EndChar
StartChar: uni20D2
Encoding: 8402 8402 1534
Width: 0
Flags: W
TopAccentHorizontal: -200
HStem: 730 20G<-242 -159>
VStem: -242 83<-182 750>
LayerCount: 2
Fore
SplineSet
-159 750 m 1
 -159 -182 l 1
 -242 -182 l 1
 -242 750 l 1
 -159 750 l 1
EndSplineSet
EndChar
StartChar: uni20D3
Encoding: 8403 8403 1535
Width: 0
Flags: W
TopAccentHorizontal: -200
VStem: -242 83<-182 450>
LayerCount: 2
Fore
SplineSet
-159 450 m 1
 -159 -182 l 1
 -242 -182 l 1
 -242 450 l 1
 -159 450 l 1
EndSplineSet
EndChar
StartChar: uni20D6
Encoding: 8406 8406 682
Width: 0
Flags: W
TopAccentHorizontal: -210
LayerCount: 2
Fore
SplineSet
-277 823 m 5
 -390 702 l 5
 -277 583 l 5
 -240 617 l 5
 -290 673 l 5
 -30 673 l 5
 -30 733 l 5
 -290 733 l 5
 -240 789 l 5
 -277 823 l 5
EndSplineSet
EndChar
StartChar: uni20D7
Encoding: 8407 8407 681
Width: 0
Flags: W
TopAccentHorizontal: -210
HStem: 673 60<-390 -130>
LayerCount: 2
Fore
SplineSet
-143 823 m 1
 -30 702 l 1
 -143 583 l 1
 -180 617 l 1
 -130 673 l 1
 -390 673 l 1
 -390 733 l 1
 -130 733 l 1
 -180 789 l 1
 -143 823 l 1
EndSplineSet
EndChar
StartChar: uni20DC
Encoding: 8412 8412 685
Width: 0
Flags: W
TopAccentHorizontal: -372
HStem: 654 114<-703.312 -612.381 -512.928 -421.997 -322.928 -231.997 -133.003 -42.0719>
VStem: -715 115<666.848 755.152> -525 115<665.997 756.003> -335 115<665.997 756.003> -145 115<665.997 756.003>
LayerCount: 2
Fore
SplineSet
-658 768 m 0
 -626 768 -600 743 -600 711 c 0
 -600 679 -626 654 -658 654 c 0
 -691 654 -715 679 -715 711 c 0
 -715 743 -691 768 -658 768 c 0
-467 768 m 0
 -435 768 -410 743 -410 711 c 0
 -410 679 -435 654 -467 654 c 0
 -500 654 -525 679 -525 711 c 0
 -525 743 -500 768 -467 768 c 0
-277 768 m 0
 -245 768 -220 743 -220 711 c 0
 -220 679 -245 654 -277 654 c 0
 -310 654 -335 679 -335 711 c 0
 -335 743 -310 768 -277 768 c 0
-88 768 m 0
 -55 768 -30 743 -30 711 c 0
 -30 679 -55 654 -88 654 c 0
 -120 654 -145 679 -145 711 c 0
 -145 743 -120 768 -88 768 c 0
EndSplineSet
EndChar
StartChar: uni20E1
Encoding: 8417 8417 1517
Width: 0
Flags: W
TopAccentHorizontal: -250
HStem: 673 60<-370 -130>
LayerCount: 2
Fore
SplineSet
-370 673 m 1
 -320 617 l 1
 -357 583 l 1
 -470 702 l 1
 -357 823 l 1
 -320 789 l 1
 -370 733 l 1
 -130 733 l 1
 -180 789 l 1
 -143 823 l 1
 -30 702 l 1
 -143 583 l 1
 -180 617 l 1
 -130 673 l 1
 -370 673 l 1
EndSplineSet
EndChar
StartChar: uni20E7
Encoding: 8423 8423 1484
Width: 0
Flags: W
TopAccentHorizontal: -430
HStem: 632 60<-800 -93>
VStem: -93 63<-182 632>
LayerCount: 2
Fore
SplineSet
-30 692 m 1
 -30 -182 l 1
 -93 -182 l 1
 -93 632 l 25
 -800 632 l 1
 -800 692 l 1
 -30 692 l 1
EndSplineSet
EndChar
StartChar: uni20E9
Encoding: 8425 8425 1542
Width: 0
Flags: W
TopAccentHorizontal: -195
HStem: 634 149<-360 -300 -90 -30> 723 60<-300 -90>
VStem: -360 60<634 723> -90 60<634 723>
LayerCount: 2
Fore
SplineSet
-360 634 m 1xb0
 -360 783 l 1
 -30 783 l 1
 -30 634 l 1
 -90 634 l 1xb0
 -90 723 l 1
 -300 723 l 1x70
 -300 634 l 1
 -360 634 l 1xb0
EndSplineSet
EndChar
StartChar: uni20EC
Encoding: 8428 8428 1524
Width: 0
Flags: W
TopAccentHorizontal: -216
HStem: -164 60<-401 -141>
LayerCount: 2
Fore
SplineSet
-30 -121 m 1
 -154 -254 l 1
 -191 -220 l 1
 -141 -164 l 1
 -401 -164 l 1
 -401 -104 l 1
 -44 -104 l 1
 -30 -121 l 1
EndSplineSet
EndChar
StartChar: uni20ED
Encoding: 8429 8429 1515
Width: 0
Flags: W
TopAccentHorizontal: -216
HStem: -164 60<-290 -30>
LayerCount: 2
Fore
SplineSet
-401 -121 m 5
 -387 -104 l 5
 -30 -104 l 5
 -30 -164 l 5
 -290 -164 l 5
 -240 -220 l 5
 -277 -254 l 5
 -401 -121 l 5
EndSplineSet
EndChar
StartChar: uni20EE
Encoding: 8430 8430 1514
Width: 0
Flags: W
TopAccentHorizontal: -210
HStem: -164 60<-290 -30>
LayerCount: 2
Fore
SplineSet
-277 -14 m 1
 -240 -48 l 1
 -290 -104 l 1
 -30 -104 l 1
 -30 -164 l 1
 -290 -164 l 1
 -240 -220 l 1
 -277 -254 l 1
 -390 -135 l 1
 -277 -14 l 1
EndSplineSet
EndChar
StartChar: uni20EF
Encoding: 8431 8431 695
Width: 0
Flags: W
TopAccentHorizontal: -210
HStem: -164 60<-390 -130>
LayerCount: 2
Fore
SplineSet
-143 -14 m 1
 -30 -135 l 1
 -143 -254 l 1
 -180 -220 l 1
 -130 -164 l 1
 -390 -164 l 1
 -390 -104 l 1
 -130 -104 l 1
 -180 -48 l 1
 -143 -14 l 1
EndSplineSet
EndChar
StartChar: uni20F0
Encoding: 8432 8432 1500
Width: 0
Flags: HW
TopAccentHorizontal: -180
LayerCount: 2
Fore
SplineSet
-30 717 m 1
 -145 692 l 1
 -67 605 l 1
 -121 566 l 1
 -180 666 l 1
 -238 566 l 1
 -292 604 l 1
 -215 692 l 1
 -329 717 l 1
 -309 778 l 1
 -202 733 l 1
 -214 850 l 1
 -146 850 l 1
 -157 732 l 1
 -51 779 l 1
 -30 717 l 1
EndSplineSet
EndChar
StartChar: uni2102
Encoding: 8450 8450 1591
Width: 560
Flags: W
HStem: 0 53<243.48 433.276> 656 51<243.918 431.864>
VStem: 57 63<206.553 507.456> 181 54<127.429 582.528>
LayerCount: 2
Fore
SplineSet
334 707 m 4
 415 707 461 684 510 644 c 5
 478 604 l 5
 432 640 394 656 338 656 c 4
 300.929793711 656 265.800411085 647.848540617 235 630.034135853 c 5
 235 81 l 5
 231.827039919 81 l 5
 262.339092529 62.108556605 297.445277904 53 335 53 c 4
 406 53 447 78 487 110 c 5
 518 71 l 5
 477 32 418 0 333 0 c 4
 175 0 57 123 57 354 c 4
 57 588 182 707 334 707 c 4
181 582.527833158 m 5
 143.349621344 534.138340663 120 459.871439322 120 354 c 4
 120 251.348723231 143.137990919 176.706593364 181 127.429218961 c 5
 181 582.527833158 l 5
EndSplineSet
EndChar
StartChar: uni210D
Encoding: 8461 8461 1590
Width: 766
Flags: W
HStem: 0 53<569 620> 0 46<146 197> 333 58<257 509> 643 46<146 197 569 620>
VStem: 86 60<46 643> 197 60<46 333 391 643> 509 60<53 333 391 643> 620 60<53 643>
LayerCount: 2
Fore
SplineSet
569 643 m 5xbf
 569 53 l 5
 620 53 l 5
 620 643 l 5
 569 643 l 5xbf
146 643 m 5
 146 46 l 5
 197 46 l 5x7f
 197 643 l 5
 146 643 l 5
509 0 m 5
 510 333 l 5
 257 333 l 5
 257 0 l 5
 86 0 l 5
 86 689 l 5
 257 689 l 5
 257 391 l 5
 509 391 l 5
 509 689 l 5
 680 689 l 5
 680 0 l 5
 509 0 l 5
EndSplineSet
EndChar
StartChar: uni210E
Encoding: 8462 8462 700
Width: 581
Flags: W
ItalicCorrection: 20
TopAccentHorizontal: 207
HStem: 0 21G<57 148 57 57 363 454 363 363> 462 77<344.5 381> 728 20G<253 253>
VStem: 417.14 92.23
LayerCount: 2
Fore
SplineSet
381 539 m 0
 473 539 521 475 507 373 c 2
 454 0 l 1
 363 0 l 1
 415 368 l 2
 425 442 400 462 362 462 c 0
 292 462 233 391 191 316 c 1
 148 0 l 1
 57 0 l 1
 161 738 l 1
 253 748 l 1
 207 428 l 1
 251 494 308 539 381 539 c 0
EndSplineSet
Validated: 33
EndChar
StartChar: uni210F
Encoding: 8463 8463 686
Width: 581
Flags: W
ItalicCorrection: 20
TopAccentHorizontal: 207
HStem: 0 21G<57 150.722 363 456.842> 462 77<299.766 406.548>
LayerCount: 2
Fore
SplineSet
381 539 m 0
 473 539 521 475 507 373 c 2
 454 0 l 1
 363 0 l 1
 415 368 l 2
 425 442 400 462 362 462 c 0
 292 462 233 391 191 316 c 1
 148 0 l 1
 57 0 l 1
 126.727187747 494.794851514 l 1
 73 464 l 1
 43 524 l 1
 138.561515783 578.773063925 l 1
 161 738 l 1
 253 748 l 1
 236.764930642 635.060387075 l 1
 371 712 l 1
 401 652 l 1
 224.671733533 550.933798488 l 1
 207 428 l 1
 251 494 308 539 381 539 c 0
EndSplineSet
Substitution2: "'ss02' subtable" uni210F.ss02
EndChar
StartChar: uni2115
Encoding: 8469 8469 1556
Width: 673
Flags: W
HStem: 0 46<464 503> 639 46<166 207>
VStem: 111 57<0 495.249 605 639> 505 57<46 80 177.4 685>
LayerCount: 2
Fore
SplineSet
562 685 m 1
 562 0 l 1
 426 0 l 1
 160 509 l 1
 163 462 168 396 168 273 c 2
 168 0 l 1
 111 0 l 1
 111 685 l 1
 246 685 l 1
 513 176 l 1
 511 205 505 290 505 379 c 2
 505 685 l 1
 562 685 l 1
503 46 m 1
 503 80 l 1
 207 639 l 1
 166 639 l 1
 166 605 l 1
 464 46 l 1
 503 46 l 1
EndSplineSet
EndChar
StartChar: uni2116
Encoding: 8470 8470 688
Width: 1122
Flags: W
HStem: 0 77<684 1060 684 1060> 271 69<840 904.5 840 933.5> 620 69<840.5 905>
VStem: 100 89<0 316 0 689> 494 89<313 689 0 689> 678 95<432 528 432 542.5> 971 95<432 528.5>
LayerCount: 2
Fore
SplineSet
583 689 m 1
 583 0 l 1
 456 0 l 1
 176 585 l 1
 181 528 189 444 189 316 c 2
 189 0 l 1
 100 0 l 1
 100 689 l 1
 224 689 l 1
 507 103 l 1
 505 119 494 229 494 313 c 2
 494 689 l 1
 583 689 l 1
873 689 m 0
 996 689 1066 609 1066 480 c 0
 1066 356 995 271 872 271 c 0
 749 271 678 351 678 480 c 0
 678 605 750 689 873 689 c 0
873 620 m 0
 808 620 773 576 773 480 c 0
 773 384 808 340 872 340 c 0
 937 340 971 384 971 480 c 0
 971 577 937 620 873 620 c 0
684 0 m 1
 684 77 l 1
 1060 77 l 1
 1060 0 l 1
 684 0 l 1
EndSplineSet
EndChar
StartChar: uni2119
Encoding: 8473 8473 1593
Width: 685
Flags: W
HStem: 0 53<171 222> 267 49<282 446.52> 636 49<171 222 282 446.141>
VStem: 111 60<53 636> 222 60<53 267 316 636> 449 60<343.438 609.911> 573 63<386.599 568.433>
LayerCount: 2
Fore
SplineSet
111 685 m 1
 383 685 l 2
 542 685 636 622 636 480 c 0
 636 326 529 267 380 267 c 2
 282 267 l 1
 282 0 l 1
 111 0 l 1
 111 685 l 1
171 636 m 1
 171 53 l 1
 222 53 l 1
 222 636 l 1
 171 636 l 1
449 321.792722609 m 1
 449 630.617388326 l 1
 428.820420341 634.301368132 406.425246287 636 382 636 c 2
 282 636 l 1
 282 316 l 1
 380 316 l 2
 404.808707245 316 427.959864595 317.752267031 449 321.792722609 c 1
509 343.438357025 m 1
 549.248886916 367.582740393 573 409.912578649 573 479 c 0
 573 544.525759731 550.34487304 586.120047322 509 609.911178677 c 1
 509 343.438357025 l 1
EndSplineSet
EndChar
StartChar: uni211A
Encoding: 8474 8474 1594
Width: 690
Flags: W
HStem: -9 49<251.294 442.848> 645 51<250.62 440.506>
VStem: 66 63<189.843 493.502> 190 54<112.816 572.795> 447 54<110.186 574.092> 562 63<186.7 495.716>
LayerCount: 2
Fore
SplineSet
452 24 m 1
 527 23 596 1 649 -42 c 1
 609 -93 l 1
 535 -27 467 -9 345 -9 c 0
 180 -9 66 113 66 341 c 0
 66 567 181 696 345 696 c 0
 512 696 625 573 625 342 c 0
 625 153 553 61 452 24 c 1
447 64.0449293782 m 1
 447 620.623214847 l 1
 417.564468881 637.020465252 383.256119352 645 345 645 c 0
 307.391961633 645 273.353619263 636.840694863 244 620.125630505 c 1
 244 65.301952267 l 1
 273.504004482 48.3233566136 307.604671245 40 345 40 c 0
 383.451408445 40 417.703437775 47.9047136274 447 64.0449293782 c 1
501 110.185735833 m 1
 540.234240213 159.864342699 562 236.509077515 562 342 c 0
 562 447.822705463 539.998617227 524.396513828 501 574.09181114 c 1
 501 110.185735833 l 1
190 112.815601654 m 1
 190 572.794634934 l 1
 151.276874621 522.825958192 129 446.252116783 129 341 c 0
 129 237.94115848 151.493280394 162.430267106 190 112.815601654 c 1
EndSplineSet
EndChar
StartChar: uni211D
Encoding: 8477 8477 1595
Width: 741
Flags: W
HStem: 0 46<171 222 550.805 609.479> 307 49<282 330 396.503 459> 636 49<171 222 282 465.857>
VStem: 111 60<46 636> 222 60<46 307 356 636> 472 54<378.814 614.317> 588 64<415.646 579.253>
LayerCount: 2
Fore
SplineSet
282 356 m 1
 416 356 l 2
 436.298828125 356 455.001953125 357.491210938 472 360.564453125 c 1
 472 631.060546875 l 1
 452.736328125 634.3515625 430.801757812 636 406 636 c 2
 282 636 l 1
 282 356 l 1
282 307 m 1
 282 0 l 1
 111 0 l 1
 111 685 l 1
 408 685 l 2
 573 685 652 620 652 499 c 0
 652 397 599 350 516 323 c 1
 707 0 l 1
 507 0 l 1
 330 307 l 1
 282 307 l 1
171 636 m 1
 171 46 l 1
 222 46 l 1
 222 636 l 1
 171 636 l 1
526 378.814453125 m 1
 566.177734375 401.036132812 588 440.146484375 588 499 c 0
 588 553.876953125 569.453125 592.388671875 526 614.317382812 c 1
 526 378.814453125 l 1
396.502929688 307 m 1
 550.8046875 46 l 1
 609.478515625 46 l 1
 459 307 l 1
 396.502929688 307 l 1
EndSplineSet
EndChar
StartChar: uni2124
Encoding: 8484 8484 1560
Width: 630
Flags: W
HStem: 0 53<104 173 240 590> 633 52<73 402 466 538>
LayerCount: 2
Fore
SplineSet
173 53 m 1
 538 633 l 1
 466 633 l 1
 104 53 l 1
 173 53 l 1
598 53 m 1
 590 0 l 1
 35 0 l 1
 35 50 l 1
 402 633 l 1
 73 633 l 1
 73 685 l 1
 604 685 l 1
 604 636 l 1
 240 53 l 1
 598 53 l 1
EndSplineSet
EndChar
StartChar: uni2136
Encoding: 8502 8502 698
Width: 496
Flags: W
HStem: 0 82<42 320 412 476 30 320> 482 82<35 253 253 254 35 253>
VStem: 320 92<82 385>
LayerCount: 2
Fore
SplineSet
412 82 m 1
 476 82 l 1
 476 0 l 1
 30 0 l 1
 42 82 l 1
 320 82 l 1
 320 385 l 2
 320 450 312 482 254 482 c 2
 35 482 l 1
 35 564 l 1
 253 564 l 2
 382 564 412 503 412 385 c 2
 412 82 l 1
EndSplineSet
EndChar
StartChar: uni2137
Encoding: 8503 8503 699
Width: 362
Flags: W
HStem: -12 21G<20 57.5> 0 21G<223 312 223 223> 482 82<64 137 64 150>
VStem: 197 92<218 226 226 241 241 404 404 414>
LayerCount: 2
Fore
SplineSet
312 0 m 1x70
 223 0 l 1x70
 209 34 203 82 199 131 c 1
 157 52 95 -12 20 -12 c 1xb0
 36 95 l 1
 101 104 161 147 197 218 c 1
 197 226 l 1
 197 404 l 2
 197 457 180 482 137 482 c 2
 64 482 l 1
 64 564 l 1
 150 564 l 2
 236 564 289 512 289 414 c 2
 289 241 l 2
 289 133 298 45 312 0 c 1x70
EndSplineSet
EndChar
StartChar: uni2155
Encoding: 8533 8533 703
Width: 932
Flags: W
HStem: -9 61<699.5 743 699.5 768.5> 214 56<744 748.5> 359 58<688 853 688 688> 669 20G<205 274 274 274> 730 20G<640 640>
VStem: 197 77<272 610 610 610> 613 75<255 359 255 417 255 417> 800 80<108.5 165>
LayerCount: 2
Fore
SplineSet
640 750 m 1
 699 721 l 1
 293 -78 l 1
 233 -49 l 1
 640 750 l 1
274 689 m 1
 274 272 l 1
 197 272 l 1
 197 610 l 1
 99 553 l 1
 65 606 l 1
 205 689 l 1
 274 689 l 1
863 417 m 1
 853 359 l 1
 688 359 l 1
 688 255 l 1
 710 265 733 270 755 270 c 0
 828 270 880 220 880 136 c 0
 880 50 817 -9 720 -9 c 0
 660 -9 618 14 584 49 c 1
 630 92 l 1
 654 66 681 52 718 52 c 0
 768 52 800 81 800 136 c 0
 800 194 769 214 728 214 c 0
 707 214 690 209 670 199 c 1
 613 199 l 1
 613 417 l 1
 863 417 l 1
EndSplineSet
EndChar
StartChar: uni2158
Encoding: 8536 8536 706
Width: 932
Flags: W
HStem: -9 61<699.5 743 699.5 768.5> 214 56<744 748.5> 359 58<688 853 688 688> 368 60<123 228 304 357> 368 165<42 304 236 304 236 357> 676 20G<170 170> 730 20G<640 640>
VStem: 228 76<272 368> 613 75<255 359 255 417 255 417> 800 80<108.5 165>
LayerCount: 2
Fore
SplineSet
640 750 m 1xe7c0
 699 721 l 1
 293 -78 l 1
 233 -49 l 1
 640 750 l 1xe7c0
304 272 m 1xcfc0
 228 272 l 1
 228 368 l 1
 42 368 l 1
 42 422 l 1xcfc0
 170 696 l 1
 236 671 l 1
 123 428 l 1
 229 428 l 1xd7c0
 236 533 l 1
 304 533 l 1xcfc0
 304 428 l 1
 357 428 l 1xd7c0
 357 368 l 1
 304 368 l 1
 304 272 l 1xcfc0
755 270 m 0
 828 270 880 220 880 136 c 0
 880 50 817 -9 720 -9 c 0
 660 -9 618 14 584 49 c 1
 630 92 l 1
 654 66 681 52 718 52 c 0
 768 52 800 81 800 136 c 0
 800 194 769 214 728 214 c 0
 707 214 690 209 670 199 c 1
 613 199 l 1
 613 417 l 1
 863 417 l 1
 853 359 l 1
 688 359 l 1xe7c0
 688 255 l 1
 710 265 733 270 755 270 c 0
EndSplineSet
EndChar
StartChar: uni215B
Encoding: 8539 8539 709
Width: 932
Flags: W
HStem: -9 58<708 757 708 779.5> 370 54<713 754> 669 20G<205 274 274 274> 730 20G<640 640>
VStem: 197 77<272 610 610 610> 574 80<93 132 93 137> 592 76<296 332 296 349> 797 76<300 331> 811 79<93.5 132>
LayerCount: 2
Fore
SplineSet
640 750 m 1xfc80
 699 721 l 1
 293 -78 l 1
 233 -49 l 1
 640 750 l 1xfc80
274 272 m 1
 197 272 l 1
 197 610 l 1
 99 553 l 1
 65 606 l 1
 205 689 l 1
 274 689 l 1
 274 272 l 1
801 224 m 1
 860 198 890 162 890 112 c 0
 890 44 828 -9 731 -9 c 0
 634 -9 574 43 574 111 c 0xfc80
 574 163 606 195 658 217 c 1
 612 241 592 274 592 315 c 0
 592 383 657 424 733 424 c 0
 807 424 873 388 873 318 c 0xfb
 873 279 850 248 801 224 c 1
733 370 m 0xfb
 693 370 668 350 668 314 c 0
 668 278 693 262 737 248 c 1
 749 243 l 1
 784 264 797 285 797 315 c 0
 797 347 775 370 733 370 c 0xfb
732 49 m 0xfc80
 782 49 811 75 811 112 c 0
 811 152 789 169 728 189 c 2
 708 196 l 1
 671 178 654 151 654 113 c 0
 654 73 684 49 732 49 c 0xfc80
EndSplineSet
EndChar
StartChar: uni215D
Encoding: 8541 8541 711
Width: 932
Flags: W
HStem: -9 58<708 757 708 779.5> 263 61<167.5 211 167.5 236.5> 370 54<713 754> 471 56<81 156> 486 56<212 216.5> 507 20G<156 156> 631 58<156 321 156 156> 730 20G<640 640>
VStem: 81 75<527 631 527 689 527 689> 268 80<380.5 437> 574 80<93 132 93 137> 592 76<296 332 296 349> 797 76<300 331> 811 79<93.5 132>
LayerCount: 2
Fore
SplineSet
640 750 m 1xe7e4
 699 721 l 1
 293 -78 l 1
 233 -49 l 1
 640 750 l 1xe7e4
348 408 m 0
 348 322 285 263 188 263 c 0
 128 263 86 286 52 321 c 1
 98 364 l 1
 122 338 149 324 186 324 c 0
 236 324 268 353 268 408 c 0
 268 466 237 486 196 486 c 0xebe4
 175 486 158 481 138 471 c 1
 81 471 l 1xf3e4
 81 689 l 1
 331 689 l 1
 321 631 l 1
 156 631 l 1
 156 527 l 1xe7e4
 178 537 201 542 223 542 c 0xebe4
 296 542 348 492 348 408 c 0
801 224 m 1
 860 198 890 162 890 112 c 0
 890 44 828 -9 731 -9 c 0
 634 -9 574 43 574 111 c 0xe7e4
 574 163 606 195 658 217 c 1
 612 241 592 274 592 315 c 0
 592 383 657 424 733 424 c 0
 807 424 873 388 873 318 c 0xe7d8
 873 279 850 248 801 224 c 1
733 370 m 0xe7d8
 693 370 668 350 668 314 c 0
 668 278 693 262 737 248 c 1
 749 243 l 1
 784 264 797 285 797 315 c 0
 797 347 775 370 733 370 c 0xe7d8
732 49 m 0xe7e4
 782 49 811 75 811 112 c 0
 811 152 789 169 728 189 c 2
 708 196 l 1
 671 178 654 151 654 113 c 0
 654 73 684 49 732 49 c 0xe7e4
EndSplineSet
EndChar
StartChar: uni2191
Encoding: 8593 8593 715
Width: 664
Flags: W
VStem: 292 80<-120 520>
LayerCount: 2
Fore
SplineSet
544 450 m 1
 484 396 l 1
 372 520 l 1
 372 -120 l 1
 292 -120 l 1
 292 520 l 1
 180 396 l 1
 120 450 l 1
 332 680 l 1
 544 450 l 1
EndSplineSet
EndChar
StartChar: uni2193
Encoding: 8595 8595 717
Width: 664
Flags: W
VStem: 292 80<40 680>
LayerCount: 2
Fore
SplineSet
544 110 m 1
 332 -120 l 1
 120 110 l 1
 180 164 l 1
 292 40 l 1
 292 680 l 1
 372 680 l 1
 372 40 l 1
 484 164 l 1
 544 110 l 1
EndSplineSet
EndChar
StartChar: uni2194
Encoding: 8596 8596 736
Width: 1120
Flags: W
HStem: 240 80<280 840>
LayerCount: 2
Fore
SplineSet
840 240 m 1
 280 240 l 1
 404 128 l 1
 350 68 l 1
 120 280 l 1
 350 492 l 1
 404 432 l 1
 280 320 l 1
 840 320 l 1
 716 432 l 5
 770 492 l 1
 1000 280 l 1
 770 68 l 1
 716 128 l 1
 840 240 l 1
EndSplineSet
EndChar
StartChar: uni2197
Encoding: 8599 8599 721
Width: 834
VWidth: 999
Flags: W
HStem: 469 80<406 551.25>
VStem: 621 80<254 399.25>
LayerCount: 2
Fore
SplineSet
401 549 m 1
 714 562 l 1
 701 249 l 1
 621 254 l 1
 629 420 l 1
 176 -32 l 5
 120 24 l 1
 572 477 l 1
 406 469 l 1
 401 549 l 1
EndSplineSet
EndChar
StartChar: uni2198
Encoding: 8600 8600 722
Width: 834
VWidth: 999
Flags: W
HStem: -19 80<406 551.25>
VStem: 621 80<130.75 276>
LayerCount: 2
Fore
SplineSet
701 281 m 1
 714 -32 l 1
 401 -19 l 1
 406 61 l 1
 572 53 l 1
 120 506 l 1
 176 562 l 5
 629 110 l 1
 621 276 l 1
 701 281 l 1
EndSplineSet
EndChar
StartChar: uni2199
Encoding: 8601 8601 723
Width: 834
VWidth: 999
Flags: W
HStem: -19 80<282.75 428>
VStem: 133 80<130.75 276>
LayerCount: 2
Fore
SplineSet
133 281 m 1
 120 -32 l 1
 433 -19 l 1
 428 61 l 1
 262 53 l 1
 714 506 l 1
 658 562 l 1
 205 110 l 1
 213 276 l 1
 133 281 l 1
EndSplineSet
EndChar
StartChar: uni219B
Encoding: 8603 8603 725
Width: 1040
Flags: W
HStem: 240 80<120 760>
LayerCount: 2
Fore
SplineSet
270 110 m 1
 484 488 l 1
 550 450 l 1
 336 72 l 1
 270 110 l 1
EndSplineSet
Refer: 716 8594 N 1 0 0 1 0 0 2
EndChar
StartChar: uni219E
Encoding: 8606 8606 744
Width: 1120
Flags: W
LayerCount: 2
Fore
SplineSet
350 492 m 1
 120 280 l 1
 350 68 l 1
 404 128 l 1
 280 240 l 1
 403 240 l 1
 590 68 l 1
 644 128 l 1
 520 240 l 1
 1000 240 l 1
 1000 320 l 1
 520 320 l 1
 644 432 l 1
 590 492 l 1
 403 320 l 1
 280 320 l 1
 404 432 l 1
 350 492 l 1
EndSplineSet
EndChar
StartChar: uni219F
Encoding: 8607 8607 720
Width: 664
Flags: W
LayerCount: 2
Fore
SplineSet
544 490 m 1
 332 720 l 1
 120 490 l 1
 180 436 l 1
 292 560 l 1
 292 437 l 1
 120 250 l 1
 180 196 l 1
 292 320 l 1
 292 -160 l 1
 372 -160 l 1
 372 320 l 1
 484 196 l 1
 544 250 l 1
 372 437 l 1
 372 560 l 1
 484 436 l 1
 544 490 l 1
EndSplineSet
EndChar
StartChar: uni21A0
Encoding: 8608 8608 721
Width: 1120
Flags: W
LayerCount: 2
Fore
SplineSet
770 68 m 1
 1000 280 l 1
 770 492 l 1
 716 432 l 1
 840 320 l 1
 717 320 l 1
 530 492 l 1
 476 432 l 1
 600 320 l 1
 120 320 l 1
 120 240 l 1
 600 240 l 1
 476 128 l 1
 530 68 l 1
 717 240 l 1
 840 240 l 1
 716 128 l 1
 770 68 l 1
EndSplineSet
EndChar
StartChar: uni21A1
Encoding: 8609 8609 722
Width: 664
Flags: W
HStem: 0 21G<273.935 292 372 390.065>
LayerCount: 2
Fore
SplineSet
120 70 m 1
 332 -160 l 1
 544 70 l 1
 484 124 l 1
 372 0 l 1
 372 123 l 1
 544 310 l 1
 484 364 l 1
 372 240 l 1
 372 720 l 1
 292 720 l 1
 292 240 l 1
 180 364 l 1
 120 310 l 1
 292 123 l 1
 292 0 l 1
 180 124 l 1
 120 70 l 1
EndSplineSet
EndChar
StartChar: uni21A4
Encoding: 8612 8612 723
Width: 1040
Flags: W
LayerCount: 2
Fore
SplineSet
350 492 m 1
 120 280 l 1
 350 68 l 1
 404 128 l 1
 280 240 l 1
 840 240 l 1
 840 88 l 1
 920 88 l 1
 920 472 l 1
 840 472 l 1
 840 320 l 1
 280 320 l 1
 404 432 l 1
 350 492 l 1
EndSplineSet
EndChar
StartChar: uni21AE
Encoding: 8622 8622 1520
Width: 1120
Flags: HW
LayerCount: 2
Fore
SplineSet
420 110 m 1
 634 488 l 1
 700 450 l 1
 486 72 l 1
 420 110 l 1
EndSplineSet
Refer: 713 8596 N 1 0 0 1 0 0 2
EndChar
StartChar: uni21BD
Encoding: 8637 8637 754
Width: 1040
Flags: W
HStem: 240 80<280 920>
LayerCount: 2
Fore
SplineSet
134 320 m 1
 920 320 l 1
 920 240 l 1
 280 240 l 1
 404 128 l 1
 350 68 l 1
 110 289 l 25
 134 320 l 1
EndSplineSet
EndChar
StartChar: uni21C2
Encoding: 8642 8642 759
Width: 664
Flags: W
VStem: 292 80<40 680>
LayerCount: 2
Fore
SplineSet
292 -106 m 1
 292 680 l 1
 372 680 l 1
 372 40 l 1
 484 164 l 1
 544 110 l 1
 323 -130 l 25
 292 -106 l 1
EndSplineSet
EndChar
StartChar: uni21C3
Encoding: 8643 8643 742
Width: 664
Flags: W
LayerCount: 2
Fore
SplineSet
372 -106 m 1
 372 680 l 1
 292 680 l 1
 292 40 l 1
 180 164 l 1
 120 110 l 1
 341 -130 l 25
 372 -106 l 1
EndSplineSet
EndChar
StartChar: uni21C5
Encoding: 8645 8645 744
Width: 1024
Flags: W
HStem: 670 20G<313.565 350.435>
VStem: 292 80<-110 530>
LayerCount: 2
Fore
SplineSet
480 100 m 1
 692 -130 l 1
 904 100 l 1
 844 154 l 1
 732 30 l 1
 732 670 l 1
 652 670 l 1
 652 30 l 1
 540 154 l 1
 480 100 l 1
120 460 m 1
 332 690 l 1
 544 460 l 1
 484 406 l 1
 372 530 l 1
 372 -110 l 1
 292 -110 l 1
 292 530 l 1
 180 406 l 1
 120 460 l 1
EndSplineSet
EndChar
StartChar: uni21CB
Encoding: 8651 8651 768
Width: 1060
Flags: W
HStem: 120 80<290 930> 360 80<130 770>
LayerCount: 2
Fore
SplineSet
144 200 m 1
 930 200 l 1
 930 120 l 1
 290 120 l 1
 414 8 l 1
 360 -52 l 1
 120 169 l 25
 144 200 l 1
916 360 m 1
 130 360 l 1
 130 440 l 1
 770 440 l 1
 646 552 l 1
 700 612 l 1
 940 391 l 25
 916 360 l 1
EndSplineSet
EndChar
StartChar: uni21CC
Encoding: 8652 8652 743
Width: 1060
Flags: W
LayerCount: 2
Fore
SplineSet
916 200 m 5
 130 200 l 5
 130 120 l 5
 770 120 l 5
 646 8 l 5
 700 -52 l 5
 940 169 l 29
 916 200 l 5
144 360 m 5
 930 360 l 5
 930 440 l 5
 290 440 l 5
 414 552 l 5
 360 612 l 5
 120 391 l 29
 144 360 l 5
EndSplineSet
EndChar
StartChar: uni21D0
Encoding: 8656 8656 752
Width: 1040
Flags: W
LayerCount: 2
Fore
SplineSet
920 144 m 1
 920 222 l 1
 290 222 l 1
 228 280 l 1
 290 338 l 1
 920 338 l 1
 920 416 l 1
 370 416 l 1
 452 492 l 1
 400 548 l 1
 120 280 l 1
 400 12 l 1
 452 68 l 1
 370 144 l 1
 920 144 l 1
EndSplineSet
EndChar
StartChar: uni21D1
Encoding: 8657 8657 771
Width: 776
Flags: W
VStem: 252 78<-120 430> 446 78<-120 430>
LayerCount: 2
Fore
SplineSet
524 -120 m 1
 446 -120 l 1
 446 510 l 1
 388 572 l 1
 330 510 l 1
 330 -120 l 1
 252 -120 l 1
 252 430 l 1
 176 348 l 1
 120 400 l 1
 388 680 l 1
 656 400 l 1
 600 348 l 1
 524 430 l 1
 524 -120 l 1
EndSplineSet
EndChar
StartChar: uni21D2
Encoding: 8658 8658 772
Width: 1040
Flags: W
HStem: 144 78<120 670> 338 78<120 670>
LayerCount: 2
Fore
SplineSet
120 144 m 1
 120 222 l 1
 750 222 l 1
 812 280 l 1
 750 338 l 1
 120 338 l 1
 120 416 l 1
 670 416 l 1
 588 492 l 1
 640 548 l 1
 920 280 l 1
 640 12 l 1
 588 68 l 1
 670 144 l 1
 120 144 l 1
EndSplineSet
EndChar
StartChar: uni21D3
Encoding: 8659 8659 1481
Width: 776
Flags: W
HStem: -12 21G<369.29 406.71>
LayerCount: 2
Fore
SplineSet
524 680 m 1
 446 680 l 1
 446 50 l 1
 388 -12 l 1
 330 50 l 1
 330 680 l 1
 252 680 l 1
 252 130 l 1
 176 212 l 1
 120 160 l 1
 388 -120 l 1
 656 160 l 1
 600 212 l 1
 524 130 l 1
 524 680 l 1
EndSplineSet
EndChar
StartChar: uni21D4
Encoding: 8660 8660 756
Width: 1120
Flags: W
LayerCount: 2
Fore
SplineSet
290 222 m 1
 228 280 l 1
 290 338 l 1
 830 338 l 1
 892 280 l 1
 830 222 l 1
 290 222 l 1
750 144 m 1
 668 68 l 1
 720 12 l 1
 1000 280 l 1
 720 548 l 1
 668 492 l 1
 750 416 l 1
 370 416 l 1
 452 492 l 1
 400 548 l 1
 120 280 l 1
 400 12 l 1
 452 68 l 1
 370 144 l 1
 750 144 l 1
EndSplineSet
EndChar
StartChar: uni21D5
Encoding: 8661 8661 1483
Width: 776
Flags: W
LayerCount: 2
Fore
SplineSet
446 10 m 1
 388 -52 l 1
 330 10 l 1
 330 550 l 1
 388 612 l 1
 446 550 l 1
 446 10 l 1
524 470 m 1
 600 388 l 1
 656 440 l 1
 388 720 l 1
 120 440 l 1
 176 388 l 1
 252 470 l 1
 252 90 l 1
 176 172 l 1
 120 120 l 1
 388 -160 l 1
 656 120 l 1
 600 172 l 1
 524 90 l 1
 524 470 l 1
EndSplineSet
EndChar
StartChar: uni21D6
Encoding: 8662 8662 1484
Width: 902
Flags: W
HStem: 515 72<218 281 393 505> 517 79<197 281 393 421.778>
VStem: 120 79<294.222 323 435 519> 129 76<211 323 435 508.5>
LayerCount: 2
Fore
SplineSet
782 126 m 1xa0
 727 71 l 1
 281 517 l 1
 197 519 l 1
 199 435 l 1x60
 645 -11 l 1
 590 -66 l 1
 201 323 l 1
 205 211 l 1
 129 208 l 1x50
 120 596 l 1x60
 508 587 l 1
 505 511 l 1
 393 515 l 1
 782 126 l 1xa0
EndSplineSet
EndChar
StartChar: uni21D7
Encoding: 8663 8663 777
Width: 902
VWidth: 1033
Flags: W
HStem: 511 76<397 509 621 694.5> 517 79<480.222 509 621 705>
VStem: 697 76<211 323 435 508.5> 703 79<294.222 323 435 519>
LayerCount: 2
Fore
SplineSet
312 -66 m 5x60
 257 -11 l 1
 703 435 l 1
 705 519 l 1
 621 517 l 1x50
 175 71 l 1
 120 126 l 1
 509 515 l 1
 397 511 l 1
 394 587 l 1x90
 782 596 l 1x50
 773 208 l 1
 697 211 l 1
 701 323 l 1
 312 -66 l 5x60
EndSplineSet
EndChar
StartChar: uni21D8
Encoding: 8664 8664 1486
Width: 902
VWidth: 937
Flags: W
HStem: -66 79<480.222 509 621 705> -57 76<397 509 621 694.5>
VStem: 701 72<32 95 207 319> 703 79<11 95 207 235.778>
LayerCount: 2
Fore
SplineSet
120 404 m 1x50
 175 459 l 1
 621 13 l 1
 705 11 l 1
 703 95 l 1x90
 257 541 l 1
 312 596 l 1
 701 207 l 1
 697 319 l 1
 773 322 l 1xa0
 782 -66 l 5x90
 394 -57 l 1
 397 19 l 1
 509 15 l 1
 120 404 l 1x50
EndSplineSet
EndChar
StartChar: uni21D9
Encoding: 8665 8665 761
Width: 902
VWidth: 937
Flags: W
HStem: -66 77<197 281 393 421.778> -57 72<218 281 393 505>
VStem: 120 79<11 95 207 235.778> 129 72<32 95 207 319>
LayerCount: 2
Fore
SplineSet
590 596 m 1x90
 645 541 l 1
 199 95 l 1
 197 11 l 1xa0
 281 13 l 1
 727 459 l 1
 782 404 l 1
 393 15 l 1
 505 19 l 1
 508 -57 l 1x60
 120 -66 l 5xa0
 129 322 l 1
 205 319 l 1
 201 207 l 1
 590 596 l 1x90
EndSplineSet
EndChar
StartChar: uni21E6
Encoding: 8678 8678 762
Width: 960
Flags: W
HStem: 189 44<338 870 338 338> 393 44<338 870 870 876>
VStem: 293 45<122 189 13 233 13 233 437 504 504 504> 876 44<233 239 239 387>
LayerCount: 2
Fore
SplineSet
920 239 m 2
 920 209 900 189 870 189 c 2
 338 189 l 1
 338 13 l 1
 40 313 l 1
 338 613 l 1
 338 437 l 1
 870 437 l 2
 900 437 920 417 920 387 c 2
 920 239 l 2
876 393 m 1
 293 393 l 1
 293 504 l 1
 104 313 l 1
 293 122 l 1
 293 233 l 1
 876 233 l 1
 876 393 l 1
EndSplineSet
EndChar
StartChar: uni21F5
Encoding: 8693 8693 766
Width: 1024
Flags: W
HStem: 670 20G<673.565 710.435>
VStem: 652 80<-110 530>
LayerCount: 2
Fore
SplineSet
480 460 m 1
 692 690 l 1
 904 460 l 1
 844 406 l 1
 732 530 l 1
 732 -110 l 1
 652 -110 l 1
 652 530 l 1
 540 406 l 1
 480 460 l 1
120 100 m 1
 332 -130 l 1
 544 100 l 1
 484 154 l 1
 372 30 l 1
 372 670 l 1
 292 670 l 1
 292 30 l 1
 180 154 l 1
 120 100 l 1
EndSplineSet
EndChar
StartChar: uni2200
Encoding: 8704 8704 768
Width: 552
VWidth: 1037
Flags: HW
LayerCount: 2
Fore
SplineSet
465 706 m 1
 404 503 l 1
 148 503 l 1
 87 706 l 1
 2 706 l 1
 228 0 l 1
 324 0 l 1
 550 706 l 1
 465 706 l 1
171 426 m 1
 381 426 l 1
 276 92 l 1
 171 426 l 1
EndSplineSet
EndChar
StartChar: uni2203
Encoding: 8707 8707 789
Width: 577
Flags: W
HStem: 0 76<88 413> 312 76<98 413> 614 76<88 413>
VStem: 413 76<76 312 388 614>
LayerCount: 2
Fore
SplineSet
88 0 m 1
 88 76 l 1
 413 76 l 1
 413 312 l 1
 98 312 l 1
 98 388 l 1
 413 388 l 1
 413 614 l 1
 88 614 l 1
 88 690 l 1
 489 690 l 1
 489 0 l 1
 88 0 l 1
EndSplineSet
EndChar
StartChar: uni2205
Encoding: 8709 8709 790
Width: 900
Flags: W
HStem: -16 78<340.424 557.183> 638 78<342.817 559.576>
VStem: 84 78<240.087 457.183> 738 78<242.817 459.913>
LayerCount: 2
Fore
SplineSet
84 350 m 0
 84 552 248 716 450 716 c 0
 519 716 584 697 639 664 c 1
 678 716 l 1
 772 716 l 1
 699 618 l 1
 771 551 816 456 816 350 c 0
 816 148 652 -16 450 -16 c 0
 381 -16 316 3 261 36 c 1
 222 -16 l 1
 128 -16 l 1
 201 82 l 1
 129 149 84 244 84 350 c 0
309 99 m 1
 351 75 399 62 450 62 c 0
 609 62 738 191 738 350 c 0
 738 431 705 504 652 556 c 1
 309 99 l 1
248 144 m 1
 591 601 l 1
 549 625 501 638 450 638 c 0
 291 638 162 509 162 350 c 0
 162 269 195 196 248 144 c 1
EndSplineSet
EndChar
StartChar: uni2207
Encoding: 8711 8711 792
Width: 611
Flags: HW
TopAccentHorizontal: 306
LayerCount: 2
Fore
SplineSet
366 0 m 1
 591 689 l 1
 20 689 l 1
 246 0 l 1
 366 0 l 1
304 80 m 1
 139 611 l 1
 468 611 l 1
 304 80 l 1
EndSplineSet
EndChar
StartChar: uni220B
Encoding: 8715 8715 795
Width: 656
Flags: HW
HStem: 34 72<62 426.953> 244 72<62 518> 454 72<62 426.953>
LayerCount: 2
Fore
SplineSet
594 280 m 0
 594 426 492 536 348 536 c 2
 62 536 l 1
 62 464 l 1
 348 464 l 2
 440 464 504 396 519 316 c 1
 62 316 l 1
 62 244 l 1
 519 244 l 1
 504 164 440 96 348 96 c 2
 62 96 l 1
 62 24 l 1
 348 24 l 2
 492 24 594 134 594 280 c 0
EndSplineSet
EndChar
StartChar: uni220D
Encoding: 8717 8717 796
Width: 496
Flags: W
HStem: 80 72<218 306.594> 408 72<218 306.594>
LayerCount: 2
Fore
SplineSet
434 280 m 0
 434 416 348 480 218 480 c 2
 62 480 l 1
 62 408 l 1
 218 408 l 2
 290 408 343 382 357 316 c 1
 62 316 l 1
 62 244 l 1
 357 244 l 1
 343 178 290 152 218 152 c 2
 62 152 l 1
 62 80 l 1
 218 80 l 2
 348 80 434 144 434 280 c 0
EndSplineSet
EndChar
StartChar: uni220E
Encoding: 8718 8718 1506
Width: 589
Flags: W
HStem: 0 21G<96 493> 669 20G<96 493>
VStem: 96 397<0 689>
LayerCount: 2
Fore
SplineSet
493 689 m 1
 493 0 l 1
 96 0 l 1
 96 689 l 5
 493 689 l 1
EndSplineSet
EndChar
StartChar: uni220F
Encoding: 8719 8719 780
Width: 738
Flags: W
IsExtendedShape: 1
GlyphVariantsVertical: uni220F uni220F.display
HStem: 633 76<57 129 219 524 614 681>
VStem: 129 90<-153 633> 524 90<-153 633>
LayerCount: 2
Fore
SplineSet
681 633 m 1
 614 633 l 1
 614 -153 l 1
 524 -153 l 1
 524 633 l 1
 219 633 l 1
 219 -153 l 1
 129 -153 l 1
 129 633 l 1
 57 633 l 1
 57 709 l 1
 681 709 l 1
 681 633 l 1
EndSplineSet
EndChar
StartChar: uni2213
Encoding: 8723 8723 784
Width: 500
Flags: W
LayerCount: 2
Fore
SplineSet
292 10 m 1
 292 160 l 1
 438 160 l 1
 438 236 l 1
 292 236 l 1
 292 385 l 1
 208 385 l 1
 208 236 l 1
 62 236 l 1
 62 160 l 1
 208 160 l 1
 208 10 l 1
 292 10 l 1
62 512 m 1
 62 436 l 1
 438 436 l 1
 438 512 l 1
 62 512 l 1
EndSplineSet
EndChar
StartChar: uni2214
Encoding: 8724 8724 759
Width: 500
Flags: W
HStem: 436 139<198.729 300.157>
VStem: 180 139<455.206 555.908>
LayerCount: 2
Fore
SplineSet
249 575 m 0
 289 575 319 544 319 506 c 0
 319 467 289 436 249 436 c 0
 210 436 180 467 180 506 c 0
 180 544 210 575 249 575 c 0
292 10 m 1
 292 160 l 1
 438 160 l 1
 438 236 l 1
 292 236 l 1
 292 385 l 1
 208 385 l 1
 208 236 l 1
 62 236 l 1
 62 160 l 1
 208 160 l 1
 208 10 l 1
 292 10 l 1
EndSplineSet
EndChar
StartChar: uni2215
Encoding: 8725 8725 804
Width: 132
Flags: W
HStem: 730 20G<240 240>
VStem: -167 466
LayerCount: 2
Fore
SplineSet
240 750 m 5
 299 721 l 5
 -107 -78 l 5
 -167 -49 l 5
 240 750 l 5
EndSplineSet
EndChar
StartChar: uni2219
Encoding: 8729 8729 761
Width: 240
VWidth: 969
Flags: W
HStem: 210 139<68.7292 170.157>
VStem: 50 139<229.206 329.908>
LayerCount: 2
Fore
SplineSet
119 349 m 0
 159 349 189 318 189 280 c 0
 189 241 159 210 119 210 c 0
 80 210 50 241 50 280 c 0
 50 318 80 349 119 349 c 0
EndSplineSet
EndChar
StartChar: uni221A
Encoding: 8730 8730 807
Width: 649
Flags: W
GlyphVariantsVertical: uni221A uni221A.size1 uni221A.size2 uni221A.size3 uni221A.size4 uni221A.size5 uni221A.size6 uni221A.size7 uni221A.size8 uni221A.size9 uni221A.size10 uni221A.size11 uni221A.size12 uni221A.size13 uni221A.size14 uni221A.size15
HStem: 875 77<637 664>
LayerCount: 2
Fore
SplineSet
16 258 m 1
 143 284 l 1
 278 -105 l 1
 572 952 l 1
 664 952 l 1
 664 875 l 1
 637 875 l 1
 333 -200 l 1
 229 -200 l 1
 85 194 l 1
 31 182 l 1
 16 258 l 1
EndSplineSet
EndChar
StartChar: uni221B
Encoding: 8731 8731 1500
Width: 629
Flags: W
HStem: 499 61<109.057 236.814> 698 56<152 231.719> 873 59<112.953 234.253> 875 77<617 644>
VStem: 247 77<769.444 860.505> 257 81<579.469 682.913>
LayerCount: 2
Fore
SplineSet
187 932 m 0xe8
 276 932 324 884 324 827 c 0xe8
 324 775 289 742 238 729 c 1
 293 724 338 692 338 627 c 0
 338 556 279 499 181 499 c 0
 123 499 76 520 42 559 c 1
 87 601 l 1
 114 572 143 560 177 560 c 0
 226 560 257 587 257 631 c 0xe4
 257 681 227 698 177 698 c 2
 143 698 l 1
 152 754 l 1
 175 754 l 2
 216 754 247 776 247 817 c 0
 247 852 221 873 181 873 c 0
 147 873 121 861 93 836 c 1
 53 880 l 1
 92 915 136 932 187 932 c 0xe8
644 952 m 1xd0
 644 875 l 1
 617 875 l 1
 313 -200 l 1
 209 -200 l 1
 42 257 l 5
 123 284 l 1
 258 -105 l 1
 552 952 l 1
 644 952 l 1xd0
EndSplineSet
EndChar
StartChar: uni221C
Encoding: 8732 8732 809
Width: 693
Flags: W
GlyphVariantsVertical: uni221C uni221C.size1 uni221C.size2 uni221C.size3 uni221C.size4 uni221C.size5 uni221C.size6 uni221C.size7 uni221C.size8 uni221C.size9 uni221C.size10 uni221C.size11 uni221C.size12 uni221C.size13 uni221C.size14 uni221C.size15
HStem: 604 60<189 294 370 423> 875 77<681 708>
VStem: 294 76<508 604 664 755.875> 302 68<664 769>
LayerCount: 2
Fore
SplineSet
60 258 m 1xc0
 187 284 l 1
 322 -105 l 1
 616 952 l 1
 708 952 l 1
 708 875 l 1
 681 875 l 1
 377 -200 l 1
 273 -200 l 1
 129 194 l 1
 75 182 l 1
 60 258 l 1xc0
108 604 m 1
 108 658 l 1
 236 932 l 1
 302 907 l 1
 189 664 l 1
 295 664 l 1
 302 769 l 1
 370 769 l 1xd0
 370 664 l 1
 423 664 l 1
 423 604 l 1
 370 604 l 1
 370 508 l 1
 294 508 l 1
 294 604 l 1xe0
 108 604 l 1
EndSplineSet
EndChar
StartChar: uni221E
Encoding: 8734 8734 811
Width: 895
Flags: HW
HStem: 72 75<602 672.5 599 709> 412 75<222.5 293 186 295.5>
VStem: 55 93<238 322.5 238 335.5> 747 93<236.5 321>
LayerCount: 2
Fore
SplineSet
643 487 m 0
 777 487 840 389 840 279 c 0
 840 168 776 72 642 72 c 0
 562 72 491 123 447 199 c 1
 404 124 344 72 252 72 c 0
 118 72 55 170 55 280 c 0
 55 391 119 487 253 487 c 0
 333 487 404 437 448 360 c 1
 493 437 553 487 643 487 c 0
253 148 m 0
 329 148 371 208 409 285 c 1
 385 332 338 412 253 412 c 0
 192 412 148 365 148 280 c 0
 148 196 191 148 253 148 c 0
642 147 m 0
 703 147 747 194 747 279 c 0
 747 363 704 411 642 411 c 0
 567 411 526 353 485 275 c 1
 509 228 556 147 642 147 c 0
EndSplineSet
EndChar
StartChar: uni221F
Encoding: 8735 8735 1918
Width: 672
Flags: W
HStem: 0 80<152 612> 520 20G<72 152>
VStem: 72 80<80 540>
LayerCount: 2
Fore
SplineSet
72 0 m 1
 72 540 l 1
 152 540 l 1
 152 80 l 1
 612 80 l 1
 612 0 l 1
 72 0 l 1
EndSplineSet
EndChar
StartChar: uni2226
Encoding: 8742 8742 1929
Width: 683
Flags: W
HStem: 513 20G<524 564>
VStem: 193 83<-186 81 266 746> 407 83<-186 294 479 746>
LayerCount: 2
Fore
SplineSet
88 78 m 1
 193 183 l 1
 193 746 l 1
 276 746 l 1
 276 266 l 1
 407 396 l 1
 407 746 l 1
 490 746 l 1
 490 479 l 1
 544 533 l 1
 595 482 l 1
 490 377 l 1
 490 -186 l 1
 407 -186 l 1
 407 294 l 1
 276 164 l 1
 276 -186 l 1
 193 -186 l 1
 193 81 l 1
 139 27 l 1
 88 78 l 1
EndSplineSet
EndChar
StartChar: uni2228
Encoding: 8744 8744 1912
Width: 592
Flags: W
LayerCount: 2
Fore
SplineSet
36 546 m 1
 121 546 l 1
 296 86 l 1
 471 546 l 1
 556 546 l 1
 351 6 l 1
 241 6 l 1
 36 546 l 1
EndSplineSet
EndChar
StartChar: uni222E
Encoding: 8750 8750 799
Width: 639
Flags: W
ItalicCorrection: 240
IsExtendedShape: 1
GlyphVariantsVertical: uni222E.display
HStem: -211 69<-3.10938 120.552> 76 72<193.402 352.598> 468 72<193.402 352.598> 759 69<418.448 542.109>
VStem: 41 72<228.402 387.598> 433 72<228.402 387.598>
LayerCount: 2
Fore
SplineSet
41 308 m 0
 41 436 145 540 273 540 c 0
 401 540 505 436 505 308 c 0
 505 180 401 76 273 76 c 0
 145 76 41 180 41 308 c 0
113 308 m 0
 113 220 185 148 273 148 c 0
 361 148 433 220 433 308 c 0
 433 396 361 468 273 468 c 0
 185 468 113 396 113 308 c 0
EndSplineSet
Refer: 796 8747 N 1 0 0 1 0 0 2
Substitution2: "'ss01' subtable" uni222E.up
EndChar
StartChar: uni222F
Encoding: 8751 8751 770
Width: 919
Flags: W
ItalicCorrection: 240
IsExtendedShape: 1
GlyphVariantsVertical: uni222F.display
HStem: -211 69<-3.10938 120.552 276.891 400.552> 86 72<244.79 574.986> 458 72<244.79 574.986> 759 69<418.448 542.109 698.448 822.109>
VStem: 19 76<252.522 363.478> 724 76<252.288 363.712>
LayerCount: 2
Fore
SplineSet
19 308 m 0
 19 432 188 530 410 530 c 0
 632 530 800 432 800 308 c 0
 800 184 632 86 410 86 c 0
 188 86 19 184 19 308 c 0
95 308 m 0
 95 224 228 158 410 158 c 0
 592 158 724 224 724 308 c 0
 724 392 592 458 410 458 c 0
 228 458 95 392 95 308 c 0
EndSplineSet
Refer: 767 8748 N 1 0 0 1 0 0 2
Substitution2: "'ss01' subtable" uni222F.up
EndChar
StartChar: uni2230
Encoding: 8752 8752 801
Width: 1199
Flags: W
ItalicCorrection: 240
IsExtendedShape: 1
GlyphVariantsVertical: uni2230.display
HStem: -211 69<-3.10938 120.552 276.891 400.438 556.891 680.552> 123.928 66.3468<295.622 426.002> 146.456 64.5621<157.301 202.612> 405.326 64.5724<896.294 942.067> 425.94 66.3777<672.843 803.264> 759 69<418.448 542.109 698.524 822.109 978.448 1102.11>
VStem: 7 80<265.526 349.38> 1013 80<265.78 351.028>
LayerCount: 2
Fore
SplineSet
341.077204201 502.780778885 m 1xa7
 403.353025733 513.265798884 469.982941556 519.241847345 536.935639776 519.932523459 c 1
 540 541 l 2
 575 779 652 828 739 828 c 0
 785 828 824 814 855 791 c 1
 823 732 l 1
 799 747 774 759 748 759 c 0
 701.146687022 759 653.299606305 719.249290412 623.28141546 517.895929855 c 1
 689.336963267 514.115371903 753.872790082 505.334314067 812.918887358 492.317350585 c 1xaf
 820 541 l 2
 855 779 932 828 1019 828 c 0
 1065 828 1104 814 1135 791 c 1
 1103 732 l 1
 1079 747 1054 759 1028 759 c 0
 981 759 933 719 903 516 c 2
 896.294342453 469.898604366 l 1
 1012.99482078 432.121171927 1093 375.374583107 1093 308 c 0
 1093 231.52875064 989.932369522 168.749142229 847.124742991 131.857608063 c 1
 839 76 l 2
 804 -162 727 -211 640 -211 c 0
 594 -211 555 -197 524 -174 c 1
 556 -115 l 1
 580 -130 605 -142 631 -142 c 0
 678 -142 726 -102 756 101 c 2
 757.748678153 113.022162299 l 1
 695.453897626 102.599774959 628.8352877 96.6860838457 561.91725975 96.0561607785 c 1
 559 76 l 2
 524 -162 447 -211 360 -211 c 0
 314 -211 275 -197 244 -174 c 1
 276 -115 l 1
 300 -130 325 -142 351 -142 c 0
 397.780756861 -142 445.552205987 -102.372309416 475.578999608 98.1697967811 c 1
 409.5069044 102.009834564 344.978959571 110.851144797 285.971337616 123.927946111 c 1xd7
 279 76 l 2
 244 -162 167 -211 80 -211 c 0
 34 -211 -5 -197 -36 -174 c 1
 -4 -115 l 1
 20 -130 45 -142 71 -142 c 0
 118 -142 166 -102 196 101 c 2
 202.611837723 146.456384348 l 1
 86.5055495999 184.23386754 7 240.836122358 7 308 c 0
 7 384.258621807 109.495270251 446.901635758 251.684954491 483.834062128 c 1
 260 541 l 2
 295 779 372 828 459 828 c 0
 505 828 544 814 575 791 c 1
 543 732 l 1
 519 747 494 759 468 759 c 0
 421 759 373 719 343 516 c 2
 341.077204201 502.780778885 l 1xa7
295.621776798 190.274715488 m 1xc7
 352.494683993 179.299188562 417.47037247 172.084482007 485.934057773 169.296647188 c 1
 526.447383662 447.825762676 l 1
 457.143451745 446.799166719 390.399756197 441.260802809 330.762445986 431.866816157 c 1
 295.621776798 190.274715488 l 1xc7
212.002693781 211.018519742 m 1xa7
 241.451077836 413.476160122 l 1
 147.98686955 388.858033156 87 352.327720568 87 308 c 0
 87 268.51775741 135.382596102 235.221417519 212.002693781 211.018519742 c 1xa7
857.358001439 202.211259891 m 1
 951.494731862 226.832250395 1013 263.484281572 1013 308 c 0
 1013 347.67005049 964.156019504 381.095208496 886.901999338 405.326245446 c 1x97
 857.358001439 202.211259891 l 1
768.065334864 183.949177188 m 1
 803.263947811 425.939641198 l 1x8f
 746.341446751 436.855334498 681.362119846 444.013251961 612.927171239 446.749302266 c 1
 572.404749088 168.157649983 l 1
 641.665600998 169.133414565 708.396515044 174.615298854 768.065334864 183.949177188 c 1
EndSplineSet
EndChar
StartChar: uni2236
Encoding: 8758 8758 822
Width: 427
Flags: W
HStem: -1 139<162.729 264.157> 401 139<162.729 264.157>
VStem: 144 139<18.2058 118.908 420.206 520.908>
LayerCount: 2
Fore
SplineSet
213 540 m 0
 253 540 283 509 283 471 c 0
 283 432 253 401 213 401 c 0
 174 401 144 432 144 471 c 0
 144 509 174 540 213 540 c 0
213 138 m 0
 253 138 283 107 283 69 c 0
 283 30 253 -1 213 -1 c 0
 174 -1 144 30 144 69 c 0
 144 107 174 138 213 138 c 0
EndSplineSet
EndChar
StartChar: uni2238
Encoding: 8760 8760 1913
Width: 500
Flags: W
HStem: 242 76<62 438> 404 128<202.747 297.253>
VStem: 186 128<420.747 515.253>
LayerCount: 2
Fore
SplineSet
62 242 m 1
 62 318 l 1
 438 318 l 1
 438 242 l 1
 62 242 l 1
186 468 m 0
 186 503 215 532 250 532 c 0
 285 532 314 503 314 468 c 0
 314 433 285 404 250 404 c 0
 215 404 186 433 186 468 c 0
EndSplineSet
EndChar
StartChar: uni2239
Encoding: 8761 8761 1941
Width: 684
Flags: W
HStem: 96 128<510.747 605.253> 242 76<62 438> 336 128<510.747 605.253>
VStem: 494 128<112.747 207.253 352.747 447.253>
CounterMasks: 1 e0
LayerCount: 2
Fore
SplineSet
62 242 m 1
 62 318 l 1
 438 318 l 1
 438 242 l 1
 62 242 l 1
494 160 m 0
 494 195 523 224 558 224 c 0
 593 224 622 195 622 160 c 0
 622 125 593 96 558 96 c 0
 523 96 494 125 494 160 c 0
494 400 m 0
 494 435 523 464 558 464 c 0
 593 464 622 435 622 400 c 0
 622 365 593 336 558 336 c 0
 523 336 494 365 494 400 c 0
EndSplineSet
EndChar
StartChar: uni223A
Encoding: 8762 8762 1942
Width: 528
Flags: W
HStem: 28 128<80.7473 175.253 352.747 447.253> 242 76<76 452> 404 128<80.7473 175.253 352.747 447.253>
VStem: 64 128<44.7473 139.253 420.747 515.253> 336 128<44.7473 139.253 420.747 515.253>
CounterMasks: 1 e0
LayerCount: 2
Fore
SplineSet
64 92 m 0
 64 127 93 156 128 156 c 0
 163 156 192 127 192 92 c 0
 192 57 163 28 128 28 c 0
 93 28 64 57 64 92 c 0
64 468 m 0
 64 503 93 532 128 532 c 0
 163 532 192 503 192 468 c 0
 192 433 163 404 128 404 c 0
 93 404 64 433 64 468 c 0
76 242 m 1
 76 318 l 1
 452 318 l 1
 452 242 l 1
 76 242 l 1
336 92 m 0
 336 127 365 156 400 156 c 0
 435 156 464 127 464 92 c 0
 464 57 435 28 400 28 c 0
 365 28 336 57 336 92 c 0
336 468 m 0
 336 503 365 532 400 532 c 0
 435 532 464 503 464 468 c 0
 464 433 435 404 400 404 c 0
 365 404 336 433 336 468 c 0
EndSplineSet
EndChar
StartChar: uni223B
Encoding: 8763 8763 1943
Width: 488
Flags: HW
HStem: 23 139<199.729 301.157> 242 76<62 438> 399 139<199.729 301.157>
VStem: 181 139<42.2058 142.908 418.206 518.908>
LayerCount: 2
Fore
SplineSet
180 105 m 0
 180 135 205 160 235 160 c 0
 265 160 290 135 290 105 c 0
 290 75 265 50 235 50 c 0
 205 50 180 75 180 105 c 0
188 455 m 0
 188 485 213 510 243 510 c 0
 273 510 298 485 298 455 c 0
 298 425 273 400 243 400 c 0
 213 400 188 425 188 455 c 0
35 253 m 1x40
 56 294 97 350 172 350 c 0x40
 247 350 283 282 325 282 c 0
 358 282 381 310 397 336 c 1
 453 307 l 1
 432 266 391 210 316 210 c 0x80
 241 210 205 278 163 278 c 0
 130 278 107 250 91 224 c 1
 35 253 l 1x40
736 538 m 0
 776 538 806 507 806 469 c 0
 806 430 776 399 736 399 c 0
 697 399 667 430 667 469 c 0
 667 507 697 538 736 538 c 0
548 242 m 1
 548 318 l 1
 924 318 l 1
 924 242 l 1
 548 242 l 1
736 162 m 0
 776 162 806 131 806 93 c 0
 806 54 776 23 736 23 c 0
 697 23 667 54 667 93 c 0
 667 131 697 162 736 162 c 0
EndSplineSet
EndChar
StartChar: uni223C
Encoding: 8764 8764 823
Width: 488
Flags: W
HStem: 210 72<277.769 371.627> 278 72<116.373 210.231>
LayerCount: 2
Fore
SplineSet
35 253 m 1x40
 56 294 97 350 172 350 c 0x40
 247 350 283 282 325 282 c 0
 358 282 381 310 397 336 c 1
 453 307 l 1
 432 266 391 210 316 210 c 0x80
 241 210 205 278 163 278 c 0
 130 278 107 250 91 224 c 1
 35 253 l 1x40
EndSplineSet
EndChar
StartChar: uni223D
Encoding: 8765 8765 1933
Width: 488
Flags: W
HStem: 210 72<116.373 210.231> 278 72<277.769 371.627>
LayerCount: 2
Fore
SplineSet
35 307 m 1x80
 91 336 l 1
 107 310 130 282 163 282 c 0x80
 205 282 241 350 316 350 c 0
 391 350 432 294 453 253 c 1
 397 224 l 1
 381 250 358 278 325 278 c 0x40
 283 278 247 210 172 210 c 0
 97 210 56 266 35 307 c 1x80
EndSplineSet
EndChar
StartChar: uni2241
Encoding: 8769 8769 1952
Width: 500
Flags: W
HStem: 210 72<302.494 377.627> 278 72<122.373 206.381>
LayerCount: 2
Fore
SplineSet
41 253 m 1x40
 62 294 103 350 178 350 c 0x40
 205 350 227 341 246 330 c 1
 314 448 l 1
 372 414 l 1
 302 292 l 1
 312 286 321 282 331 282 c 0
 364 282 387 310 403 336 c 1
 459 307 l 1
 438 266 397 210 322 210 c 0x80
 299 210 280 216 263 225 c 1
 198 112 l 1
 140 146 l 1
 207 263 l 1
 194 272 182 278 169 278 c 0
 136 278 113 250 97 224 c 1
 41 253 l 1x40
EndSplineSet
EndChar
StartChar: uni2242
Encoding: 8770 8770 1947
Width: 488
Flags: W
HStem: 127 72<277.769 371.627> 195 72<116.373 210.231> 349 77<47 441>
LayerCount: 2
Fore
SplineSet
35 170 m 1x60
 56 211 97 267 172 267 c 0x60
 247 267 283 199 325 199 c 0
 358 199 381 227 397 253 c 1
 453 224 l 1
 432 183 391 127 316 127 c 0xa0
 241 127 205 195 163 195 c 0
 130 195 107 167 91 141 c 1
 35 170 l 1x60
47 349 m 1
 47 426 l 1
 441 426 l 1
 441 349 l 1
 47 349 l 1
EndSplineSet
EndChar
StartChar: uni2243
Encoding: 8771 8771 824
Width: 488
Flags: W
HStem: 146 77<47 441> 305 72<277.769 371.627> 373 72<116.373 210.231>
LayerCount: 2
Fore
SplineSet
35 348 m 1xa0
 56 389 97 445 172 445 c 0xa0
 247 445 283 377 325 377 c 0
 358 377 381 405 397 431 c 1
 453 402 l 1
 432 361 391 305 316 305 c 0xc0
 241 305 205 373 163 373 c 0
 130 373 107 345 91 319 c 1
 35 348 l 1xa0
47 146 m 1
 47 223 l 1
 441 223 l 1
 441 146 l 1
 47 146 l 1
EndSplineSet
EndChar
StartChar: uni2245
Encoding: 8773 8773 1948
Width: 488
Flags: W
HStem: 72 74<47 441> 236 74<47 441> 392 72<277.769 371.627> 460 72<116.373 210.231>
LayerCount: 2
Fore
SplineSet
35 435 m 1xd0
 56 476 97 532 172 532 c 0xd0
 247 532 283 464 325 464 c 0
 358 464 381 492 397 518 c 1
 453 489 l 1
 432 448 391 392 316 392 c 0xe0
 241 392 205 460 163 460 c 0
 130 460 107 432 91 406 c 1
 35 435 l 1xd0
47 72 m 1
 47 146 l 1
 441 146 l 1
 441 72 l 1
 47 72 l 1
47 236 m 1
 47 310 l 1
 441 310 l 1
 441 236 l 1
 47 236 l 1
EndSplineSet
EndChar
StartChar: uni2246
Encoding: 8774 8774 1954
Width: 500
Flags: W
HStem: -5 21G<141.242 188.268> 66 76<62 140 260 438> 242 76<62 240 360 438> 402 72<283.769 377.627> 470 72<122.373 216.231> 508 20G<395 441.621>
LayerCount: 2
Fore
SplineSet
41 445 m 1xe8
 62 486 103 542 178 542 c 0xe8
 253 542 289 474 331 474 c 0
 364 474 387 502 403 528 c 1
 459 499 l 1
 438 458 397 402 322 402 c 0xf4
 247 402 211 470 169 470 c 0
 136 470 113 442 97 416 c 1
 41 445 l 1xe8
62 66 m 1
 62 142 l 1
 183 142 l 1
 240 242 l 1
 62 242 l 1
 62 318 l 1
 283 318 l 1
 323 389 l 1
 382 356 l 1
 360 318 l 1
 438 318 l 1
 438 242 l 1
 317 242 l 1
 260 142 l 1
 438 142 l 1
 438 66 l 1
 217 66 l 1
 177 -5 l 1
 118 28 l 1
 140 66 l 1
 62 66 l 1
EndSplineSet
EndChar
StartChar: uni2247
Encoding: 8775 8775 1955
Width: 500
Flags: W
HStem: 66 76<62 138 237 438> 242 76<62 200 300 438> 470 72<122.373 215.862> 508 20G<397.5 441.621>
LayerCount: 2
Fore
SplineSet
41 445 m 1xe0
 62 486 103 542 178 542 c 0xe0
 228 542 260 512 289 492 c 1
 339 632 l 1
 403 609 l 1
 357 480 l 1
 376 490 392 510 403 528 c 1xd0
 459 499 l 1
 439 459 400 406 330 402 c 1
 300 318 l 1
 438 318 l 1
 438 242 l 1
 273 242 l 1
 237 142 l 1
 438 142 l 1
 438 66 l 1
 210 66 l 1
 161 -72 l 1
 97 -49 l 1
 138 66 l 1
 62 66 l 1
 62 142 l 1
 165 142 l 1
 200 242 l 1
 62 242 l 1
 62 318 l 1
 227 318 l 1
 263 417 l 1
 225 437 198 470 169 470 c 0
 136 470 113 442 97 416 c 1
 41 445 l 1xe0
EndSplineSet
EndChar
StartChar: uni2248
Encoding: 8776 8776 825
Width: 488
Flags: W
HStem: 115 72<277.769 371.627> 183 72<116.373 210.231> 305 72<277.769 371.627> 373 72<116.373 210.231>
LayerCount: 2
Fore
SplineSet
35 158 m 1x40
 56 199 97 255 172 255 c 0x40
 247 255 283 187 325 187 c 0
 358 187 381 215 397 241 c 1
 453 212 l 1
 432 171 391 115 316 115 c 0x80
 241 115 205 183 163 183 c 0
 130 183 107 155 91 129 c 1
 35 158 l 1x40
35 348 m 1
 56 389 97 445 172 445 c 0x10
 247 445 283 377 325 377 c 0
 358 377 381 405 397 431 c 1
 453 402 l 1
 432 361 391 305 316 305 c 0x20
 241 305 205 373 163 373 c 0x10
 130 373 107 345 91 319 c 1
 35 348 l 1
EndSplineSet
EndChar
StartChar: uni2249
Encoding: 8777 8777 1956
Width: 500
Flags: W
HStem: 114 72<284.729 377.627> 182 72<122.476 167> 306 72<333 377.524> 374 72<122.373 215.271>
LayerCount: 2
Fore
SplineSet
41 157 m 1x40
 62 198 103 254 178 254 c 0
 185 254 192 253 199 252 c 1
 238 336 l 1
 212 354 191 374 169 374 c 0
 136 374 113 346 97 320 c 1
 41 349 l 1
 62 390 103 446 178 446 c 0x50
 218 446 247 427 272 409 c 1
 337 550 l 1
 400 522 l 1
 333 378 l 1
 365 379 387 407 403 432 c 1
 459 403 l 1
 438 362 397 306 322 306 c 0
 315 306 308 307 301 308 c 1
 262 224 l 1
 288 206 309 186 331 186 c 0
 364 186 387 214 403 240 c 1
 459 211 l 1
 438 170 397 114 322 114 c 0xa0
 282 114 253 133 228 151 c 1
 163 10 l 1
 100 38 l 1
 167 182 l 1
 135 181 113 153 97 128 c 1
 41 157 l 1x40
EndSplineSet
EndChar
StartChar: uni224A
Encoding: 8778 8778 1949
Width: 488
Flags: W
HStem: 48 76<47 441> 194 72<262 374.5> 262 72<113.5 226> 372 72<277.769 371.627> 440 72<116.373 210.231>
LayerCount: 2
Fore
SplineSet
35 237 m 1xa0
 56 278 97 334 172 334 c 0xa0
 247 334 283 266 325 266 c 0
 358 266 381 294 397 320 c 1
 453 291 l 1
 432 250 391 194 316 194 c 0xc0
 241 194 205 262 163 262 c 0
 130 262 107 234 91 208 c 1
 35 237 l 1xa0
35 237 m 1
 56 278 97 334 172 334 c 0xa0
 247 334 283 266 325 266 c 0
 358 266 381 294 397 320 c 1
 453 291 l 1
 432 250 391 194 316 194 c 0xc0
 241 194 205 262 163 262 c 0
 130 262 107 234 91 208 c 1
 35 237 l 1
35 415 m 1
 56 456 97 512 172 512 c 0x88
 247 512 283 444 325 444 c 0
 358 444 381 472 397 498 c 1
 453 469 l 1
 432 428 391 372 316 372 c 0x90
 241 372 205 440 163 440 c 0x88
 130 440 107 412 91 386 c 1
 35 415 l 1
47 48 m 1
 47 124 l 1
 441 124 l 1
 441 48 l 1
 47 48 l 1
EndSplineSet
EndChar
StartChar: uni224B
Encoding: 8779 8779 1950
Width: 488
Flags: W
HStem: 32 72<277.769 371.627> 100 72<116.373 210.231> 210 72<277.769 371.627> 278 72<116.373 210.231> 388 72<277.769 371.627> 456 72<116.373 210.231>
LayerCount: 2
Fore
SplineSet
35 75 m 1x40
 56 116 97 172 172 172 c 0x40
 247 172 283 104 325 104 c 0
 358 104 381 132 397 158 c 1
 453 129 l 1
 432 88 391 32 316 32 c 0x80
 241 32 205 100 163 100 c 0
 130 100 107 72 91 46 c 1
 35 75 l 1x40
35 253 m 1
 56 294 97 350 172 350 c 0x10
 247 350 283 282 325 282 c 0
 358 282 381 310 397 336 c 1
 453 307 l 1
 432 266 391 210 316 210 c 0x20
 241 210 205 278 163 278 c 0x10
 130 278 107 250 91 224 c 1
 35 253 l 1
35 431 m 1
 56 472 97 528 172 528 c 0x04
 247 528 283 460 325 460 c 0
 358 460 381 488 397 514 c 1
 453 485 l 1
 432 444 391 388 316 388 c 0x08
 241 388 205 456 163 456 c 0x04
 130 456 107 428 91 402 c 1
 35 431 l 1
EndSplineSet
EndChar
StartChar: uni224C
Encoding: 8780 8780 1951
Width: 500
Flags: W
HStem: 66 76<62 438> 242 76<62 438> 402 72<122.373 216.231> 470 72<283.769 377.627> 508 20G<58.3793 105>
LayerCount: 2
Fore
SplineSet
41 499 m 1xe0
 97 528 l 1
 113 502 136 474 169 474 c 0xe8
 211 474 247 542 322 542 c 0
 397 542 438 486 459 445 c 1
 403 416 l 1
 387 442 364 470 331 470 c 0xd0
 289 470 253 402 178 402 c 0
 103 402 62 458 41 499 c 1xe0
62 66 m 1
 62 142 l 1
 438 142 l 1
 438 66 l 1
 62 66 l 1
62 242 m 1
 62 318 l 1
 438 318 l 1
 438 242 l 1
 62 242 l 1
EndSplineSet
EndChar
StartChar: uni2253
Encoding: 8787 8787 1940
Width: 500
Flags: W
HStem: -68 128<66.7473 161.253> 146 76<62 438> 338 76<62 438> 500 128<338.747 433.253>
VStem: 50 128<-51.2527 43.2527> 322 128<516.747 611.253>
LayerCount: 2
Fore
SplineSet
50 -4 m 0
 50 31 79 60 114 60 c 0
 149 60 178 31 178 -4 c 0
 178 -39 149 -68 114 -68 c 0
 79 -68 50 -39 50 -4 c 0
62 146 m 1
 62 222 l 1
 438 222 l 1
 438 146 l 1
 62 146 l 1
62 338 m 1
 62 414 l 1
 438 414 l 1
 438 338 l 1
 62 338 l 1
322 564 m 0
 322 599 351 628 386 628 c 0
 421 628 450 599 450 564 c 0
 450 529 421 500 386 500 c 0
 351 500 322 529 322 564 c 0
EndSplineSet
EndChar
StartChar: uni2254
Encoding: 8788 8788 826
Width: 692
Flags: W
HStem: 120 128<74.7473 169.253> 146 76<258 634> 312 128<74.7473 169.253> 338 76<258 634>
VStem: 58 128<136.747 231.253 328.747 423.253>
LayerCount: 2
Fore
SplineSet
58 184 m 0x88
 58 219 87 248 122 248 c 0
 157 248 186 219 186 184 c 0
 186 149 157 120 122 120 c 0
 87 120 58 149 58 184 c 0x88
58 376 m 0
 58 411 87 440 122 440 c 0
 157 440 186 411 186 376 c 0
 186 341 157 312 122 312 c 0x28
 87 312 58 341 58 376 c 0
258 146 m 1x48
 258 222 l 1
 634 222 l 1
 634 146 l 1
 258 146 l 1x48
258 338 m 1x18
 258 414 l 1
 634 414 l 1
 634 338 l 1
 258 338 l 1x18
EndSplineSet
EndChar
StartChar: uni2255
Encoding: 8789 8789 827
Width: 669
Flags: W
HStem: 127 111<509.538 597.387> 145 77<62 438> 320 111<509.538 597.387> 338 77<62 438>
VStem: 498 111<138.922 226.153 331.922 419.153>
LayerCount: 2
Fore
SplineSet
553 238 m 0x88
 585 238 609 213 609 183 c 0
 609 152 585 127 553 127 c 0
 522 127 498 152 498 183 c 0
 498 213 522 238 553 238 c 0x88
553 431 m 0x28
 585 431 609 406 609 376 c 0
 609 345 585 320 553 320 c 0
 522 320 498 345 498 376 c 0
 498 406 522 431 553 431 c 0x28
62 338 m 1x18
 62 415 l 1
 438 415 l 1
 438 338 l 1
 62 338 l 1x18
62 145 m 1x48
 62 222 l 1
 438 222 l 1
 438 145 l 1
 62 145 l 1x48
EndSplineSet
EndChar
StartChar: uni2260
Encoding: 8800 8800 828
Width: 500
Flags: W
HStem: 145 77<62 133 255 438> 338 77<62 245 367 438>
LayerCount: 2
Fore
SplineSet
62 145 m 1
 62 222 l 1
 178 222 l 1
 245 338 l 1
 62 338 l 1
 62 415 l 1
 289 415 l 1
 365 546 l 1
 423 512 l 1
 367 415 l 1
 438 415 l 1
 438 338 l 1
 322 338 l 1
 255 222 l 1
 438 222 l 1
 438 145 l 1
 211 145 l 1
 135 14 l 1
 77 48 l 1
 133 145 l 1
 62 145 l 1
EndSplineSet
EndChar
StartChar: uni2261
Encoding: 8801 8801 829
Width: 500
Flags: W
HStem: 54 72<56 444> 244 72<56 444> 434 72<56 444>
CounterMasks: 1 e0
LayerCount: 2
Fore
SplineSet
56 54 m 1
 56 126 l 1
 444 126 l 1
 444 54 l 1
 56 54 l 1
56 244 m 1
 56 316 l 1
 444 316 l 1
 444 244 l 1
 56 244 l 1
56 434 m 1
 56 506 l 1
 444 506 l 1
 444 434 l 1
 56 434 l 1
EndSplineSet
EndChar
StartChar: uni2262
Encoding: 8802 8802 1944
Width: 500
Flags: W
HStem: 54 72<56 109 213 444> 244 72<56 198 302 444> 434 72<56 287 391 444>
CounterMasks: 1 e0
LayerCount: 2
Fore
SplineSet
56 54 m 1
 56 126 l 1
 143 126 l 1
 198 244 l 1
 56 244 l 1
 56 316 l 1
 232 316 l 1
 287 434 l 1
 56 434 l 1
 56 506 l 1
 320 506 l 1
 382 638 l 1
 440 611 l 1
 391 506 l 1
 444 506 l 1
 444 434 l 1
 357 434 l 1
 302 316 l 1
 444 316 l 1
 444 244 l 1
 268 244 l 1
 213 126 l 1
 444 126 l 1
 444 54 l 1
 180 54 l 1
 118 -78 l 1
 60 -51 l 1
 109 54 l 1
 56 54 l 1
EndSplineSet
EndChar
StartChar: uni2263
Encoding: 8803 8803 1945
Width: 500
Flags: W
HStem: 8 72<56 444> 166 72<56 444> 322 72<56 444> 480 72<56 444>
VStem: 56 388<8 80 166 238 322 394 480 552>
LayerCount: 2
Fore
SplineSet
56 8 m 1
 56 80 l 1
 444 80 l 1
 444 8 l 1
 56 8 l 1
56 166 m 1
 56 238 l 1
 444 238 l 1
 444 166 l 1
 56 166 l 1
56 322 m 1
 56 394 l 1
 444 394 l 1
 444 322 l 1
 56 322 l 1
56 480 m 1
 56 552 l 1
 444 552 l 1
 444 480 l 1
 56 480 l 1
EndSplineSet
EndChar
StartChar: uni2264
Encoding: 8804 8804 809
Width: 500
Flags: W
HStem: 0 77<62 438 62 438>
VStem: 50 73<363 363 363 410 363 410>
LayerCount: 2
Fore
SplineSet
417 581 m 1
 450 505 l 1
 123 363 l 1
 450 219 l 1
 417 145 l 1
 50 316 l 1
 50 410 l 1
 417 581 l 1
62 0 m 1
 62 77 l 1
 438 77 l 1
 438 0 l 1
 62 0 l 1
EndSplineSet
EndChar
StartChar: uni2265
Encoding: 8805 8805 828
Width: 500
Flags: W
HStem: 0 77<62 438 62 438>
VStem: 377 73<363 363>
LayerCount: 2
Fore
SplineSet
83 581 m 1
 450 410 l 1
 450 316 l 1
 83 145 l 1
 50 219 l 1
 377 363 l 1
 50 505 l 1
 83 581 l 1
62 0 m 1
 62 77 l 1
 438 77 l 1
 438 0 l 1
 62 0 l 1
EndSplineSet
EndChar
StartChar: uni2266
Encoding: 8806 8806 1958
Width: 500
Flags: W
HStem: -80 76<62 438> 80 76<62 438>
LayerCount: 2
Fore
SplineSet
50 391 m 1
 50 485 l 1
 417 656 l 1
 450 580 l 1
 123 438 l 1
 450 294 l 1
 417 220 l 1
 50 391 l 1
62 -4 m 1
 438 -4 l 1
 438 -80 l 1
 62 -80 l 1
 62 -4 l 1
62 80 m 1
 62 156 l 1
 438 156 l 1
 438 80 l 1
 62 80 l 1
EndSplineSet
EndChar
StartChar: uni2269
Encoding: 8809 8809 1961
Width: 500
Flags: W
HStem: -80 76<62 140 266 438> 80 76<62 234 360 438>
LayerCount: 2
Fore
SplineSet
50 294 m 1
 377 438 l 1
 50 580 l 1
 83 656 l 1
 450 485 l 1
 450 391 l 1
 83 220 l 1
 50 294 l 1
62 -4 m 1
 185 -4 l 1
 234 80 l 1
 62 80 l 1
 62 156 l 1
 279 156 l 1
 326 235 l 1
 386 200 l 1
 360 156 l 1
 438 156 l 1
 438 80 l 1
 315 80 l 1
 266 -4 l 1
 438 -4 l 1
 438 -80 l 1
 221 -80 l 1
 174 -159 l 1
 114 -124 l 1
 140 -80 l 1
 62 -80 l 1
 62 -4 l 1
EndSplineSet
EndChar
StartChar: uni226A
Encoding: 8810 8810 1962
Width: 800
Flags: W
LayerCount: 2
Fore
SplineSet
50 233 m 1
 50 327 l 1
 417 498 l 1
 450 422 l 1
 123 280 l 1
 450 136 l 1
 417 62 l 1
 50 233 l 1
350 233 m 1
 350 327 l 1
 717 498 l 1
 750 422 l 1
 423 280 l 1
 750 136 l 1
 717 62 l 1
 350 233 l 1
EndSplineSet
EndChar
StartChar: uni226F
Encoding: 8815 8815 1965
Width: 500
Flags: W
HStem: -8 21G<135.818 200.986> 516 20G<306.96 372.182>
LayerCount: 2
Fore
SplineSet
50 136 m 1
 196 200 l 1
 244 338 l 1
 50 422 l 1
 83 498 l 1
 270 411 l 1
 314 536 l 1
 378 514 l 1
 332 382 l 1
 450 327 l 1
 450 233 l 1
 245 138 l 1
 194 -8 l 1
 130 14 l 1
 159 98 l 1
 83 62 l 1
 50 136 l 1
281 238 m 1
 377 280 l 1
 306 311 l 1
 281 238 l 1
EndSplineSet
EndChar
StartChar: uni2271
Encoding: 8817 8817 1967
Width: 500
Flags: W
HStem: -0 76<62 125 218 438>
LayerCount: 2
Fore
SplineSet
50 219 m 1
 212 290 l 1
 251 418 l 1
 50 505 l 1
 83 581 l 1
 273 492 l 1
 318 642 l 1
 382 623 l 1
 334 464 l 1
 450 410 l 1
 450 316 l 1
 264 229 l 1
 218 76 l 1
 438 76 l 1
 438 0 l 1
 195 -0 l 1
 170 -82 l 1
 106 -63 l 1
 125 0 l 1
 62 0 l 1
 62 76 l 1
 148 76 l 1
 182 191 l 1
 83 145 l 1
 50 219 l 1
293 326 m 1
 377 363 l 1
 312 391 l 1
 293 326 l 1
EndSplineSet
EndChar
StartChar: uni2273
Encoding: 8819 8819 1969
Width: 500
Flags: W
HStem: -22 72<283.769 377.627> -8 21G<58.3793 105> 46 72<122.373 216.231>
LayerCount: 2
Fore
SplineSet
41 21 m 1x60
 62 62 103 118 178 118 c 0x60
 253 118 289 50 331 50 c 0
 364 50 387 78 403 104 c 1
 459 75 l 1
 438 34 397 -22 322 -22 c 0x80
 247 -22 211 46 169 46 c 0
 136 46 113 18 97 -8 c 1
 41 21 l 1x60
50 219 m 1
 377 363 l 1
 50 505 l 1
 83 581 l 1
 450 410 l 1
 450 316 l 1
 83 145 l 1
 50 219 l 1
EndSplineSet
EndChar
StartChar: uni2276
Encoding: 8822 8822 1972
Width: 500
Flags: W
LayerCount: 2
Fore
SplineSet
50 -46 m 1
 377 98 l 1
 50 240 l 1
 83 316 l 1
 450 145 l 1
 450 51 l 1
 83 -120 l 1
 50 -46 l 1
50 415 m 1
 50 509 l 1
 417 680 l 1
 450 604 l 1
 123 462 l 1
 450 318 l 1
 417 244 l 1
 50 415 l 1
EndSplineSet
EndChar
StartChar: uni227A
Encoding: 8826 8826 1986
Width: 500
Flags: W
LayerCount: 2
Fore
SplineSet
26 230 m 1
 26 330 l 1
 189 354 324 414 422 518 c 1
 474 466 l 1
 380 358 258 306 124 280 c 1
 258 254 380 202 474 94 c 1
 422 42 l 1
 324 146 189 206 26 230 c 1
EndSplineSet
EndChar
StartChar: uni227D
Encoding: 8829 8829 1989
Width: 500
Flags: W
HStem: 179 65<388.498 460.615>
LayerCount: 2
Fore
SplineSet
22 176 m 1
 116 284 238 336 372 362 c 1
 238 388 116 440 22 548 c 1
 74 600 l 1
 172 496 307 436 470 412 c 1
 470 312 l 1
 307 288 172 228 74 124 c 1
 22 176 l 1
62 -2 m 1
 131 110 263 220 459 244 c 1
 474 179 l 1
 288 145 188 76 121 -40 c 1
 62 -2 l 1
EndSplineSet
EndChar
StartChar: uni2281
Encoding: 8833 8833 1969
Width: 500
Flags: W
HStem: -5 21G<136 207.93> 300 69<314 374.027>
LayerCount: 2
Fore
SplineSet
26 94 m 1
 76 152 135 194 199 224 c 1
 228 323 l 1
 152 354 84 399 26 466 c 1
 78 518 l 1
 127 466 184 426 250 395 c 1
 295 545 l 1
 361 526 l 1
 314 369 l 1
 364 352 417 338 474 330 c 1
 474 230 l 1
 393 218 319 198 253 167 c 1
 202 -5 l 1
 136 14 l 1
 167 118 l 1
 135 96 105 71 78 42 c 1
 26 94 l 1
280 256 m 1
 311 266 343 274 376 280 c 1
 348 285 320 292 293 300 c 1
 280 256 l 1
EndSplineSet
EndChar
StartChar: uni2282
Encoding: 8834 8834 811
Width: 652
VWidth: 1116
Flags: W
HStem: 24 72<223.952 592> 464 72<223.952 592>
VStem: 60 72<190.965 369.035>
LayerCount: 2
Fore
SplineSet
60 280 m 4
 60 426 162 536 306 536 c 6
 592 536 l 5
 592 464 l 5
 306 464 l 6
 200 464 132 374 132 280 c 4
 132 186 200 96 306 96 c 6
 592 96 l 5
 592 24 l 5
 306 24 l 6
 162 24 60 134 60 280 c 4
EndSplineSet
EndChar
StartChar: uni2284
Encoding: 8836 8836 1904
Width: 652
VWidth: 1116
Flags: W
HStem: 24 72<304.453 592> 464 72<223.952 396 499 592>
VStem: 60 72<191.494 369.035>
LayerCount: 2
Fore
SplineSet
60 280 m 0
 60 426 162 536 306 536 c 2
 428 536 l 1
 475 642 l 1
 534 614 l 1
 499 536 l 1
 592 536 l 1
 592 464 l 1
 467 464 l 1
 304 96 l 2
 305 96 305 96 306 96 c 2
 592 96 l 1
 592 24 l 1
 306 24 l 2
 295 24 284 25 273 26 c 1
 225 -82 l 1
 166 -54 l 1
 209 43 l 1
 118 80 60 170 60 280 c 0
239 110 m 1
 396 464 l 1
 306 464 l 2
 200 464 132 374 132 280 c 0
 132 208 172 139 239 110 c 1
EndSplineSet
EndChar
StartChar: uni2285
Encoding: 8837 8837 1905
Width: 652
VWidth: 1116
Flags: W
HStem: 24 72<60 154 257 428.048> 464 72<60 348.795>
VStem: 520 72<190.965 368.506>
LayerCount: 2
Fore
SplineSet
60 24 m 1
 60 96 l 1
 186 96 l 1
 349 464 l 2
 348 464 347 464 346 464 c 2
 60 464 l 1
 60 536 l 1
 346 536 l 2
 358 536 369 535 380 534 c 1
 428 642 l 1
 487 614 l 1
 444 517 l 1
 534 480 592 390 592 280 c 0
 592 134 490 24 346 24 c 2
 225 24 l 1
 178 -82 l 1
 119 -54 l 1
 154 24 l 1
 60 24 l 1
414 450 m 1
 257 96 l 1
 346 96 l 2
 452 96 520 186 520 280 c 0
 520 352 480 421 414 450 c 1
EndSplineSet
EndChar
StartChar: uni2288
Encoding: 8840 8840 1906
Width: 652
VWidth: 1198
Flags: W
HStem: 106 72<224.049 253> 546 72<223.952 306>
VStem: 60 72<273.411 451.035>
LayerCount: 2
Fore
SplineSet
160 -144 m 1
 223 -166 l 1
 262 -58 l 1
 592 -58 l 1
 592 14 l 1
 288 14 l 1
 322 106 l 1
 592 106 l 1
 592 178 l 1
 348 178 l 1
 482 546 l 1
 592 546 l 1
 592 618 l 1
 508 618 l 1
 539 704 l 1
 476 726 l 1
 437 618 l 1
 306 618 l 2
 162 618 60 508 60 362 c 0
 60 235 138 135 253 111 c 1
 217 14 l 1
 70 14 l 1
 70 -58 l 1
 191 -58 l 1
 160 -144 l 1
411 546 m 1
 278 180 l 1
 188 194 132 277 132 362 c 0
 132 456 200 546 306 546 c 2
 411 546 l 1
EndSplineSet
EndChar
StartChar: uni228B
Encoding: 8843 8843 1909
Width: 652
VWidth: 1198
Flags: W
HStem: -58 72<60 267 375 582> 106 72<60 428.048> 546 72<60 428.048>
VStem: 520 72<272.965 451.035>
LayerCount: 2
Fore
SplineSet
60 106 m 1
 60 178 l 1
 346 178 l 2
 452 178 520 268 520 362 c 0
 520 456 452 546 346 546 c 2
 60 546 l 1
 60 618 l 1
 346 618 l 2
 490 618 592 508 592 362 c 0
 592 216 490 106 346 106 c 2
 60 106 l 1
375 14 m 1
 582 14 l 1
 582 -58 l 1
 334 -58 l 1
 289 -136 l 1
 239 -107 l 1
 267 -58 l 1
 60 -58 l 1
 60 14 l 1
 308 14 l 1
 353 92 l 1
 403 63 l 1
 375 14 l 1
EndSplineSet
EndChar
StartChar: uni228D
Encoding: 8845 8845 816
Width: 576
Flags: HW
HStem: 14 72<211.016 364.984> 242 139<237.729 339.157>
VStem: 62 72<163.813 240> 219 139<261.206 361.908> 442 72<163.813 240>
LayerCount: 2
Fore
SplineSet
288 381 m 0
 328 381 358 350 358 312 c 0
 358 273 328 242 288 242 c 0
 249 242 219 273 219 312 c 0
 219 350 249 381 288 381 c 0
288 14 m 0
 413 14 514 114 514 240 c 2
 514 546 l 1
 442 546 l 1
 442 240 l 2
 442 156 372 86 288 86 c 0
 204 86 134 156 134 240 c 2
 134 546 l 1
 62 546 l 1
 62 240 l 2
 62 114 163 14 288 14 c 0
EndSplineSet
EndChar
StartChar: uni228E
Encoding: 8846 8846 838
Width: 576
Flags: W
HStem: 14 72<211.016 364.984> 284 56<168 257 319 408>
VStem: 62 72<163.813 240> 257 62<192 284 340 432> 442 72<163.813 240>
CounterMasks: 1 38
LayerCount: 2
Fore
SplineSet
319 432 m 1
 319 340 l 1
 408 340 l 1
 408 284 l 1
 319 284 l 1
 319 192 l 1
 257 192 l 1
 257 284 l 1
 168 284 l 1
 168 340 l 1
 257 340 l 1
 257 432 l 1
 319 432 l 1
288 14 m 0
 413 14 514 114 514 240 c 2
 514 546 l 1
 442 546 l 1
 442 240 l 2
 442 156 372 86 288 86 c 0
 204 86 134 156 134 240 c 2
 134 546 l 1
 62 546 l 1
 62 240 l 2
 62 114 163 14 288 14 c 0
EndSplineSet
EndChar
StartChar: uni228F
Encoding: 8847 8847 1511
Width: 652
VWidth: 1116
Flags: W
HStem: 24 72<132 592> 464 72<132 592>
VStem: 60 72<96 464>
LayerCount: 2
Fore
SplineSet
60 536 m 25
 592 536 l 1
 592 464 l 1
 132 464 l 9
 132 96 l 25
 592 96 l 1
 592 24 l 1
 60 24 l 25
 60 536 l 25
EndSplineSet
EndChar
StartChar: uni2290
Encoding: 8848 8848 1512
Width: 652
VWidth: 1116
Flags: W
LayerCount: 2
Fore
SplineSet
592 536 m 29
 60 536 l 5
 60 464 l 5
 520 464 l 13
 520 96 l 29
 60 96 l 5
 60 24 l 5
 592 24 l 29
 592 536 l 29
EndSplineSet
EndChar
StartChar: uni2291
Encoding: 8849 8849 1513
Width: 652
VWidth: 1198
Flags: W
HStem: -58 72<60 592> 106 72<132 592> 546 72<132 592>
VStem: 60 72<178 546>
LayerCount: 2
Fore
SplineSet
60 618 m 25
 592 618 l 1
 592 546 l 1
 132 546 l 9
 132 178 l 25
 592 178 l 1
 592 106 l 1
 60 106 l 25
 60 618 l 25
60 14 m 1
 592 14 l 5
 592 -58 l 5
 60 -58 l 1
 60 14 l 1
EndSplineSet
EndChar
StartChar: uni2292
Encoding: 8850 8850 821
Width: 652
VWidth: 1198
Flags: W
LayerCount: 2
Fore
SplineSet
592 618 m 25
 60 618 l 1
 60 546 l 1
 520 546 l 9
 520 178 l 25
 60 178 l 1
 60 106 l 1
 592 106 l 25
 592 618 l 25
592 14 m 1
 60 14 l 1
 60 -58 l 1
 592 -58 l 1
 592 14 l 1
EndSplineSet
EndChar
StartChar: uni2293
Encoding: 8851 8851 822
Width: 576
Flags: HW
HStem: 474 72<134 442>
VStem: 62 72<14 474> 442 72<14 474>
LayerCount: 2
Fore
SplineSet
514 546 m 29
 514 14 l 5
 442 14 l 5
 442 474 l 13
 134 474 l 29
 134 14 l 5
 62 14 l 5
 62 546 l 29
 514 546 l 29
EndSplineSet
EndChar
StartChar: uni2294
Encoding: 8852 8852 844
Width: 576
Flags: W
LayerCount: 2
Fore
SplineSet
514 14 m 25
 514 546 l 1
 442 546 l 1
 442 86 l 9
 134 86 l 25
 134 546 l 1
 62 546 l 1
 62 14 l 25
 514 14 l 25
EndSplineSet
EndChar
StartChar: uni2295
Encoding: 8853 8853 824
Width: 600
Flags: W
LayerCount: 2
Fore
SplineSet
45 280 m 4
 45 139 159 25 300 25 c 0
 441 25 555 139 555 280 c 0
 555 421 441 535 300 535 c 0
 159 535 45 421 45 280 c 4
119 242 m 1
 258 242 l 1
 258 100 l 1
 188 116 134 172 119 242 c 1
342 100 m 1
 342 242 l 1
 481 242 l 1
 466 172 412 116 342 100 c 1
481 318 m 1
 342 318 l 1
 342 460 l 1
 412 444 466 388 481 318 c 1
258 460 m 1
 258 318 l 1
 119 318 l 1
 134 388 188 444 258 460 c 1
EndSplineSet
EndChar
StartChar: uni2296
Encoding: 8854 8854 843
Width: 600
Flags: W
HStem: 25 70<216.675 383.325> 465 70<216.675 383.325>
LayerCount: 2
Fore
SplineSet
45 280 m 0
 45 139 159 25 300 25 c 0
 441 25 555 139 555 280 c 0
 555 421 441 535 300 535 c 0
 159 535 45 421 45 280 c 0
119 242 m 1
 481 242 l 1
 463 158 389 95 300 95 c 0
 211 95 137 158 119 242 c 1
481 318 m 1
 119 318 l 1
 137 402 211 465 300 465 c 0
 389 465 463 402 481 318 c 1
EndSplineSet
EndChar
StartChar: uni2297
Encoding: 8855 8855 847
Width: 600
Flags: W
HStem: 25 70<212.39 387.61> 465 70<212.39 387.61>
VStem: 45 70<192.39 367.61> 485 70<192.39 367.61>
LayerCount: 2
Fore
SplineSet
45 280 m 0
 45 139 159 25 300 25 c 0
 441 25 555 139 555 280 c 0
 555 421 441 535 300 535 c 0
 159 535 45 421 45 280 c 0
144 180 m 1
 125 209 115 243 115 280 c 0
 115 317 125 351 144 380 c 1
 244 280 l 1
 144 180 l 1
200 124 m 1
 300 224 l 1
 400 124 l 1
 371 105 337 95 300 95 c 0
 263 95 229 105 200 124 c 1
456 180 m 1
 356 280 l 1
 456 380 l 1
 475 351 485 317 485 280 c 0
 485 243 475 209 456 180 c 1
400 436 m 1
 300 336 l 1
 200 436 l 1
 229 455 263 465 300 465 c 0
 337 465 371 455 400 436 c 1
EndSplineSet
EndChar
StartChar: uni2298
Encoding: 8856 8856 785
Width: 600
Flags: W
HStem: 25 70<248.179 382.998> 465 70<217.002 351.821>
VStem: 45 70<196.283 362.998> 485 70<197.002 363.717>
LayerCount: 2
Fore
SplineSet
115 280 m 0
 115 382 198 465 300 465 c 0
 318 465 336 462 353 457 c 1
 188 133 l 1
 144 167 115 220 115 280 c 0
45 280 m 0
 45 139 159 25 300 25 c 0
 441 25 555 139 555 280 c 0
 555 421 441 535 300 535 c 0
 159 535 45 421 45 280 c 0
412 427 m 1
 456 393 485 340 485 280 c 0
 485 178 402 95 300 95 c 0
 282 95 264 98 247 103 c 1
 412 427 l 1
EndSplineSet
EndChar
StartChar: uni22CD
Encoding: 8909 8909 1910
Width: 500
Flags: W
HStem: 185 77<53 447> 350 73<117.806 217.551> 412 72<281.248 377.627>
LayerCount: 2
Fore
SplineSet
41 441 m 1xc0
 96 471 l 1
 112 445 136 423 166 423 c 0xc0
 211 423 248 484 322 484 c 0
 397 484 438 428 459 387 c 1
 403 358 l 1
 387 384 364 412 331 412 c 0xa0
 289 412 252 350 175 350 c 0
 102 350 62 400 41 441 c 1xc0
53 185 m 1
 53 262 l 1
 447 262 l 1
 447 185 l 1
 53 185 l 1
EndSplineSet
EndChar
StartChar: uni22D6
Encoding: 8918 8918 1954
Width: 500
Flags: W
HStem: 224 112<357.922 446.078>
VStem: 346 112<235.922 324.078>
LayerCount: 2
Fore
SplineSet
50 233 m 1
 50 327 l 1
 417 498 l 1
 450 422 l 1
 123 280 l 1
 450 136 l 1
 417 62 l 1
 50 233 l 1
346 280 m 0
 346 311 371 336 402 336 c 0
 433 336 458 311 458 280 c 0
 458 249 433 224 402 224 c 0
 371 224 346 249 346 280 c 0
EndSplineSet
EndChar
StartChar: uni22D7
Encoding: 8919 8919 1955
Width: 500
Flags: W
HStem: 224 112<53.9218 142.078>
VStem: 42 112<235.922 324.078>
LayerCount: 2
Fore
SplineSet
42 280 m 0
 42 311 67 336 98 336 c 0
 129 336 154 311 154 280 c 0
 154 249 129 224 98 224 c 0
 67 224 42 249 42 280 c 0
50 136 m 1
 377 280 l 1
 50 422 l 1
 83 498 l 1
 450 327 l 1
 450 233 l 1
 83 62 l 1
 50 136 l 1
EndSplineSet
EndChar
StartChar: uni22D8
Encoding: 8920 8920 1976
Width: 1100
Flags: W
LayerCount: 2
Fore
SplineSet
50 233 m 1
 50 327 l 1
 417 498 l 1
 450 422 l 1
 123 280 l 1
 450 136 l 1
 417 62 l 1
 50 233 l 1
350 233 m 1
 350 327 l 1
 717 498 l 1
 750 422 l 1
 423 280 l 1
 750 136 l 1
 717 62 l 1
 350 233 l 1
650 233 m 1
 650 327 l 1
 1017 498 l 1
 1050 422 l 1
 723 280 l 1
 1050 136 l 1
 1017 62 l 1
 650 233 l 1
EndSplineSet
EndChar
StartChar: uni22D9
Encoding: 8921 8921 1977
Width: 1100
Flags: W
LayerCount: 2
Fore
SplineSet
50 136 m 1
 377 280 l 1
 50 422 l 1
 83 498 l 1
 450 327 l 1
 450 233 l 1
 83 62 l 1
 50 136 l 1
350 136 m 1
 677 280 l 1
 350 422 l 1
 383 498 l 1
 750 327 l 1
 750 233 l 1
 383 62 l 1
 350 136 l 1
650 136 m 1
 977 280 l 1
 650 422 l 1
 683 498 l 1
 1050 327 l 1
 1050 233 l 1
 683 62 l 1
 650 136 l 1
EndSplineSet
EndChar
StartChar: uni22DA
Encoding: 8922 8922 1956
Width: 500
Flags: W
HStem: 242 76<62 438>
LayerCount: 2
Fore
SplineSet
50 120 m 1
 83 194 l 1
 450 23 l 1
 450 -71 l 1
 83 -242 l 1
 50 -166 l 1
 377 -24 l 1
 50 120 l 1
50 537 m 1
 50 631 l 1
 417 802 l 1
 450 726 l 1
 123 584 l 1
 450 440 l 1
 417 366 l 1
 50 537 l 1
62 242 m 1
 62 318 l 1
 438 318 l 1
 438 242 l 1
 62 242 l 1
EndSplineSet
EndChar
StartChar: uni22DB
Encoding: 8923 8923 1957
Width: 500
Flags: W
HStem: 242 76<62 438>
LayerCount: 2
Fore
SplineSet
50 23 m 1
 417 194 l 1
 450 120 l 1
 123 -24 l 1
 450 -166 l 1
 417 -242 l 1
 50 -71 l 1
 50 23 l 1
50 440 m 1
 377 584 l 1
 50 726 l 1
 83 802 l 1
 450 631 l 1
 450 537 l 1
 83 366 l 1
 50 440 l 1
62 242 m 1
 62 318 l 1
 438 318 l 1
 438 242 l 1
 62 242 l 1
EndSplineSet
EndChar
StartChar: uni22DD
Encoding: 8925 8925 1983
Width: 500
Flags: W
HStem: 0 21G<74.3158 125.924> 505 76<62 438>
LayerCount: 2
Fore
SplineSet
50 76 m 1
 377 218 l 1
 50 362 l 1
 83 436 l 1
 450 265 l 1
 450 171 l 1
 83 0 l 1
 50 76 l 1
62 505 m 1
 62 581 l 1
 438 581 l 1
 438 505 l 1
 62 505 l 1
EndSplineSet
EndChar
StartChar: uni22DE
Encoding: 8926 8926 1994
Width: 500
Flags: W
HStem: 312 65<35.3846 107.502>
LayerCount: 2
Fore
SplineSet
22 377 m 1
 208 411 308 480 375 596 c 1
 434 558 l 1
 365 446 233 336 37 312 c 1
 22 377 l 1
26 144 m 1
 26 244 l 1
 189 268 324 328 422 432 c 1
 474 380 l 1
 380 272 258 220 124 194 c 1
 258 168 380 116 474 8 c 1
 422 -44 l 1
 324 60 189 120 26 144 c 1
EndSplineSet
EndChar
StartChar: uni22DF
Encoding: 8927 8927 1995
Width: 500
Flags: W
HStem: 312 65<388.498 460.615>
LayerCount: 2
Fore
SplineSet
22 8 m 1
 116 116 238 168 372 194 c 1
 238 220 116 272 22 380 c 1
 74 432 l 1
 172 328 307 268 470 244 c 1
 470 144 l 1
 307 120 172 60 74 -44 c 1
 22 8 l 1
62 558 m 1
 121 596 l 1
 188 480 288 411 474 377 c 1
 459 312 l 1
 263 336 131 446 62 558 c 1
EndSplineSet
EndChar
StartChar: uni22E0
Encoding: 8928 8928 1996
Width: 500
Flags: W
HStem: 179 65<35.3846 115.164> 265 72<143.207 208>
LayerCount: 2
Fore
SplineSet
22 179 m 1
 37 244 l 1
 95 237 148 222 195 202 c 1
 208 265 l 1
 152 287 92 302 26 312 c 1
 26 412 l 1
 109 424 185 446 252 478 c 1
 290 660 l 1
 356 647 l 1
 330 522 l 1
 363 545 394 571 422 600 c 1
 474 548 l 1
 426 493 371 452 310 422 c 1
 287 313 l 1
 357 282 420 238 474 176 c 1
 422 124 l 1
 379 170 328 208 271 237 c 1
 258 170 l 1
 337 123 395 61 434 -2 c 1
 375 -40 l 1
 341 18 300 64 243 100 c 1
 210 -60 l 1
 144 -47 l 1
 181 133 l 1
 136 153 84 168 22 179 c 1
124 362 m 1
 158 355 191 347 223 337 c 1
 234 391 l 1
 198 379 162 369 124 362 c 1
EndSplineSet
EndChar
StartChar: uni22E2
Encoding: 8930 8930 1910
Width: 652
VWidth: 1198
Flags: W
HStem: -58 72<60 171 268 592> 106 72<132 231 328 592> 546 72<132 391 488 592>
VStem: 60 72<178 546>
LayerCount: 2
Fore
SplineSet
60 14 m 1
 197 14 l 1
 231 106 l 1
 60 106 l 1
 60 618 l 1
 417 618 l 1
 456 726 l 1
 519 704 l 1
 488 618 l 1
 592 618 l 1
 592 546 l 1
 462 546 l 1
 328 178 l 1
 592 178 l 1
 592 106 l 1
 302 106 l 1
 268 14 l 1
 592 14 l 1
 592 -58 l 1
 242 -58 l 1
 203 -166 l 1
 140 -144 l 1
 171 -58 l 1
 60 -58 l 1
 60 14 l 1
132 178 m 1
 257 178 l 1
 391 546 l 1
 132 546 l 1
 132 178 l 1
EndSplineSet
EndChar
StartChar: uni22E5
Encoding: 8933 8933 1913
Width: 652
VWidth: 1198
Flags: W
HStem: -58 72<60 272 380 592> 106 72<60 520> 546 72<60 520>
VStem: 520 72<178 546>
LayerCount: 2
Fore
SplineSet
60 14 m 1
 313 14 l 1
 358 92 l 1
 408 63 l 1
 380 14 l 1
 592 14 l 1
 592 -58 l 1
 339 -58 l 1
 294 -136 l 1
 244 -107 l 1
 272 -58 l 1
 60 -58 l 1
 60 14 l 1
60 106 m 1
 60 178 l 1
 520 178 l 1
 520 546 l 1
 60 546 l 1
 60 618 l 1
 592 618 l 1
 592 106 l 1
 60 106 l 1
EndSplineSet
EndChar
StartChar: uni22E9
Encoding: 8937 8937 1975
Width: 500
Flags: W
HStem: -26 72<295.541 377.627> -12 21G<58.3793 105> 42 72<122.373 204.459> 317 100<353.202 450>
LayerCount: 2
Fore
SplineSet
41 17 m 1x70
 62 58 103 114 178 114 c 0x70
 204 114 226 106 244 95 c 1
 280 159 l 1
 334 128 l 1
 295 60 l 1
 307 52 319 46 331 46 c 0
 364 46 387 74 403 100 c 1
 459 71 l 1
 438 30 397 -26 322 -26 c 0x90
 296 -26 274 -18 256 -7 c 1
 220 -71 l 1
 166 -40 l 1
 205 28 l 1
 193 36 181 42 169 42 c 0
 136 42 113 14 97 -12 c 1
 41 17 l 1x70
50 181 m 1
 144 289 218 341 352 367 c 1
 218 393 144 445 50 553 c 1
 100 607 l 1
 191 499 290 431 450 417 c 1
 450 317 l 1
 290 303 191 235 100 127 c 1
 50 181 l 1
EndSplineSet
EndChar
StartChar: uni22EF
Encoding: 8943 8943 830
Width: 738
VWidth: 1222
Flags: W
HStem: 210 139<68.7292 170.157 317.729 419.157 566.729 668.157>
VStem: 50 139<229.206 329.908> 299 139<229.206 329.908> 548 139<229.206 329.908>
CounterMasks: 1 70
LayerCount: 2
Fore
SplineSet
119 349 m 0
 159 349 189 318 189 280 c 0
 189 241 159 210 119 210 c 0
 80 210 50 241 50 280 c 0
 50 318 80 349 119 349 c 0
368 349 m 0
 408 349 438 318 438 280 c 0
 438 241 408 210 368 210 c 0
 329 210 299 241 299 280 c 0
 299 318 329 349 368 349 c 0
617 349 m 0
 657 349 687 318 687 280 c 0
 687 241 657 210 617 210 c 0
 578 210 548 241 548 280 c 0
 548 318 578 349 617 349 c 0
EndSplineSet
EndChar
StartChar: uni2302
Encoding: 8962 8962 831
Width: 600
Flags: W
HStem: 0 65<110 490 110 560> 519 20G<299 299>
VStem: 40 70<65 277 65 308 65 308> 490 70<65 277 277 277>
LayerCount: 2
Fore
SplineSet
299 539 m 1
 560 308 l 1
 560 0 l 1
 40 0 l 1
 40 308 l 1
 299 539 l 1
299 448 m 1
 110 277 l 1
 110 65 l 1
 490 65 l 1
 490 277 l 1
 299 448 l 1
EndSplineSet
EndChar
StartChar: uni2308
Encoding: 8968 8968 789
Width: 322
Flags: HW
HStem: 669 77<152 272>
VStem: 65 87<-186 669>
LayerCount: 2
Fore
SplineSet
272 746 m 1
 272 669 l 1
 152 669 l 1
 152 669 152 -186 152 -186 c 1
 65 -186 l 5
 65 746 l 1
 272 746 l 1
EndSplineSet
EndChar
StartChar: uni2309
Encoding: 8969 8969 790
Width: 322
Flags: HW
HStem: 669 77<50 170>
VStem: 170 87<-186 669>
LayerCount: 2
Fore
SplineSet
257 746 m 1
 257 -186 l 1
 170 -186 l 5
 170 669 l 5
 50 669 l 1
 50 746 l 1
 257 746 l 1
EndSplineSet
EndChar
StartChar: uni230A
Encoding: 8970 8970 834
Width: 322
Flags: W
GlyphVariantsVertical: uni230A uni230A.size1 uni230A.size2 uni230A.size3 uni230A.size4 uni230A.size5 uni230A.size6 uni230A.size7 uni230A.size8 uni230A.size9 uni230A.size10 uni230A.size11 uni230A.size12 uni230A.size13 uni230A.size14 uni230A.size15
HStem: -186 76<152 272>
VStem: 65 87<-110 746>
LayerCount: 2
Fore
SplineSet
152 746 m 1
 152 -110 l 1
 272 -110 l 1
 272 -186 l 1
 65 -186 l 1
 65 746 l 1
 152 746 l 1
EndSplineSet
EndChar
StartChar: uni230B
Encoding: 8971 8971 835
Width: 322
Flags: W
GlyphVariantsVertical: uni230B uni230B.size1 uni230B.size2 uni230B.size3 uni230B.size4 uni230B.size5 uni230B.size6 uni230B.size7 uni230B.size8 uni230B.size9 uni230B.size10 uni230B.size11 uni230B.size12 uni230B.size13 uni230B.size14 uni230B.size15
GlyphCompositionVertical: 2  uni230B.bot%0,0,150,1600 uni230B.ext%1,150,150,600
HStem: -186 76<50 170>
VStem: 170 87<-110 746>
LayerCount: 2
Fore
SplineSet
257 746 m 1
 257 -186 l 1
 50 -186 l 1
 50 -110 l 1
 170 -110 l 1
 170 746 l 1
 257 746 l 1
EndSplineSet
EndChar
StartChar: uni239B
Encoding: 9115 9115 837
Width: 599
Flags: W
HStem: 0 21G<72 192>
VStem: 72 120<0 254.543>
LayerCount: 2
Fore
SplineSet
72 0 m 17
 72 1100 168 2016 460 2956 c 1
 535 2934 l 1
 253 1969 192 1022 192 0 c 9
 72 0 l 17
EndSplineSet
EndChar
StartChar: uni239C
Encoding: 9116 9116 859
Width: 599
Flags: W
HStem: 0 21G<72 192>
VStem: 72 120<0 600>
LayerCount: 2
Fore
SplineSet
72 0 m 1
 72 600 l 25
 192 600 l 25
 192 0 l 1
 72 0 l 1
EndSplineSet
EndChar
StartChar: uni239F
Encoding: 9119 9119 859
Width: 599
Flags: W
HStem: 0 21G<407 527>
VStem: 407 120<0 600>
LayerCount: 2
Fore
SplineSet
407 0 m 1
 407 600 l 25
 527 600 l 25
 527 0 l 1
 407 0 l 1
EndSplineSet
EndChar
StartChar: uni23A0
Encoding: 9120 9120 842
Width: 592
Flags: W
VStem: 392 128<1204.9 1485>
LayerCount: 2
Fore
SplineSet
392 1485 m 17
 392 843 261 474 72 75 c 1
 146 0 l 1
 352 417 520 774 520 1485 c 9
 392 1485 l 17
EndSplineSet
EndChar
StartChar: uni23A1
Encoding: 9121 9121 843
Width: 521
Flags: W
HStem: 0 21G<105 215> 2867 89<215 457>
VStem: 105 110<0 2867>
LayerCount: 2
Fore
SplineSet
105 0 m 1
 105 2956 l 1
 457 2956 l 1
 457 2867 l 1
 215 2867 l 1
 215 0 l 1
 105 0 l 1
EndSplineSet
EndChar
StartChar: uni23A3
Encoding: 9123 9123 845
Width: 491
Flags: W
HStem: 0 89<209 409>
VStem: 97 112<89 1485>
LayerCount: 2
Fore
SplineSet
209 1485 m 1
 209 89 l 1
 409 89 l 1
 409 0 l 1
 97 0 l 1
 97 1485 l 1
 209 1485 l 1
EndSplineSet
EndChar
StartChar: uni23A7
Encoding: 9127 9127 867
Width: 670
Flags: W
HStem: 0 21G<280 390> 1304 96<452.218 545>
VStem: 280 110<0 1245.8>
LayerCount: 2
Fore
SplineSet
280 0 m 25
 280 1157 l 2
 280 1305.93457031 361 1400 545 1400 c 1
 545 1304 l 1
 431 1304 390 1240.96875 390 1168 c 2
 390 0 l 25
 280 0 l 25
EndSplineSet
EndChar
StartChar: uni23A8
Encoding: 9128 9128 850
Width: 571
Flags: W
HStem: 0 21G<230 341> 347 106<100 150.579>
VStem: 230 111<0 223.615 576.385 800>
LayerCount: 2
Fore
SplineSet
230 0 m 1
 230 55 l 2
 230 255 165 347 100 347 c 1
 100 453 l 1
 165 453 230 545 230 745 c 2
 230 800 l 1
 341 800 l 1
 341 724 l 2
 341 484 289 448 242 400 c 1
 289 352 341 316 341 76 c 2
 341 0 l 1
 230 0 l 1
EndSplineSet
EndChar
StartChar: uni23A9
Encoding: 9129 9129 851
Width: 670
Flags: W
HStem: 0 96<452.218 545>
VStem: 280 110<154.19 1400>
LayerCount: 2
Fore
SplineSet
280 243 m 2
 280 1400 l 25
 390 1400 l 25
 390 232 l 2
 390 159 431 96 545 96 c 1
 545 0 l 1
 361 0 280 94 280 243 c 2
EndSplineSet
EndChar
StartChar: uni23AA
Encoding: 9130 9130 870
Width: 670
Flags: W
HStem: 0 21G<280 390>
VStem: 280 110<0 600>
LayerCount: 2
Fore
SplineSet
280 0 m 1
 280 600 l 1
 390 600 l 1
 390 0 l 1
 280 0 l 1
EndSplineSet
EndChar
StartChar: uni23AB
Encoding: 9131 9131 874
Width: 670
Flags: W
HStem: 0 21G<280 390> 1304 96<125 217.782>
VStem: 280 110<0 1245.8>
LayerCount: 2
Fore
SplineSet
125 1304 m 1
 125 1400 l 1
 309 1400 390 1305.93457031 390 1157 c 2
 390 0 l 25
 280 0 l 25
 280 1168 l 2
 280 1240.96875 239 1304 125 1304 c 1
EndSplineSet
EndChar
StartChar: uni23AC
Encoding: 9132 9132 875
Width: 670
Flags: W
HStem: 0 21G<280 390> 957 86<504.122 580>
VStem: 280 110<0 771.61 1228.39 2000>
LayerCount: 2
Fore
SplineSet
280 0 m 25
 280 586 l 2
 280 842 354 966 438 1000 c 1
 354 1034 280 1158 280 1414 c 2
 280 2000 l 25
 390 2000 l 25
 390 1437 l 2
 390 1173 460 1043 580 1043 c 1
 580 957 l 1
 460 957 390 827 390 563 c 2
 390 0 l 25
 280 0 l 25
EndSplineSet
EndChar
StartChar: uni23AD
Encoding: 9133 9133 855
Width: 670
Flags: W
HStem: 0 96<125 217.782>
VStem: 280 110<154.19 1400>
LayerCount: 2
Fore
SplineSet
125 0 m 1
 125 96 l 1
 239 96 280 159 280 232 c 2
 280 1400 l 25
 390 1400 l 25
 390 243 l 2
 390 94 309 0 125 0 c 1
EndSplineSet
EndChar
StartChar: uni23B4
Encoding: 9140 9140 877
Width: 802
Flags: HW
GlyphVariantsHorizontal: uni23B4 uni23B4.size1 uni23B4.size2 uni23B4.size3 uni23B4.size4 uni23B4.size5 uni23B4.size6 uni23B4.size7 uni23B4.size8 uni23B4.size9 uni23B4.size10 uni23B4.size11 uni23B4.size12 uni23B4.size13 uni23B4.size14 uni23B4.size15
GlyphCompositionHorizontal: 3  uni23B4.left%0,0,150,1485 uni23B4.ext%1,150,150,700 uni23B4.right%0,150,0,1485
LayerCount: 2
Fore
SplineSet
32 640 m 1
 32 840 l 1
 770 840 l 1
 770 640 l 1
 698 640 l 1
 698 760 l 1
 104 760 l 1
 104 640 l 1
 32 640 l 1
EndSplineSet
EndChar
StartChar: uni23B5
Encoding: 9141 9141 878
Width: 1012
Flags: W
GlyphVariantsHorizontal: uni23B5 uni23B5.size1 uni23B5.size2 uni23B5.size3 uni23B5.size4
GlyphCompositionHorizontal: 3  uni23B5.left%0,0,150,1485 uni23B5.ext%1,150,150,700 uni23B5.right%0,150,0,1485
HStem: -408 208<40 116 894 972> -408 88<116 894>
VStem: 40 76<-320 -200> 894 78<-320 -200>
LayerCount: 2
Fore
SplineSet
972 -408 m 1xb0
 40 -408 l 1
 40 -200 l 1
 116 -200 l 1xb0
 116 -320 l 1
 894 -320 l 1x70
 894 -200 l 1
 972 -200 l 1
 972 -408 l 1xb0
EndSplineSet
EndChar
StartChar: uni23DC
Encoding: 9180 9180 879
Width: 802
Flags: HW
GlyphVariantsHorizontal: uni23DC uni23DC.size1 uni23DC.size2 uni23DC.size3 uni23DC.size4 uni23DC.size5 uni23DC.size6 uni23DC.size7 uni23DC.size8 uni23DC.size9 uni23DC.size10 uni23DC.size11 uni23DC.size12 uni23DC.size13 uni23DC.size14 uni23DC.size15
GlyphCompositionHorizontal: 3  uni23DC.left%0,0,150,1485 uni23DC.ext%1,150,150,700 uni23DC.right%0,150,0,1485
LayerCount: 2
Fore
SplineSet
32 693 m 1
 132 771 230 849 401 849 c 0
 572 849 670 771 770 693 c 1
 729 640 l 1
 633 712 555 759 401 759 c 0
 247 759 169 712 73 640 c 1
 32 693 l 1
EndSplineSet
EndChar
StartChar: uni23DD
Encoding: 9181 9181 880
Width: 802
Flags: W
GlyphVariantsHorizontal: uni23DD uni23DD.size1 uni23DD.size2 uni23DD.size3 uni23DD.size4 uni23DD.size5 uni23DD.size6 uni23DD.size7 uni23DD.size8 uni23DD.size9 uni23DD.size10 uni23DD.size11 uni23DD.size12 uni23DD.size13 uni23DD.size14 uni23DD.size15
GlyphCompositionHorizontal: 3  uni23DD.left%0,0,150,2956 uni23DD.ext%1,150,150,700 uni23DD.right%0,150,0,2956
HStem: -369 90<259.919 542.081>
LayerCount: 2
Fore
SplineSet
32 -213 m 1
 132 -291 230 -369 401 -369 c 0
 572 -369 670 -291 770 -213 c 1
 729 -160 l 1
 633 -232 555 -279 401 -279 c 0
 247 -279 169 -232 73 -160 c 1
 32 -213 l 1
EndSplineSet
EndChar
StartChar: uni23DF
Encoding: 9183 9183 882
Width: 802
Flags: HW
GlyphVariantsHorizontal: uni23DF uni23DF.size1 uni23DF.size2 uni23DF.size3 uni23DF.size4 uni23DF.size5 uni23DF.size6 uni23DF.size7 uni23DF.size8 uni23DF.size9 uni23DF.size10 uni23DF.size11 uni23DF.size12 uni23DF.size13 uni23DF.size14 uni23DF.size15
GlyphCompositionHorizontal: 5  uni23DF.left%0,0,150,700 uni23DF.ext%1,150,150,800 uni23DF.mid%0,150,150,800 uni23DF.ext%1,150,150,800 uni23DF.right%0,150,0,700
LayerCount: 2
Fore
SplineSet
32 -160 m 1
 98 -160 l 1
 98 -220 114 -253 156 -253 c 2
 290 -253 l 2
 351 -253 378 -269 401 -311 c 1
 424 -269 451 -253 512 -253 c 2
 646 -253 l 2
 688 -253 704 -220 704 -160 c 1
 770 -160 l 1
 770 -282 733 -333 645 -333 c 2
 532 -333 l 2
 470 -333 432 -354 432 -396 c 1
 370 -396 l 1
 370 -354 332 -333 270 -333 c 2
 157 -333 l 2
 69 -333 32 -282 32 -160 c 1
EndSplineSet
EndChar
StartChar: uni2580
Encoding: 9600 9600 862
Width: 600
Flags: W
HStem: 250 750<0 600 0 600>
VStem: 0 600<250 1000 250 1000>
LayerCount: 2
Fore
SplineSet
600 1000 m 1
 600 250 l 1
 0 250 l 1
 0 1000 l 1
 600 1000 l 1
EndSplineSet
EndChar
StartChar: uni2581
Encoding: 9601 9601 881
Width: 600
Flags: W
HStem: -500 188<0 600 0 600>
VStem: 0 600<-500 -312 -500 -312>
LayerCount: 2
Fore
SplineSet
600 -312 m 1
 600 -500 l 1
 0 -500 l 1
 0 -312 l 1
 600 -312 l 1
EndSplineSet
EndChar
StartChar: uni2583
Encoding: 9603 9603 865
Width: 600
Flags: W
HStem: -500 562<0 600 0 600>
VStem: 0 600<-500 62 -500 62>
LayerCount: 2
Fore
SplineSet
600 62 m 1
 600 -500 l 1
 0 -500 l 1
 0 62 l 1
 600 62 l 1
EndSplineSet
EndChar
StartChar: uni2584
Encoding: 9604 9604 884
Width: 600
Flags: W
HStem: -500 750<0 600 0 600>
VStem: 0 600<-500 250 -500 250>
LayerCount: 2
Fore
SplineSet
600 250 m 1
 600 -500 l 1
 0 -500 l 1
 0 250 l 1
 600 250 l 1
EndSplineSet
EndChar
StartChar: uni2586
Encoding: 9606 9606 868
Width: 600
Flags: W
HStem: -500 1125<0 600 0 600>
VStem: 0 600<-500 625 -500 625>
LayerCount: 2
Fore
SplineSet
600 625 m 1
 600 -500 l 1
 0 -500 l 1
 0 625 l 1
 600 625 l 1
EndSplineSet
EndChar
StartChar: uni258A
Encoding: 9610 9610 890
Width: 600
Flags: W
HStem: -500 1500<0 450 0 450>
VStem: 0 450<-500 1000 -500 1000>
LayerCount: 2
Fore
SplineSet
450 1000 m 1
 450 -500 l 1
 0 -500 l 1
 0 1000 l 1
 450 1000 l 1
EndSplineSet
EndChar
StartChar: uni258C
Encoding: 9612 9612 831
Width: 600
Flags: W
HStem: -500 1500<0 300 0 300>
VStem: 0 300<-500 1000 -500 1000>
LayerCount: 2
Fore
SplineSet
300 1000 m 1
 300 -500 l 1
 0 -500 l 1
 0 1000 l 1
 300 1000 l 1
EndSplineSet
EndChar
StartChar: uni258E
Encoding: 9614 9614 876
Width: 600
Flags: W
HStem: -500 1500<0 150 0 150>
VStem: 0 150<-500 1000 -500 1000>
LayerCount: 2
Fore
SplineSet
150 1000 m 1
 150 -500 l 1
 0 -500 l 1
 0 1000 l 1
 150 1000 l 1
EndSplineSet
EndChar
StartChar: uni2596
Encoding: 9622 9622 881
Width: 600
Flags: W
HStem: -500 750<0 300 0 300>
VStem: 0 300<-500 250 -500 250>
LayerCount: 2
Fore
SplineSet
300 250 m 1
 300 -500 l 1
 0 -500 l 1
 0 250 l 1
 300 250 l 1
EndSplineSet
EndChar
StartChar: uni2597
Encoding: 9623 9623 882
Width: 600
Flags: W
HStem: -500 750<300 600 300 600>
VStem: 300 300<-500 250 -500 250>
LayerCount: 2
Fore
SplineSet
600 250 m 1
 600 -500 l 1
 300 -500 l 1
 300 250 l 1
 600 250 l 1
EndSplineSet
EndChar
StartChar: uni259B
Encoding: 9627 9627 907
Width: 600
Flags: W
HStem: -500 1500<0 300 0 600>
VStem: 0 300<-500 250 -500 1000>
LayerCount: 2
Fore
SplineSet
600 1000 m 1
 600 250 l 1
 300 250 l 1
 300 -500 l 1
 0 -500 l 1
 0 1000 l 1
 600 1000 l 1
EndSplineSet
EndChar
StartChar: uni259D
Encoding: 9629 9629 888
Width: 600
Flags: W
HStem: 250 750<300 600 300 600>
VStem: 300 300<250 1000 250 1000>
LayerCount: 2
Fore
SplineSet
600 1000 m 1
 600 250 l 1
 300 250 l 1
 300 1000 l 1
 600 1000 l 1
EndSplineSet
EndChar
StartChar: uni259F
Encoding: 9631 9631 890
Width: 600
Flags: W
HStem: -500 1500<300 600 300 600 0 600>
VStem: 300 300<250 1000 -500 1000>
LayerCount: 2
Fore
SplineSet
600 1000 m 1
 600 -500 l 1
 0 -500 l 1
 0 250 l 1
 300 250 l 1
 300 1000 l 1
 600 1000 l 1
EndSplineSet
EndChar
StartChar: uni25A0
Encoding: 9632 9632 891
Width: 740
Flags: W
HStem: 0 564<88 652>
VStem: 88 564<0 564>
LayerCount: 2
Fore
SplineSet
652 564 m 1
 652 0 l 1
 88 0 l 1
 88 564 l 1
 652 564 l 1
EndSplineSet
EndChar
StartChar: uni25A1
Encoding: 9633 9633 892
Width: 740
Flags: W
HStem: 0 92<180 560> 472 92<180 560>
VStem: 88 92<92 472> 560 92<92 472>
LayerCount: 2
Fore
SplineSet
652 564 m 1
 652 0 l 1
 88 0 l 5
 88 564 l 1
 652 564 l 1
560 472 m 1
 180 472 l 1
 180 92 l 1
 560 92 l 1
 560 472 l 1
EndSplineSet
EndChar
StartChar: uni25AC
Encoding: 9644 9644 915
Width: 849
Flags: W
HStem: 0 397<80 769>
LayerCount: 2
Fore
SplineSet
80 397 m 1
 769 397 l 1
 769 0 l 1
 80 0 l 1
 80 397 l 1
EndSplineSet
EndChar
StartChar: uni25AD
Encoding: 9645 9645 916
Width: 849
Flags: W
HStem: 0 92<172 677> 305 92<172 677>
VStem: 80 92<92 305> 677 92<92 305>
LayerCount: 2
Fore
SplineSet
80 397 m 1
 769 397 l 1
 769 0 l 1
 80 0 l 1
 80 397 l 1
172 305 m 1
 172 92 l 1
 677 92 l 1
 677 305 l 1
 172 305 l 1
EndSplineSet
EndChar
StartChar: uni25AF
Encoding: 9647 9647 857
Width: 589
Flags: W
HStem: 0 92<188 401 188 493> 597 92<188 401 188 188>
VStem: 96 92<92 597 92 689> 401 92<92 597 597 597>
LayerCount: 2
Fore
SplineSet
493 689 m 1
 493 0 l 1
 96 0 l 1
 96 689 l 1
 493 689 l 1
401 597 m 1
 188 597 l 1
 188 92 l 1
 401 92 l 1
 401 597 l 1
EndSplineSet
EndChar
StartChar: uni25BC
Encoding: 9660 9660 904
Width: 600
Flags: W
HStem: 0 21G<300 300> 520 20G<30 570 570 570>
VStem: 30 540<540 540>
LayerCount: 2
Fore
SplineSet
570 540 m 1
 300 0 l 1
 30 540 l 1
 570 540 l 1
EndSplineSet
EndChar
StartChar: uni25C6
Encoding: 9670 9670 864
Width: 600
Flags: W
HStem: 0 21G<300 300> 520 20G<300 300>
VStem: 30 540<270 270>
LayerCount: 2
Fore
SplineSet
300 540 m 1
 570 270 l 1
 300 0 l 1
 30 270 l 1
 300 540 l 1
EndSplineSet
EndChar
StartChar: uni25CE
Encoding: 9678 9678 930
Width: 600
Flags: W
HStem: 0 80<247.5 352 247.5 374.5> 160 80<291.5 308 291.5 330> 300 80<291.5 308> 460 80<247.5 352>
VStem: 30 80<217.5 322 217.5 344.5> 190 80<261.5 278 261.5 300> 330 80<261.5 278> 490 80<217.5 322>
LayerCount: 2
Fore
SplineSet
300 540 m 0
 449 540 570 419 570 270 c 0
 570 120 449 0 300 0 c 0
 150 0 30 120 30 270 c 0
 30 419 150 540 300 540 c 0
300 460 m 0
 195 460 110 374 110 270 c 0
 110 165 195 80 300 80 c 0
 404 80 490 165 490 270 c 0
 490 374 404 460 300 460 c 0
300 380 m 0
 360 380 410 330 410 270 c 0
 410 209 360 160 300 160 c 0
 239 160 190 209 190 270 c 0
 190 330 239 380 300 380 c 0
300 300 m 0
 283 300 270 286 270 270 c 0
 270 253 283 240 300 240 c 0
 316 240 330 253 330 270 c 0
 330 286 316 300 300 300 c 0
EndSplineSet
EndChar
StartChar: uni25CF
Encoding: 9679 9679 870
Width: 600
Flags: W
HStem: 0 21G<225 374.5> 520 20G<225 374.5>
VStem: 30 540<195 344.5>
LayerCount: 2
Fore
SplineSet
300 540 m 0
 449 540 570 419 570 270 c 0
 570 120 449 0 300 0 c 0
 150 0 30 120 30 270 c 0
 30 419 150 540 300 540 c 0
EndSplineSet
EndChar
StartChar: uni25D3
Encoding: 9683 9683 874
Width: 600
Flags: W
HStem: 0 80<247.5 352 247.5 374.5> 270 270<225 374.5 225 490 110 374.5>
VStem: 30 80<217.5 270 217.5 344.5> 490 80<217.5 270>
LayerCount: 2
Fore
SplineSet
300 540 m 0
 449 540 570 419 570 270 c 0
 570 120 449 0 300 0 c 0
 150 0 30 120 30 270 c 0
 30 419 150 540 300 540 c 0
490 270 m 1
 110 270 l 1
 110 165 195 80 300 80 c 0
 404 80 490 165 490 270 c 1
EndSplineSet
EndChar
StartChar: uni25D5
Encoding: 9685 9685 875
Width: 600
Flags: W
HStem: 0 21G<225 374.5> 0 270<225 300 110 374.5> 460 80<247.5 300>
VStem: 30 80<270 322 270 344.5> 300 270<270 344.5 195 460 195 460>
LayerCount: 2
Fore
SplineSet
300 540 m 0xb8
 449 540 570 419 570 270 c 0
 570 120 449 0 300 0 c 0
 150 0 30 120 30 270 c 0
 30 419 150 540 300 540 c 0xb8
300 460 m 1
 195 460 110 374 110 270 c 1
 300 270 l 1x78
 300 460 l 1
EndSplineSet
EndChar
StartChar: uni25D9
Encoding: 9689 9689 878
Width: 600
Flags: W
HStem: 0 40<236.5 363 236.5 570> 500 40<236.5 363>
VStem: 30 40<206.5 333 206.5 540> 530 40<206.5 333>
LayerCount: 2
Fore
SplineSet
570 540 m 1
 570 0 l 1
 30 0 l 1
 30 540 l 1
 570 540 l 1
300 500 m 0
 173 500 70 396 70 270 c 0
 70 143 173 40 300 40 c 0
 426 40 530 143 530 270 c 0
 530 396 426 500 300 500 c 0
300 420 m 0
 382 420 450 352 450 270 c 0
 450 187 382 120 300 120 c 0
 217 120 150 187 150 270 c 0
 150 352 217 420 300 420 c 0
EndSplineSet
EndChar
StartChar: uni25DB
Encoding: 9691 9691 923
Width: 600
Flags: W
HStem: 0 40<236.5 363 236.5 570> 0 270<30 70 150 450 530 570 30 70> 120 150<258.5 341>
VStem: 30 40<206.5 270 206.5 270 206.5 270> 530 40<206.5 270>
LayerCount: 2
Fore
SplineSet
570 270 m 1x58
 570 0 l 1
 30 0 l 1xb8
 30 270 l 1
 70 270 l 1x58
 70 143 173 40 300 40 c 0xb8
 426 40 530 143 530 270 c 1
 570 270 l 1x58
450 270 m 1
 450 187 382 120 300 120 c 0
 217 120 150 187 150 270 c 1
 450 270 l 1
EndSplineSet
EndChar
StartChar: uni25DC
Encoding: 9692 9692 924
Width: 600
Flags: W
HStem: 460 80<247.5 300>
VStem: 30 80<270 322 270 344.5>
LayerCount: 2
Fore
SplineSet
300 540 m 1
 300 460 l 1
 195 460 110 374 110 270 c 1
 30 270 l 1
 30 419 150 540 300 540 c 1
EndSplineSet
EndChar
StartChar: uni25E2
Encoding: 9698 9698 948
Width: 600
Flags: W
HStem: 0 21G<30 570 30 30> 520 20G<570 570>
VStem: 30 540<0 540>
LayerCount: 2
Fore
SplineSet
570 540 m 1
 570 0 l 1
 30 0 l 1
 570 540 l 1
EndSplineSet
EndChar
StartChar: uni25E5
Encoding: 9701 9701 951
Width: 600
Flags: W
HStem: 0 21G<570 570> 520 20G<30 570 570 570>
VStem: 30 540<0 540>
LayerCount: 2
Fore
SplineSet
570 540 m 1
 570 0 l 1
 30 540 l 1
 570 540 l 1
EndSplineSet
EndChar
StartChar: uni25E7
Encoding: 9703 9703 934
Width: 600
Flags: W
HStem: 0 80<300 490 300 570> 460 80<300 490 300 300>
VStem: 30 270<80 460 80 540 80 540> 490 80<80 460 460 460>
LayerCount: 2
Fore
SplineSet
570 540 m 1
 570 0 l 1
 30 0 l 1
 30 540 l 1
 570 540 l 1
490 460 m 1
 300 460 l 1
 300 80 l 1
 490 80 l 1
 490 460 l 1
EndSplineSet
EndChar
StartChar: uni25F0
Encoding: 9712 9712 958
Width: 600
Flags: W
HStem: 0 80<110 490 110 570> 230 80<110 260 110 340 110 260> 460 80<110 260 110 110 340 490 340 340>
VStem: 30 80<80 230 310 460> 260 80<310 460 230 460> 490 80<80 460 460 460>
LayerCount: 2
Fore
SplineSet
570 540 m 1
 570 0 l 1
 30 0 l 1
 30 540 l 1
 570 540 l 1
490 460 m 1
 340 460 l 1
 340 230 l 1
 110 230 l 1
 110 80 l 1
 490 80 l 1
 490 460 l 1
260 460 m 1
 110 460 l 1
 110 310 l 1
 260 310 l 1
 260 460 l 1
EndSplineSet
EndChar
StartChar: uni25F5
Encoding: 9717 9717 945
Width: 600
Flags: W
HStem: 0 84<260 260 260 340 260 374.5> 230 80<114 260 114 340> 460 80<254.5 352>
VStem: 30 84<230 230 230 310 230 344.5> 260 80<84 230 230 230> 490 80<224.5 322>
LayerCount: 2
Fore
SplineSet
300 540 m 0
 449 540 570 419 570 270 c 0
 570 120 449 0 300 0 c 0
 150 0 30 120 30 270 c 0
 30 419 150 540 300 540 c 0
300 460 m 0
 209 460 133 395 114 310 c 1
 340 310 l 1
 340 84 l 1
 425 103 490 179 490 270 c 0
 490 374 404 460 300 460 c 0
260 230 m 1
 114 230 l 1
 130 157 187 99 260 84 c 1
 260 230 l 1
EndSplineSet
EndChar
StartChar: uni25F7
Encoding: 9719 9719 965
Width: 600
Flags: W
HStem: 0 80<247.5 345 247.5 374.5> 230 80<340 485> 455 85<260 260 340 340>
VStem: 30 80<217.5 315 217.5 344.5> 260 80<310 455 310 455 310 455> 486 84<310 310>
LayerCount: 2
Fore
SplineSet
300 540 m 0
 449 540 570 419 570 270 c 0
 570 120 449 0 300 0 c 0
 150 0 30 120 30 270 c 0
 30 419 150 540 300 540 c 0
260 455 m 1
 174 437 110 360 110 270 c 0
 110 165 195 80 300 80 c 0
 390 80 467 144 485 230 c 1
 260 230 l 1
 260 455 l 1
340 455 m 1
 340 310 l 1
 486 310 l 1
 470 382 412 439 340 455 c 1
EndSplineSet
EndChar
StartChar: uni2639
Encoding: 9785 9785 967
Width: 600
Flags: W
HStem: 0 52<240 359 240 374.5> 225 45<271.5 328.5> 299 92<204 232 364 392> 487 52<240 359>
VStem: 30 59<210 329 210 344.5> 170 96<332.5 358.5> 330 96<332.5 358.5> 511 59<210 329>
LayerCount: 2
Fore
SplineSet
300 539 m 0
 449 539 570 419 570 270 c 0
 570 120 449 0 300 0 c 0
 150 0 30 120 30 270 c 0
 30 419 150 539 300 539 c 0
300 487 m 0
 180 487 89 388 89 270 c 0
 89 150 180 52 300 52 c 0
 418 52 511 150 511 270 c 0
 511 388 418 487 300 487 c 0
218 391 m 0xff
 246 391 266 371 266 346 c 0
 266 319 246 299 218 299 c 0
 190 299 170 319 170 346 c 0
 170 371 190 391 218 391 c 0xff
378 391 m 0
 406 391 426 371 426 346 c 0
 426 319 406 299 378 299 c 0
 350 299 330 319 330 346 c 0
 330 371 350 391 378 391 c 0
443 136 m 1
 399 136 l 1
 386 188 357 225 300 225 c 0
 243 225 214 188 201 136 c 1
 157 136 l 1
 166 209 221 270 300 270 c 0xdb
 379 270 434 209 443 136 c 1
EndSplineSet
EndChar
StartChar: uni263B
Encoding: 9787 9787 908
Width: 600
Flags: W
HStem: 0 102<260.5 339.5 260.5 374.5> 235 69<153 227 153 227> 396 143<225 227 369 374.5 225 397>
VStem: 30 135<337.5 344.5> 261 74<337.5 363.5> 447 123<235 235>
LayerCount: 2
Fore
SplineSet
300 539 m 0
 449 539 570 419 570 270 c 0
 570 120 449 0 300 0 c 0
 150 0 30 120 30 270 c 0
 30 419 150 539 300 539 c 0
213 396 m 0
 185 396 165 376 165 351 c 0
 165 324 185 304 213 304 c 0
 241 304 261 324 261 351 c 0
 261 376 241 396 213 396 c 0
383 396 m 0
 355 396 335 376 335 351 c 0
 335 324 355 304 383 304 c 0
 411 304 431 324 431 351 c 0
 431 376 411 396 383 396 c 0
447 235 m 1
 404 235 l 1
 391 183 357 146 300 146 c 0
 243 146 209 183 196 235 c 1
 153 235 l 1
 162 162 221 102 300 102 c 0
 379 102 438 162 447 235 c 1
EndSplineSet
EndChar
StartChar: uni263C
Encoding: 9788 9788 952
Width: 600
Flags: W
HStem: 0 153<276 324 276 276> 110 43<276 276 324 324> 240 47<30 141 30 141 459 570> 376 44<276 276> 376 151<276 324 276 332>
VStem: 141 50<240 240 287 287> 276 48<0 110 0 110 420 527> 410 49<240 240 240 287 240 296>
LayerCount: 2
Fore
SplineSet
324 527 m 1xaf
 324 420 l 1
 349 417 372 407 392 393 c 1
 473 475 l 1
 509 439 l 1
 428 359 l 1
 444 339 455 314 459 287 c 1
 570 287 l 1
 570 240 l 1
 459 240 l 1
 455 214 445 190 430 171 c 1
 509 93 l 1
 473 57 l 1
 394 137 l 1
 373 123 350 114 324 110 c 1x77
 324 0 l 1
 276 0 l 1xaf
 276 110 l 1
 250 114 226 123 206 137 c 1
 127 57 l 1
 91 93 l 1
 170 171 l 1
 156 191 145 214 141 240 c 1
 30 240 l 1
 30 287 l 1
 141 287 l 1
 145 314 156 339 171 359 c 1
 91 439 l 1
 127 475 l 1
 207 393 l 1
 227 407 250 417 276 420 c 1x77
 276 527 l 1
 324 527 l 1xaf
300 376 m 0xaf
 236 376 191 328 191 264 c 0
 191 200 236 153 300 153 c 0
 364 153 410 200 410 264 c 0
 410 328 364 376 300 376 c 0xaf
EndSplineSet
EndChar
StartChar: uni2660
Encoding: 9824 9824 955
Width: 600
Flags: W
HStem: 0 65<110 266 334 490 70 266> 519 20G
VStem: 70 460<0 0 207 284>
LayerCount: 2
Fore
SplineSet
300 539 m 1
 442 408 530 329 530 239 c 0
 530 175 492 134 432 134 c 0
 382 134 346 154 318 200 c 1
 334 65 l 1
 490 65 l 1
 530 0 l 1
 70 0 l 1
 110 65 l 1
 266 65 l 1
 282 200 l 1
 254 154 218 134 168 134 c 0
 108 134 70 175 70 239 c 0
 70 329 158 408 300 539 c 1
EndSplineSet
EndChar
StartChar: uni2663
Encoding: 9827 9827 913
Width: 600
Flags: W
HStem: 0 65<110 266 334 490 70 266> 134 222<144 182 135 197.5 418 456> 519 20G<264 336>
VStem: 180 240<417 476>
LayerCount: 2
Fore
SplineSet
300 539 m 0
 372 539 420 508 420 444 c 0
 420 390 393 364 366 342 c 1
 392 353 403 356 433 356 c 0
 497 356 530 312 530 239 c 0
 530 177 486 134 426 134 c 0
 378 134 345 154 318 200 c 1
 334 65 l 1
 490 65 l 1
 530 0 l 1
 70 0 l 1
 110 65 l 1
 266 65 l 1
 282 200 l 1
 254 154 221 134 174 134 c 0
 114 134 70 177 70 239 c 0
 70 312 103 356 167 356 c 0
 197 356 208 353 234 342 c 1
 207 364 180 390 180 444 c 0
 180 508 228 539 300 539 c 0
EndSplineSet
EndChar
StartChar: uni2665
Encoding: 9829 9829 978
Width: 600
Flags: W
HStem: 0 21G 519 20G<129.5 200.5 399.5 470.5>
VStem: 50 500<356.5 448.5 356.5 448.5>
LayerCount: 2
Fore
SplineSet
434 539 m 0
 507 539 550 482 550 415 c 0
 550 298 440 166 300 0 c 1
 160 166 50 297 50 415 c 0
 50 482 93 539 166 539 c 0
 235 539 270 502 300 437 c 1
 330 502 365 539 434 539 c 0
EndSplineSet
EndChar
StartChar: uni266A
Encoding: 9834 9834 977
Width: 600
Flags: W
HStem: -12 160<199 245.5 199 250.5> 460 67<290 338> 507 20G<290 338 338 338>
VStem: 290 48<135 460> 419 47<307 399.5>
LayerCount: 2
Fore
SplineSet
338 527 m 1xb0
 385 496 l 2
 445 456 466 426 466 373 c 0
 466 343 458 316 448 295 c 1
 419 307 l 1
 419 386 406 416 361 445 c 2
 338 460 l 1xd8
 338 78 l 2
 338 38 287 -12 214 -12 c 0
 149 -12 109 12 109 58 c 0
 109 108 164 148 234 148 c 0
 257 148 275 143 290 135 c 1
 290 527 l 1
 338 527 l 1xb0
EndSplineSet
EndChar
StartChar: uni266B
Encoding: 9835 9835 917
Width: 600
Flags: W
HStem: -12 160<114 160.5 114 165.5> 38 160<397 443.5 397 448.5>
VStem: 205 48<135 437> 488 48<185 496 496 496>
LayerCount: 2
Fore
SplineSet
536 577 m 1xb0
 536 128 l 2
 536 88 485 38 412 38 c 0
 347 38 307 62 307 108 c 0
 307 158 362 198 432 198 c 0
 455 198 473 193 488 185 c 1x70
 488 496 l 1
 253 437 l 1
 253 78 l 2
 253 38 202 -12 129 -12 c 0
 64 -12 24 12 24 58 c 0
 24 108 79 148 149 148 c 0
 172 148 190 143 205 135 c 1
 205 491 l 1
 536 577 l 1xb0
EndSplineSet
EndChar
StartChar: uni27E8
Encoding: 10216 10216 979
Width: 336
Flags: W
GlyphVariantsVertical: uni27E8 uni27E8.size1 uni27E8.size2 uni27E8.size3 uni27E8.size4 uni27E8.size5 uni27E8.size6 uni27E8.size7 uni27E8.size8 uni27E8.size9 uni27E8.size10 uni27E8.size11 uni27E8.size12 uni27E8.size13 uni27E8.size14 uni27E8.size15
VStem: 40 256
LayerCount: 2
Fore
SplineSet
226 760 m 1
 296 732 l 1
 126 280 l 1
 296 -172 l 1
 226 -200 l 1
 40 280 l 1
 226 760 l 1
EndSplineSet
EndChar
StartChar: uni27E9
Encoding: 10217 10217 962
Width: 336
Flags: HW
GlyphVariantsVertical: uni27E9 uni27E9.size1 uni27E9.size2 uni27E9.size3 uni27E9.size4
LayerCount: 2
Fore
SplineSet
110 760 m 1
 40 732 l 1
 210 280 l 1
 40 -172 l 1
 110 -200 l 1
 296 280 l 1
 110 760 l 1
EndSplineSet
EndChar
StartChar: uni27EA
Encoding: 10218 10218 963
Width: 516
Flags: W
GlyphVariantsVertical: uni27EA uni27EA.size1 uni27EA.size2 uni27EA.size3 uni27EA.size4 uni27EA.size5 uni27EA.size6 uni27EA.size7 uni27EA.size8 uni27EA.size9 uni27EA.size10 uni27EA.size11 uni27EA.size12 uni27EA.size13 uni27EA.size14 uni27EA.size15
LayerCount: 2
Fore
SplineSet
406 760 m 1
 476 732 l 1
 306 280 l 1
 476 -172 l 1
 406 -200 l 1
 220 280 l 1
 406 760 l 1
226 760 m 1
 296 732 l 1
 126 280 l 1
 296 -172 l 1
 226 -200 l 1
 40 280 l 1
 226 760 l 1
EndSplineSet
EndChar
StartChar: uni27EB
Encoding: 10219 10219 982
Width: 516
Flags: W
GlyphVariantsVertical: uni27EB uni27EB.size1 uni27EB.size2 uni27EB.size3 uni27EB.size4 uni27EB.size5 uni27EB.size6 uni27EB.size7 uni27EB.size8 uni27EB.size9 uni27EB.size10 uni27EB.size11 uni27EB.size12 uni27EB.size13 uni27EB.size14 uni27EB.size15
LayerCount: 2
Fore
SplineSet
110 760 m 1
 40 732 l 1
 210 280 l 1
 40 -172 l 1
 110 -200 l 1
 296 280 l 1
 110 760 l 1
290 760 m 1
 220 732 l 1
 390 280 l 1
 220 -172 l 1
 290 -200 l 1
 476 280 l 1
 290 760 l 1
EndSplineSet
EndChar
StartChar: uni27EE
Encoding: 10222 10222 965
Width: 274
Flags: W
GlyphVariantsVertical: uni27EE uni27EE.size1 uni27EE.size2 uni27EE.size3 uni27EE.size4
GlyphCompositionVertical: 3  uni239D%0,0,150,1485 uni239C%1,150,150,700 uni239B%0,150,0,1485
VStem: 40 86<34.0663 526.132>
LayerCount: 2
Fore
SplineSet
176 775 m 1
 234 735 l 1
 144 602 126 495 126 280 c 4
 126 66 144 -42 234 -175 c 1
 176 -215 l 1
 78 -76 40 43 40 280 c 0
 40 517 78 636 176 775 c 1
EndSplineSet
EndChar
StartChar: uni27F6
Encoding: 10230 10230 968
Width: 1640
Flags: W
HStem: 240 80<100 1380>
LayerCount: 2
Fore
SplineSet
1310 492 m 1
 1540 280 l 1
 1310 68 l 1
 1256 128 l 1
 1380 240 l 1
 100 240 l 1
 100 320 l 1
 1380 320 l 1
 1256 432 l 1
 1310 492 l 1
EndSplineSet
EndChar
StartChar: uni27F7
Encoding: 10231 10231 926
Width: 1760
Flags: W
LayerCount: 2
Fore
SplineSet
1500 240 m 1
 1376 128 l 1
 1430 68 l 1
 1660 280 l 5
 1430 492 l 1
 1376 432 l 1
 1500 320 l 1
 260 320 l 1
 384 432 l 1
 330 492 l 1
 100 280 l 1
 330 68 l 1
 384 128 l 1
 260 240 l 1
 1500 240 l 1
EndSplineSet
EndChar
StartChar: uni27F8
Encoding: 10232 10232 988
Width: 1640
Flags: W
LayerCount: 2
Fore
SplineSet
1540 144 m 1
 1540 222 l 1
 270 222 l 1
 208 280 l 1
 270 338 l 1
 1540 338 l 1
 1540 416 l 1
 350 416 l 1
 432 492 l 1
 380 548 l 1
 100 280 l 1
 380 12 l 1
 432 68 l 1
 350 144 l 1
 1540 144 l 1
EndSplineSet
EndChar
StartChar: uni27FA
Encoding: 10234 10234 990
Width: 1760
Flags: W
LayerCount: 2
Fore
SplineSet
270 222 m 1
 208 280 l 1
 270 338 l 1
 1490 338 l 5
 1552 280 l 5
 1490 222 l 5
 270 222 l 1
1410 144 m 5
 1328 68 l 5
 1380 12 l 5
 1660 280 l 5
 1380 548 l 5
 1328 492 l 5
 1410 416 l 5
 350 416 l 1
 432 492 l 1
 380 548 l 1
 100 280 l 1
 380 12 l 1
 432 68 l 1
 350 144 l 1
 1410 144 l 5
EndSplineSet
EndChar
StartChar: uni27FB
Encoding: 10235 10235 994
Width: 1640
Flags: W
LayerCount: 2
Fore
SplineSet
330 492 m 1
 100 280 l 1
 330 68 l 1
 384 128 l 1
 260 240 l 1
 1460 240 l 1
 1460 88 l 5
 1540 88 l 5
 1540 472 l 1
 1460 472 l 1
 1460 320 l 1
 260 320 l 1
 384 432 l 1
 330 492 l 1
EndSplineSet
EndChar
StartChar: uni27FC
Encoding: 10236 10236 995
Width: 1640
Flags: W
HStem: 240 80<180 1380>
VStem: 100 80<88 240 320 472>
LayerCount: 2
Fore
SplineSet
1310 492 m 1
 1540 280 l 1
 1310 68 l 1
 1256 128 l 1
 1380 240 l 1
 180 240 l 1
 180 88 l 1
 100 88 l 1
 100 472 l 1
 180 472 l 5
 180 320 l 1
 1380 320 l 1
 1256 432 l 1
 1310 492 l 1
EndSplineSet
EndChar
StartChar: uni27FD
Encoding: 10237 10237 975
Width: 1640
Flags: W
LayerCount: 2
Fore
SplineSet
1460 222 m 1
 270 222 l 1
 208 280 l 1
 270 338 l 1
 1460 338 l 1
 1460 222 l 1
1540 528 m 1
 1460 528 l 1
 1460 416 l 1
 350 416 l 1
 432 492 l 1
 380 548 l 1
 100 280 l 1
 380 12 l 1
 432 68 l 1
 350 144 l 1
 1460 144 l 1
 1460 32 l 1
 1540 32 l 1
 1540 528 l 1
EndSplineSet
EndChar
StartChar: uni2906
Encoding: 10502 10502 995
Width: 1040
Flags: W
LayerCount: 2
Fore
SplineSet
840 222 m 1
 290 222 l 5
 228 280 l 5
 290 338 l 5
 840 338 l 1
 840 222 l 1
920 528 m 1
 840 528 l 1
 840 416 l 1
 370 416 l 5
 452 492 l 5
 400 548 l 5
 120 280 l 5
 400 12 l 5
 452 68 l 5
 370 144 l 5
 840 144 l 1
 840 32 l 1
 920 32 l 1
 920 528 l 1
EndSplineSet
EndChar
StartChar: uni2907
Encoding: 10503 10503 978
Width: 1040
Flags: W
HStem: 144 78<200 670> 338 78<200 670> 508 20G<120 200>
VStem: 120 80<32 144 222 338 416 528>
LayerCount: 2
Fore
SplineSet
200 222 m 1
 750 222 l 1
 812 280 l 1
 750 338 l 1
 200 338 l 1
 200 222 l 1
120 528 m 1
 200 528 l 1
 200 416 l 1
 670 416 l 1
 588 492 l 1
 640 548 l 1
 920 280 l 1
 640 12 l 1
 588 68 l 1
 670 144 l 1
 200 144 l 1
 200 32 l 1
 120 32 l 1
 120 528 l 1
EndSplineSet
EndChar
StartChar: uni296E
Encoding: 10606 10606 979
Width: 904
Flags: W
HStem: 670 20G<322.583 366.833>
VStem: 292 80<-120 520> 532 80<40 680>
LayerCount: 2
Fore
SplineSet
372 666 m 1
 372 -120 l 1
 292 -120 l 1
 292 520 l 1
 180 396 l 1
 120 450 l 1
 341 690 l 25
 372 666 l 1
532 -106 m 1
 532 680 l 1
 612 680 l 1
 612 40 l 1
 724 164 l 1
 784 110 l 1
 563 -130 l 25
 532 -106 l 1
EndSplineSet
EndChar
StartChar: uni2980
Encoding: 10624 10624 1002
Width: 751
Flags: W
GlyphVariantsVertical: uni2980 uni2980.size1 uni2980.size2 uni2980.size3 uni2980.size4 uni2980.size5 uni2980.size6 uni2980.size7 uni2980.size8 uni2980.size9 uni2980.size10 uni2980.size11 uni2980.size12 uni2980.size13 uni2980.size14 uni2980.size15
GlyphCompositionVertical: 2  uni2980.ext%0,0,150,600 uni2980.ext%1,150,150,600
VStem: 160 83<-186 746> 334 83<-186 746> 508 83<-186 746>
CounterMasks: 1 e0
LayerCount: 2
Fore
SplineSet
591 746 m 1
 591 -186 l 1
 508 -186 l 1
 508 746 l 1
 591 746 l 1
243 746 m 1
 243 -186 l 1
 160 -186 l 1
 160 746 l 1
 243 746 l 1
417 746 m 1
 417 -186 l 1
 334 -186 l 1
 334 746 l 1
 417 746 l 1
EndSplineSet
EndChar
StartChar: uni29A1
Encoding: 10657 10657 1931
Width: 682
Flags: W
HStem: 392 80<250.756 433.244>
LayerCount: 2
Fore
SplineSet
54 384 m 1
 81 403 111 419 142 432 c 1
 92 548 l 1
 166 580 l 1
 218 458 l 1
 258 468 299 472 342 472 c 0
 385 472 426 468 466 458 c 1
 518 580 l 1
 590 548 l 1
 542 432 l 1
 573 419 601 403 628 384 c 1
 584 318 l 1
 561 334 536 347 510 358 c 1
 342 -40 l 1
 174 358 l 1
 148 347 123 334 100 318 c 1
 54 384 l 1
250 382 m 1
 342 164 l 1
 434 382 l 1
 404 389 374 392 342 392 c 0
 310 392 280 389 250 382 c 1
EndSplineSet
EndChar
StartChar: uni29A2
Encoding: 10658 10658 1898
Width: 692
Flags: W
HStem: 0 21G<158.246 198.282> 467 80<72 492>
LayerCount: 2
Fore
SplineSet
72 467 m 1
 72 547 l 1
 680 547 l 1
 180 0 l 1
 118 57 l 1
 492 467 l 1
 72 467 l 1
EndSplineSet
EndChar
StartChar: uni2A7D
Encoding: 10877 10877 1001
Width: 500
Flags: W
LayerCount: 2
Fore
SplineSet
63 229 m 1
 30 155 l 1
 397 -15 l 1
 430 59 l 1
 63 229 l 1
417 581 m 1
 450 505 l 1
 123 363 l 1
 450 219 l 1
 417 145 l 1
 50 316 l 1
 50 410 l 1
 417 581 l 1
EndSplineSet
EndChar
StartChar: uni2A7E
Encoding: 10878 10878 1002
Width: 500
Flags: W
LayerCount: 2
Fore
SplineSet
437 229 m 1
 470 155 l 1
 103 -15 l 1
 70 59 l 1
 437 229 l 1
83 581 m 1
 450 410 l 1
 450 316 l 1
 83 145 l 1
 50 219 l 1
 377 363 l 1
 50 505 l 1
 83 581 l 1
EndSplineSet
EndChar
StartChar: uni2BFE
Encoding: 11262 11262 1896
Width: 672
Flags: W
LayerCount: 2
Fore
SplineSet
612 0 m 1
 612 540 l 1
 532 540 l 1
 532 80 l 1
 72 80 l 1
 72 0 l 1
 612 0 l 1
EndSplineSet
EndChar
StartChar: uniFB00
Encoding: 64256 64256 986
Width: 610
Flags: W
HStem: 0 21G<94 186 94 94 379 471 379 379> 456 71<10 94 10 94 186 379 471 589> 666 74<240.5 294> 676 74<520 562.5>
VStem: 94 92<0 456 0 456 527 589 589 590> 379 92<0 456 0 456 527 599 599 600>
LayerCount: 2
Fore
SplineSet
549 676 m 0xdc
 491 676 471 651 471 600 c 2xdc
 471 527 l 1
 599 527 l 1
 589 456 l 1
 471 456 l 1
 471 0 l 1
 379 0 l 1
 379 456 l 1
 186 456 l 1
 186 0 l 1
 94 0 l 1
 94 456 l 1
 10 456 l 1
 10 527 l 1
 94 527 l 1
 94 589 l 2
 94 677 151 740 268 740 c 0xec
 323 740 363 731 419 705 c 1
 447 733 489 750 544 750 c 0
 594 750 628 741 670 723 c 1
 641 656 l 1
 607 671 576 676 549 676 c 0xdc
379 527 m 1xec
 379 599 l 2
 379 615 381 631 385 645 c 1
 345 660 314 666 274 666 c 0
 207 666 186 641 186 590 c 2
 186 527 l 1
 379 527 l 1xec
EndSplineSet
Ligature2: "'liga' subtable" uni0066 uni0066
LCarets2: 1 0
EndChar
StartChar: uniFB01
Encoding: 64257 64257 987
Width: 575
Flags: W
HStem: 0 21G<94 186 94 94 388 480 388 388> 456 71<10 94 10 94 186 388> 675 75<242 299.5>
VStem: 94 92<0 456 0 456 527 596 596 597> 388 92<0 456 456 456>
LayerCount: 2
Fore
SplineSet
276 750 m 0
 335 750 379 736 422 714 c 1
 390 650 l 1
 357 666 320 675 279 675 c 0
 205 675 186 647 186 597 c 2
 186 527 l 1
 480 527 l 1
 480 0 l 1
 388 0 l 1
 388 456 l 1
 186 456 l 1
 186 0 l 1
 94 0 l 1
 94 456 l 1
 10 456 l 1
 10 527 l 1
 94 527 l 1
 94 596 l 2
 94 685 148 750 276 750 c 0
EndSplineSet
Ligature2: "'liga' subtable" uni0066 uni0069
EndChar
StartChar: uniFB02
Encoding: 64258 64258 988
Width: 592
Flags: W
HStem: -12 76<502 507.5> 0 21G<94 186 94 94> 456 71<10 94 10 94 186 304> 676 74<240.5 292 209.5 296> 722 20G<481 481>
VStem: 94 92<0 456 0 456 527 599 599 600> 389 92<104 106 106 659 659 659>
LayerCount: 2
Fore
SplineSet
548 70 m 1xae
 572 6 l 1
 547 -6 521 -12 494 -12 c 0xb6
 427 -12 389 28 389 104 c 2
 389 659 l 1
 349 671 318 676 274 676 c 0
 207 676 186 651 186 600 c 2
 186 527 l 1
 314 527 l 1
 304 456 l 1
 186 456 l 1
 186 0 l 1
 94 0 l 1
 94 456 l 1
 10 456 l 1
 10 527 l 1
 94 527 l 1
 94 599 l 2
 94 687 151 750 268 750 c 0
 316 750 349 743 390 730 c 1x76
 481 742 l 1
 481 106 l 2
 481 78 490 64 514 64 c 0
 527 64 538 66 548 70 c 1xae
EndSplineSet
Ligature2: "'liga' subtable" uni0066 uni006C
EndChar
StartChar: u1D40A
Encoding: 119818 119818 1002
Width: 633
Flags: W
TopAccentHorizontal: 325
HStem: 0 21G<65 229 65 65 455 455 455 645> 673 20G<65 229 229 229 454 627 627 627>
VStem: 65 164<0 693 0 693>
LayerCount: 2
Fore
SplineSet
229 693 m 1
 229 0 l 1
 65 0 l 1
 65 693 l 1
 229 693 l 1
627 693 m 1
 406 382 l 1
 645 0 l 1
 455 0 l 1
 234 370 l 1
 454 693 l 1
 627 693 l 1
EndSplineSet
EndChar
StartChar: u1D40B
Encoding: 119819 119819 951
Width: 513
Flags: W
TopAccentHorizontal: 147
HStem: 0 130<229 482> 673 20G<65 229 229 229>
VStem: 65 164<130 693 130 693 130 693>
LayerCount: 2
Fore
SplineSet
229 693 m 1
 229 130 l 1
 499 130 l 1
 482 0 l 1
 65 0 l 1
 65 693 l 1
 229 693 l 1
EndSplineSet
Validated: 1
EndChar
StartChar: u1D417
Encoding: 119831 119831 1033
Width: 581
Flags: W
TopAccentHorizontal: 290
HStem: 0 21G<-4 170 -4 -4 406 585 406 406> 673 20G<11 189 189 189 394 568 568 568>
VStem: -4 589<0 0>
LayerCount: 2
Fore
SplineSet
385 374 m 1
 585 0 l 1
 406 0 l 1
 287 264 l 1
 170 0 l 1
 -4 0 l 1
 190 368 l 1
 11 693 l 1
 189 693 l 1
 289 471 l 1
 394 693 l 1
 568 693 l 1
 385 374 l 1
EndSplineSet
Validated: 1
EndChar
StartChar: u1D418
Encoding: 119832 119832 1016
Width: 594
Flags: W
TopAccentHorizontal: 297
HStem: 0 21G<215 379 215 215> 673 20G<-7 172 172 172 428 601 601 601>
VStem: 215 164<0 259 259 259>
LayerCount: 2
Fore
SplineSet
601 693 m 1
 379 260 l 1
 379 0 l 1
 215 0 l 1
 215 259 l 1
 -7 693 l 1
 172 693 l 1
 300 388 l 1
 428 693 l 1
 601 693 l 1
EndSplineSet
Validated: 1
EndChar
StartChar: u1D41B
Encoding: 119835 119835 1040
Width: 597
Flags: W
TopAccentHorizontal: 141
HStem: -17 115<319.5 330.5 286 415> 0 98<62 330.5> 432 116<333.5 335> 722 20G<62 62> 739 20G<220 220>
VStem: 62 158<149 370 477 742 742 742> 396 164<203 332.5>
LayerCount: 2
Fore
SplineSet
363 548 m 0xae
 490 548 560 443 560 265 c 0
 560 101 481 -17 349 -17 c 0
 290 -17 242 9 210 51 c 1xae
 202 0 l 1
 62 0 l 1
 62 742 l 1x76
 220 759 l 1
 220 477 l 1
 252 521 304 548 363 548 c 0xae
303 98 m 0
 358 98 396 141 396 265 c 0
 396 400 360 432 310 432 c 0
 274 432 243 409 220 370 c 1
 220 149 l 1
 240 117 269 98 303 98 c 0
EndSplineSet
Validated: 1
EndChar
StartChar: u1D41C
Encoding: 119836 119836 1020
Width: 479
Flags: W
TopAccentHorizontal: 262
HStem: -17 125<271.5 322 271.5 331.5> 427 121<271 323>
VStem: 32 166<203 321.5 203 345.5>
LayerCount: 2
Fore
SplineSet
292 548 m 0
 366 548 423 526 474 483 c 1
 406 389 l 1
 372 415 341 427 305 427 c 0
 237 427 198 381 198 262 c 0
 198 144 240 108 303 108 c 0
 341 108 367 120 405 144 c 1
 474 46 l 1
 425 7 368 -17 295 -17 c 0
 132 -17 32 93 32 261 c 0
 32 430 133 548 292 548 c 0
EndSplineSet
Validated: 1
EndChar
StartChar: u1D41D
Encoding: 119837 119837 1039
Width: 600
Flags: W
TopAccentHorizontal: 459
HStem: -17 116<262.5 275> 0 21G<398 538 398 398> 433 115<269 280 188.5 314.5> 722 20G<538 538> 739 20G<380 380>
VStem: 37 164<200 325.5 200 349> 380 158<159 388 388 388 498 742 0 759 0 759>
LayerCount: 2
Fore
SplineSet
380 759 m 1x6e
 538 742 l 1
 538 0 l 1
 398 0 l 1x76
 390 62 l 1
 359 18 311 -17 239 -17 c 0xae
 104 -17 37 95 37 267 c 0
 37 431 123 548 254 548 c 0
 306 548 349 529 380 498 c 1
 380 759 l 1x6e
288 99 m 0xae
 326 99 355 119 380 159 c 1
 380 388 l 1
 356 416 332 433 297 433 c 0
 241 433 201 385 201 266 c 0
 201 134 237 99 288 99 c 0xae
EndSplineSet
Validated: 1
EndChar
StartChar: u1D424
Encoding: 119844 119844 1028
Width: 552
Flags: W
TopAccentHorizontal: 141
HStem: 0 21G<62 220 62 62 383 383 383 561> 511 20G<387 548 548 548> 722 20G<62 62> 739 20G<220 220>
VStem: 62 158<0 742 742 742>
LayerCount: 2
Fore
SplineSet
220 759 m 1xd8
 220 0 l 1
 62 0 l 1
 62 742 l 1xe8
 220 759 l 1xd8
548 531 m 1
 387 298 l 1
 561 0 l 1
 383 0 l 1
 225 290 l 1
 387 531 l 1
 548 531 l 1
EndSplineSet
Validated: 1
EndChar
StartChar: u1D426
Encoding: 119846 119846 1030
Width: 845
Flags: W
TopAccentHorizontal: 425
HStem: 0 21G<62 220 62 62 346 504 346 346 630 788 630 630> 432 116<284.5 394.5> 511 20G<62 200 200 200>
VStem: 62 158<0 363 0 531> 346 158<0 361 361 363 0 389> 630 158<0 361 361 388 0 389>
LayerCount: 2
Fore
SplineSet
649 548 m 0xdc
 731 548 788 489 788 388 c 2
 788 0 l 1
 630 0 l 1
 630 361 l 2
 630 417 609 432 585 432 c 0
 551 432 527 407 504 363 c 1
 504 0 l 1
 346 0 l 1
 346 361 l 2
 346 417 325 432 301 432 c 0
 268 432 243 407 220 363 c 1xdc
 220 0 l 1
 62 0 l 1
 62 531 l 1
 200 531 l 1xbc
 211 469 l 1
 252 521 300 548 365 548 c 0
 424 548 470 518 490 464 c 1
 532 520 581 548 649 548 c 0xdc
EndSplineSet
Validated: 1
EndChar
StartChar: u1D428
Encoding: 119848 119848 1050
Width: 584
Flags: W
TopAccentHorizontal: 292
HStem: -17 116<260 324 260 373> 432 116<260 324>
VStem: 32 164<207 323.5 207 351> 388 164<207.5 324>
LayerCount: 2
Fore
SplineSet
292 548 m 0
 454 548 552 444 552 265 c 0
 552 95 454 -17 292 -17 c 0
 131 -17 32 87 32 266 c 0
 32 436 130 548 292 548 c 0
292 432 m 0
 228 432 196 381 196 266 c 0
 196 148 228 99 292 99 c 0
 356 99 388 150 388 265 c 0
 388 383 356 432 292 432 c 0
EndSplineSet
Validated: 1
EndChar
StartChar: u1D429
Encoding: 119849 119849 1033
Width: 597
Flags: W
TopAccentHorizontal: 311
HStem: -222 21G<62 62> -205 21G<220 220> -17 116<323 330.5 284.5 414.5> 432 116<336 338> 511 20G<62 201 201 201>
VStem: 62 158<-205 38 -205 146 146 370> 396 164<205.5 331>
LayerCount: 2
Fore
SplineSet
362 548 m 0x76
 499 548 560 439 560 267 c 0
 560 103 480 -17 349 -17 c 0
 297 -17 253 1 220 38 c 1
 220 -205 l 1x6e
 62 -222 l 1
 62 531 l 1
 201 531 l 1xae
 209 472 l 1
 253 527 310 548 362 548 c 0x76
301 99 m 0
 360 99 396 146 396 265 c 0
 396 397 364 432 312 432 c 0
 275 432 243 409 220 370 c 1
 220 146 l 1
 242 114 268 99 301 99 c 0
EndSplineSet
Validated: 1
EndChar
StartChar: u1D42A
Encoding: 119850 119850 982
Width: 600
Flags: W
TopAccentHorizontal: 288
HStem: -222 21G<538 538> -205 21G<380 380> -17 116<262.5 271.5> 433 98<269.5 538> 433 115<269.5 282.5 188.5 315.5>
VStem: 37 164<200 325.5 200 349> 380 158<-205 51 51 51 159 388 388 388>
LayerCount: 2
Fore
SplineSet
400 531 m 1x76
 538 531 l 1
 538 -222 l 1xb6
 380 -205 l 1
 380 51 l 1
 349 11 304 -17 239 -17 c 0
 104 -17 37 95 37 267 c 0
 37 431 122 548 255 548 c 0
 310 548 355 527 392 485 c 1x6e
 400 531 l 1x76
288 99 m 0
 326 99 355 119 380 159 c 1
 380 388 l 1
 356 416 333 433 298 433 c 0x6e
 241 433 201 385 201 266 c 0
 201 134 237 99 288 99 c 0
EndSplineSet
Validated: 1
EndChar
StartChar: u1D42B
Encoding: 119851 119851 1056
Width: 401
Flags: W
ItalicCorrection: 30
TopAccentHorizontal: 232
HStem: 0 21G<62 220 62 62> 393 153<319.5 339> 511 20G<62 200 200 200> 526 20G<319.5 360> 539 7
VStem: 62 158<0 263 0 531>
LayerCount: 2
Fore
SplineSet
350 546 m 0x94
 370 546 386 544 403 539 c 1x8c
 378 386 l 1
 361 390 348 393 330 393 c 0xc4
 264 393 237 344 220 263 c 1
 220 0 l 1
 62 0 l 1
 62 531 l 1
 200 531 l 1xa4
 213 428 l 1
 237 502 289 546 350 546 c 0x94
EndSplineSet
Validated: 1
EndChar
StartChar: u1D42E
Encoding: 119854 119854 1038
Width: 572
Flags: W
TopAccentHorizontal: 284
HStem: -17 117<155.5 282.5> 0 21G<373 510 373 373> 511 20G<57 215 215 215 352 510 510 510>
VStem: 57 158<150 170 170 531> 352 158<162 531 0 531>
LayerCount: 2
Fore
SplineSet
510 531 m 1x78
 510 0 l 1
 373 0 l 1x78
 366 67 l 1
 327 11 275 -17 205 -17 c 0
 106 -17 57 47 57 150 c 2
 57 531 l 1
 215 531 l 1
 215 170 l 2
 215 116 233 100 266 100 c 0
 299 100 329 122 352 162 c 1xb8
 352 531 l 1
 510 531 l 1x78
EndSplineSet
Validated: 1
EndChar
StartChar: u1D430
Encoding: 119856 119856 988
Width: 749
Flags: W
ItalicCorrection: 30
TopAccentHorizontal: 374
HStem: 0 118<219 219 219 304 117 219> 390 141<374 374> 511 20G<4 164 164 164 302 456 456 456 593 744 744 744>
VStem: 4 740<531 531>
LayerCount: 2
Fore
SplineSet
744 531 m 1xb0
 634 0 l 1
 445 0 l 1
 374 390 l 1xd0
 304 0 l 1
 117 0 l 1
 4 531 l 1
 164 531 l 1
 219 118 l 1
 302 531 l 1
 456 531 l 1
 529 118 l 1
 593 531 l 1
 744 531 l 1xb0
EndSplineSet
Validated: 1
EndChar
StartChar: u1D437
Encoding: 119863 119863 1068
Width: 639
Flags: W
ItalicCorrection: 15
TopAccentHorizontal: 349
HStem: 0 75<167 228> 613 76<242 300 300 314 242 242>
VStem: 505 96<347.5 510.5>
LayerCount: 2
Fore
SplineSet
300 689 m 2
 456 689 601 643 601 428 c 0
 601 207 500 0 228 0 c 2
 62 0 l 1
 159 689 l 1
 300 689 l 2
314 613 m 2
 242 613 l 1
 167 75 l 1
 242 75 l 2
 442 75 505 265 505 430 c 0
 505 591 410 613 314 613 c 2
EndSplineSet
Validated: 1
EndChar
StartChar: u1D439
Encoding: 119865 119865 1049
Width: 485
Flags: W
ItalicCorrection: 80
TopAccentHorizontal: 340
HStem: 0 21G<62 156 62 62> 303 75<209 422 199 432> 613 76<242 500 242 242>
VStem: 62 459
LayerCount: 2
Fore
SplineSet
521 689 m 1
 500 613 l 1
 242 613 l 1
 209 378 l 1
 432 378 l 1
 422 303 l 1
 199 303 l 1
 156 0 l 1
 62 0 l 1
 159 689 l 1
 521 689 l 1
EndSplineSet
Validated: 1
EndChar
StartChar: u1D443
Encoding: 119875 119875 1080
Width: 575
Flags: W
ItalicCorrection: 40
TopAccentHorizontal: 336
HStem: 0 21G<62 156 62 62> 253 75<202 280 191 282> 615 74<242 329 242 242>
VStem: 476 100<462.5 547.5>
LayerCount: 2
Fore
SplineSet
336 689 m 2
 486 689 576 631 576 507 c 0
 576 379 500 253 280 253 c 2
 191 253 l 1
 156 0 l 1
 62 0 l 1
 159 689 l 1
 336 689 l 2
282 328 m 2
 438 328 476 418 476 507 c 0
 476 588 419 615 329 615 c 2
 242 615 l 1
 202 328 l 1
 282 328 l 2
EndSplineSet
Validated: 1
EndChar
StartChar: u1D446
Encoding: 119878 119878 1010
Width: 539
Flags: W
ItalicCorrection: 30
TopAccentHorizontal: 339
HStem: -12 78<187.5 275 187.5 316.5> 623 78<285 351.5>
VStem: 87 96<485 547 485 551.5> 394 98<161.5 234>
LayerCount: 2
Fore
SplineSet
324 701 m 0
 414 701 476 671 527 618 c 1
 468 563 l 1
 424 607 379 623 324 623 c 0
 246 623 183 583 183 511 c 0
 183 459 211 432 312 398 c 0
 408 368 492 327 492 209 c 0
 492 103 411 -12 222 -12 c 0
 121 -12 48 24 -1 80 c 1
 59 136 l 1
 100 91 151 66 224 66 c 0
 326 66 394 119 394 204 c 0
 394 264 362 291 267 324 c 0
 150 365 87 408 87 506 c 0
 87 597 169 701 324 701 c 0
EndSplineSet
Validated: 1
EndChar
StartChar: u1D44A
Encoding: 119882 119882 1087
Width: 820
Flags: W
ItalicCorrection: 80
TopAccentHorizontal: 470
HStem: 0 83<200 200 200 246 128 200> 577 112<454 454> 669 20G<86 176 176 176 417 519 519 519 768 855 855 855>
VStem: 86 769<689 689>
LayerCount: 2
Fore
SplineSet
855 689 m 1xb0
 619 0 l 1
 498 0 l 1
 454 577 l 1xd0
 246 0 l 1
 128 0 l 1
 86 689 l 1
 176 689 l 1
 200 83 l 1
 417 689 l 1
 519 689 l 1
 568 83 l 1
 768 689 l 1
 855 689 l 1xb0
EndSplineSet
Validated: 1
EndChar
StartChar: u1D44E
Encoding: 119886 119886 1070
Width: 569
Flags: W
TopAccentHorizontal: 346
HStem: -12 73<209 249> 466 73<266 350.5>
VStem: 50 98<145 248 145 262> 375 87
LayerCount: 2
Fore
SplineSet
331 539 m 0
 399 539 456 523 516 494 c 1
 462 120 l 2
 457 83 461 64 494 51 c 1
 468 -12 l 1
 415 -5 382 19 375 76 c 1
 334 23 280 -12 218 -12 c 0
 110 -12 50 69 50 190 c 0
 50 334 126 539 331 539 c 0
333 466 m 0
 199 466 148 307 148 189 c 0
 148 101 181 61 237 61 c 0
 296 61 337 103 378 158 c 1
 419 449 l 1
 391 461 368 466 333 466 c 0
EndSplineSet
Validated: 33
EndChar
StartChar: u1D451
Encoding: 119889 119889 1094
Width: 587
Flags: W
ItalicCorrection: 50
TopAccentHorizontal: 530
HStem: -12 73<208.5 252> 0 21G<376 456 376 376> 466 73<249 327 206 337.5> 728 20G<470 470>
VStem: 51 97<145.5 242.5 145.5 265>
LayerCount: 2
Fore
SplineSet
470 748 m 1xb8
 560 738 l 1
 456 0 l 1
 376 0 l 1x78
 377 87 l 1
 340 26 286 -12 218 -12 c 0
 109 -12 51 70 51 197 c 0
 51 333 116 539 296 539 c 0
 358 539 402 510 431 473 c 1
 470 748 l 1xb8
313 466 m 0
 185 466 148 295 148 190 c 0
 148 101 181 61 236 61 c 0xb8
 301 61 344 109 391 183 c 1
 422 402 l 1
 395 443 362 466 313 466 c 0
EndSplineSet
Validated: 1
EndChar
StartChar: u1D453
Encoding: 119891 119891 1075
Width: 488
Flags: W
ItalicCorrection: 80
TopAccentHorizontal: 429
HStem: -213 21G<54.4638 120.5> 456 71<145 228 329 436> 676 74<364.938 517.272>
LayerCount: 2
Fore
SplineSet
431 676 m 0
 372 676 346 648 339 597 c 2
 329 527 l 1
 456 527 l 1
 436 456 l 1
 319 456 l 1
 259 29 l 2
 238 -120 179 -163 62 -213 c 1
 36 -144 l 1
 108 -112 152 -84 168 29 c 2
 228 456 l 1
 135 456 l 1
 145 527 l 1
 238 527 l 1
 249 602 l 2
 261 690 324 750 428 750 c 0
 479 750 513 736 552 712 c 1
 517 651 l 1
 486 672 456 676 431 676 c 0
EndSplineSet
EndChar
StartChar: u1D458
Encoding: 119896 119896 1097
Width: 545
Flags: W
ItalicCorrection: 15
TopAccentHorizontal: 207
HStem: 0 21G<57 148 57 57 371 473 371 371> 466 73<356 381> 730 20G<253 253>
VStem: 420 97<377.5 427.5>
LayerCount: 2
Fore
SplineSet
253 750 m 1
 209 435 l 1
 259 506 323 539 389 539 c 0
 464 539 517 489 517 419 c 0
 517 336 464 268 354 233 c 1
 473 0 l 1
 371 0 l 1
 245 257 l 1
 369 292 420 336 420 409 c 0
 420 446 399 466 363 466 c 0
 307 466 237 419 192 316 c 1
 148 0 l 1
 57 0 l 1
 161 739 l 1
 253 750 l 1
EndSplineSet
Validated: 1
EndChar
StartChar: u1D45C
Encoding: 119900 119900 1104
Width: 578
Flags: W
TopAccentHorizontal: 325
HStem: -12 74<221.5 325.5 221.5 357.5> 465 74<253.5 357>
VStem: 52 96<150 246.5 150 271> 430 96<280.5 377>
LayerCount: 2
Fore
SplineSet
254 -12 m 0
 123 -12 52 72 52 206 c 0
 52 336 119 539 325 539 c 0
 456 539 526 455 526 321 c 0
 526 194 461 -12 254 -12 c 0
257 62 m 0
 394 62 430 230 430 331 c 0
 430 423 392 465 322 465 c 0
 185 465 148 297 148 196 c 0
 148 104 186 62 257 62 c 0
EndSplineSet
Validated: 1
EndChar
StartChar: u1D45F
Encoding: 119903 119903 1086
Width: 381
Flags: W
ItalicCorrection: 40
TopAccentHorizontal: 273
HStem: 0 21G<57 148 57 57> 448 91<327 347.5> 507 20G<131 209 209 209> 532 7
VStem: 57 352
LayerCount: 2
Fore
SplineSet
356 539 m 0xc8
 375 539 393 536 409 532 c 1x98
 382 443 l 1
 367 447 356 448 339 448 c 0xc8
 271 448 225 386 188 279 c 1
 148 0 l 1
 57 0 l 1
 131 527 l 1
 209 527 l 1xa8
 203 419 l 1
 243 501 298 539 356 539 c 0xc8
EndSplineSet
Validated: 1
EndChar
StartChar: u1D460
Encoding: 119904 119904 1087
Width: 491
Flags: W
ItalicCorrection: 25
TopAccentHorizontal: 283
HStem: -12 74<132.082 309.17> 466 73<212.948 381.496>
VStem: 94 93<351.288 441.414> 346 96<96.5462 203.429>
LayerCount: 2
Fore
SplineSet
293 539 m 0
 366 539 421 514 466 474 c 1
 421 419 l 1
 382 450 338 466 292 466 c 0
 228 466 187 439 187 395 c 0
 187 353 222 337 293 315 c 0
 392 284 442 240 442 157 c 0
 442 40 333 -12 223 -12 c 0
 131 -12 69 24 28 64 c 1
 80 117 l 1
 119 84 168 62 227 62 c 0
 320 62 346 113 346 148 c 0
 346 201 319 219 235 245 c 0
 134 276 94 317 94 389 c 0
 94 459 156 539 293 539 c 0
EndSplineSet
EndChar
StartChar: u1D461
Encoding: 119905 119905 1106
Width: 355
Flags: W
ItalicCorrection: 15
TopAccentHorizontal: 229
HStem: -12 77<198.5 227> 456 71<45 126 35 140 227 331>
VStem: 79.61 93.39
LayerCount: 2
Fore
SplineSet
217 456 m 1
 173 139 l 2
 165 86 179 65 218 65 c 0
 244 65 266 73 294 87 c 1
 324 23 l 1
 286 -1 247 -12 207 -12 c 0
 116 -12 68 43 82 141 c 2
 126 456 l 1
 35 456 l 1
 45 527 l 1
 140 527 l 1
 173 649 l 1
 245 657 l 1
 227 527 l 1
 351 527 l 1
 331 456 l 1
 217 456 l 1
EndSplineSet
Validated: 33
EndChar
StartChar: u1D464
Encoding: 119908 119908 1109
Width: 711
Flags: W
ItalicCorrection: 40
TopAccentHorizontal: 394
HStem: 0 64<177 177 177 227> 444 83<384 384> 507 20G<58 148 148 148 344 447 447 447 640 728 728 728>
VStem: 58 670<527 527>
LayerCount: 2
Fore
SplineSet
728 527 m 1xb0
 537 0 l 1
 412 0 l 1
 384 444 l 1xd0
 227 0 l 1
 106 0 l 1
 58 527 l 1
 148 527 l 1
 177 64 l 1
 344 527 l 1
 447 527 l 1
 480 64 l 1
 640 527 l 1
 728 527 l 1xb0
EndSplineSet
Validated: 1
EndChar
StartChar: u1D465
Encoding: 119909 119909 1113
Width: 530
Flags: W
ItalicCorrection: 40
TopAccentHorizontal: 328
HStem: 0 21G<18 139.505 376.991 488> 507 20G<114 223.615 422.846 543>
LayerCount: 2
Fore
SplineSet
543 527 m 1
 347 275 l 1
 488 0 l 1
 386 0 l 1
 286 222 l 1
 125 0 l 1
 18 0 l 1
 239 283 l 1
 114 527 l 1
 215 527 l 1
 299 332 l 1
 437 527 l 1
 543 527 l 1
EndSplineSet
EndChar
StartChar: u1D46B
Encoding: 119915 119915 1046
Width: 642
Flags: W
ItalicCorrection: 25
TopAccentHorizontal: 327
HStem: 0 118<205 234> 574 119<269 312 312 322 269 269>
VStem: 461 165<362.5 489.5>
LayerCount: 2
Fore
SplineSet
312 693 m 2
 477 693 626 644 626 430 c 0
 626 205 530 0 234 0 c 2
 27 0 l 1
 124 693 l 1
 312 693 l 2
322 574 m 2
 269 574 l 1
 205 118 l 1
 258 118 l 2
 421 118 461 295 461 430 c 0
 461 549 402 574 322 574 c 2
EndSplineSet
Validated: 1
EndChar
StartChar: u1D46C
Encoding: 119916 119916 1117
Width: 517
Flags: W
ItalicCorrection: 50
TopAccentHorizontal: 343
HStem: 0 118<205 446> 295 115<245 440 230 455> 576 117<269 509 269 269>
VStem: 27 516
LayerCount: 2
Fore
SplineSet
543 693 m 1
 509 576 l 1
 269 576 l 1
 245 410 l 1
 455 410 l 1
 440 295 l 1
 230 295 l 1
 205 118 l 1
 462 118 l 1
 446 0 l 1
 27 0 l 1
 124 693 l 1
 543 693 l 1
EndSplineSet
Validated: 1
EndChar
StartChar: u1D473
Encoding: 119923 119923 1127
Width: 506
Flags: W
TopAccentHorizontal: 224
HStem: 0 130<207 438> 673 20G<124 285 285 285>
VStem: 27 445<0 130>
LayerCount: 2
Fore
SplineSet
285 693 m 1
 207 130 l 1
 472 130 l 1
 438 0 l 1
 27 0 l 1
 124 693 l 1
 285 693 l 1
EndSplineSet
Validated: 1
EndChar
StartChar: u1D47D
Encoding: 119933 119933 1134
Width: 561
Flags: W
ItalicCorrection: 110
TopAccentHorizontal: 341
HStem: 0 21G<147 347 147 147> 0 128<265 265 265 347 147 265> 673 20G<46 215 215 215 467 634 634 634>
VStem: 46 588<693 693>
LayerCount: 2
Fore
SplineSet
634 693 m 1xb0
 347 0 l 1
 147 0 l 1
 46 693 l 1
 215 693 l 1
 265 128 l 1x70
 467 693 l 1
 634 693 l 1xb0
EndSplineSet
Validated: 1
EndChar
StartChar: u1D483
Encoding: 119939 119939 1122
Width: 581
Flags: W
TopAccentHorizontal: 225
HStem: -17 115<247.5 310.5 247.5 368> 432 116<312.5 445> 739 20G<284 284>
VStem: 395 160<288 375>
LayerCount: 2
Fore
SplineSet
392 548 m 0
 498 548 555 473 555 341 c 0
 555 188 491 -17 245 -17 c 0
 167 -17 99 -1 27 27 c 1
 127 742 l 1
 284 759 l 1
 246 486 l 1
 286 525 339 548 392 548 c 0
332 432 m 0
 293 432 260 409 230 371 c 1
 194 111 l 1
 215 103 234 98 261 98 c 0
 360 98 395 238 395 338 c 0
 395 412 367 432 332 432 c 0
EndSplineSet
Validated: 1
EndChar
StartChar: u1D489
Encoding: 119945 119945 1149
Width: 567
Flags: W
ItalicCorrection: 10
TopAccentHorizontal: 225
HStem: 0 21G<23 180.808 319 476.805> 419 129<326.591 452>
LayerCount: 2
Fore
SplineSet
409 548 m 0
 495 548 542 487 528 385 c 2
 474 0 l 1
 319 0 l 1
 368 351 l 2
 376 405 361 419 338 419 c 0
 297 419 257 367 219 292 c 1
 178 0 l 1
 23 0 l 1
 127 742 l 1
 284 758 l 1
 240 442 l 1
 278 505 340 548 409 548 c 0
EndSplineSet
EndChar
StartChar: u1D48B
Encoding: 119947 119947 1151
Width: 317
Flags: W
ItalicCorrection: 30
TopAccentHorizontal: 212
HStem: 511 20G<94.2443 252> 631 179<147.114 256.062>
VStem: 109 186<668.71 773.017>
LayerCount: 2
Fore
SplineSet
192 631 m 0
 142 631 109 665 109 711 c 0
 109 768 154 810 212 810 c 0
 262 810 295 777 295 731 c 0
 295 674 250 631 192 631 c 0
-61 -222 m 1
 -100 -110 l 1
 -24 -79 17 -45 31 52 c 2
 97 531 l 1
 252 531 l 1
 186 58 l 2
 162 -115 67 -176 -61 -222 c 1
EndSplineSet
EndChar
StartChar: u1D48E
Encoding: 119950 119950 1081
Width: 831
Flags: W
ItalicCorrection: 20
TopAccentHorizontal: 439
HStem: 0 21G<24 179 24 24 303 458 303 303 583 738 583 583> 419 129<305 427> 511 20G<98 233 233 233>
VStem: 24 770.43 633 161.43
LayerCount: 2
Fore
SplineSet
677 548 m 0xc8
 759 548 806 487 792 386 c 2
 738 0 l 1
 583 0 l 1
 633 351 l 2
 641 407 625 419 603 419 c 0
 568 419 532 369 500 298 c 1
 458 0 l 1
 303 0 l 1
 353 351 l 2
 361 407 344 419 322 419 c 0xc8
 288 419 250 368 220 294 c 1
 179 0 l 1
 24 0 l 1
 98 531 l 1
 233 531 l 1xb0
 230 444 l 1
 273 509 330 548 396 548 c 0
 458 548 502 513 512 449 c 1
 554 510 615 548 677 548 c 0xc8
EndSplineSet
Validated: 33
EndChar
StartChar: u1D496
Encoding: 119958 119958 1141
Width: 562
Flags: W
ItalicCorrection: 30
TopAccentHorizontal: 315
HStem: -17 21G<116 199> -17 125<116 252.5> 0 21G<330 464 330 330> 511 20G<93 248 248 248 383 538 538 538>
VStem: 36.37 162.63
LayerCount: 2
Fore
SplineSet
165 -17 m 0x98
 67 -17 25 49 39 152 c 2
 93 531 l 1
 248 531 l 1
 199 177 l 2
 191 124 206 108 234 108 c 0
 271 108 307 148 336 192 c 1x58
 383 531 l 1
 538 531 l 1
 464 0 l 1
 330 0 l 1x38
 333 79 l 1
 288 21 233 -17 165 -17 c 0x98
EndSplineSet
Validated: 33
EndChar
StartChar: u1D498
Encoding: 119960 119960 1143
Width: 739
Flags: W
ItalicCorrection: 60
TopAccentHorizontal: 418
HStem: 0 118<197 197 197 266 81 197> 391 140<390 390> 511 20G<44 200 200 200 336 487 487 487 622 771 771 771>
VStem: 397.5 96.5
LayerCount: 2
Fore
SplineSet
771 531 m 1xb0
 589 0 l 1
 405 0 l 1
 390 391 l 1xd0
 266 0 l 1
 81 0 l 1
 44 531 l 1
 200 531 l 1
 197 118 l 1
 336 531 l 1
 487 531 l 1
 501 118 l 1
 622 531 l 1
 771 531 l 1xb0
EndSplineSet
Validated: 1
EndChar
StartChar: u1D49A
Encoding: 119962 119962 1163
Width: 507
Flags: W
ItalicCorrection: 70
TopAccentHorizontal: 291
HStem: -222 21G<-12 -12> 0 21G<116 171 116 116> 511 20G<31 193 193 193 389 551 551 551>
VStem: -16 567
LayerCount: 2
Fore
SplineSet
551 531 m 1
 317 -2 l 2
 258 -136 152 -213 -12 -222 c 1
 -16 -111 l 1
 88 -98 131 -69 171 0 c 1
 116 0 l 1
 31 531 l 1
 193 531 l 1
 228 102 l 1
 389 531 l 1
 551 531 l 1
EndSplineSet
Validated: 1
EndChar
StartChar: u1D538
Encoding: 120120 120120 1546
Width: 679
Flags: HW
HStem: 0 46<532.689 584.689> 187 51<154 409> 636 49<336.309 388.309>
LayerCount: 2
Fore
SplineSet
154 238 m 1
 409 238 l 1
 282 636 l 1
 154 238 l 1
485 0 m 1
 425 187 l 1
 137 187 l 1
 77 0 l 1
 16 0 l 1
 245 685 l 1
 431 685 l 1
 662 0 l 1
 485 0 l 1
388.309489051 636 m 1
 336.309489051 636 l 1
 532.689051095 46 l 1
 584.689051095 46 l 1
 388.309489051 636 l 1
EndSplineSet
EndChar
StartChar: u1D539
Encoding: 120121 120121 1547
Width: 714
Flags: W
HStem: 0 50<171 222 282 438.475> 336 48<282 439> 635 50<171 222 282 438.11>
VStem: 111 60<50 635> 222 60<50 336 384 635> 439 60<62.9395 324.073 404.23 613.062> 557 61<436.831 582.747> 588 62<112.908 273.129>
LayerCount: 2
Fore
SplineSet
376 635 m 2xfc
 282 635 l 1
 282 384 l 1
 415 384 l 2
 423.248046875 384 431.259765625 384.454101562 439 385.3515625 c 1
 439 630.830078125 l 1
 420.051757812 633.6796875 399.006835938 635 376 635 c 2xfc
171 635 m 1
 171 50 l 1
 222 50 l 1
 222 635 l 1
 171 635 l 1
111 0 m 1
 111 685 l 1
 370 685 l 2
 526 685 618 630 618 514 c 0xfe
 618 426 564 376 492 363 c 1
 575 354 650 308 650 190 c 0xfd
 650 59 554 0 404 0 c 2
 111 0 l 1
439 51.396484375 m 1
 439 335.513671875 l 1
 433.41796875 335.83984375 427.747070312 336 422 336 c 2
 282 336 l 1
 282 50 l 1
 404 50 l 2
 416.135742188 50 427.818359375 50.4541015625 439 51.396484375 c 1
499 62.939453125 m 1
 554.74609375 81.46875 588 121.157226562 588 190 c 0xfd
 588 262.740234375 552.288085938 305.150390625 499 324.073242188 c 1
 499 62.939453125 l 1
499 404.23046875 m 1
 535.012695312 424.99609375 557 461.163085938 557 510 c 0xfe
 557 561.022460938 536.700195312 593.8984375 499 613.0625 c 1
 499 404.23046875 l 1
EndSplineSet
EndChar
StartChar: u1D53B
Encoding: 120123 120123 1548
Width: 733
Flags: HW
HStem: 0 50<171 222 282 473.246> 635 50<171 222 282 478.812>
VStem: 111 60<50 635> 222 60<50 635> 485 60<125.773 565.358> 604 63<199.066 495.002>
LayerCount: 2
Fore
SplineSet
356 635 m 2
 282 635 l 1
 282 50 l 1
 363 50 l 2
 404.952148438 50 447.536132812 56.572265625 485 76.099609375 c 1
 485 611.430664062 l 1
 445.439453125 630.12109375 400.177734375 635 356 635 c 2
348 685 m 2
 507 685 667 630 667 348 c 0
 667 64 500 0 359 0 c 2
 111 0 l 1
 111 685 l 1
 348 685 l 2
171 635 m 1
 171 50 l 1
 222 50 l 1
 222 635 l 1
 171 635 l 1
545 125.7734375 m 1
 580.849609375 171.065429688 604 241.275390625 604 348 c 0
 604 454.754882812 580.845703125 522.6171875 545 565.358398438 c 1
 545 125.7734375 l 1
EndSplineSet
EndChar
StartChar: u1D53C
Encoding: 120124 120124 1525
Width: 572
Flags: W
HStem: 0 50<171 222 282 526> 330 50<282 474> 635 50<171 222 282 512>
VStem: 111 60<50 635> 222 60<50 330 380 635>
LayerCount: 2
Fore
SplineSet
222 635 m 1
 171 635 l 1
 171 50 l 1
 222 50 l 1
 222 635 l 1
519 685 m 1
 512 635 l 1
 282 635 l 1
 282 380 l 1
 474 380 l 1
 474 330 l 1
 282 330 l 1
 282 50 l 1
 526 50 l 1
 526 0 l 1
 111 0 l 1
 111 685 l 1
 519 685 l 1
EndSplineSet
EndChar
StartChar: u1D53E
Encoding: 120126 120126 1551
Width: 618
Flags: W
HStem: -11 51<251.961 422.666> 319 50<359 425 479 533> 645 51<262.217 447.865>
VStem: 66 63<189.427 489.756> 190 54<111.648 565.494> 425 54<68.2912 319> 533 59<87.5557 319>
LayerCount: 2
Fore
SplineSet
352 696 m 4
 471 696 532 637 580 591 c 5
 541 551 l 5
 493 600 442 645 352 645 c 4
 314.85300347 645 277.363883133 635.648615967 244 614.866214327 c 5
 244 66 l 5
 242.274929553 66 l 5
 272.759041629 48.4886020639 308.645678166 40 349 40 c 4
 376.393509695 40 401.793945312 46.166015625 425 51.8544921875 c 5
 425 319 l 5
 359 319 l 5
 352 369 l 5
 592 369 l 5
 592 80 l 5
 531 23 451 -11 349 -11 c 4
 179 -11 66 108 66 345 c 4
 66 581 205 696 352 696 c 4
190 565.493891185 m 5
 153.154732652 517.509255579 129 445.79021912 129 345 c 4
 129 238.517450788 150.854315859 161.602505385 190 111.647765175 c 5
 190 565.493891185 l 5
479 68.2912111016 m 5
 499.817339291 78.5027642849 517.900587959 91.005422986 533 105 c 5
 533 319 l 5
 479 319 l 5
 479 68.2912111016 l 5
EndSplineSet
EndChar
StartChar: u1D540
Encoding: 120128 120128 1552
Width: 375
Flags: W
HStem: 0 42<162 213> 639 46<162 213>
VStem: 102 60<42 639> 213 60<42 639>
LayerCount: 2
Fore
SplineSet
162 639 m 5
 162 42 l 5
 213 42 l 5
 213 639 l 5
 162 639 l 5
273 0 m 5
 102 0 l 5
 102 685 l 5
 273 685 l 5
 273 0 l 5
EndSplineSet
EndChar
StartChar: u1D541
Encoding: 120129 120129 1553
Width: 399
Flags: W
HStem: 639 46<182 233>
VStem: 122 60<-0.183594 639> 233 60<42.7048 639>
LayerCount: 2
Fore
SplineSet
182 -0.18359375 m 5
 213.868164062 31.927734375 233 73.4892578125 233 133 c 6
 233 639 l 5
 182 639 l 5
 182 -0.18359375 l 5
122 -44.2841796875 m 5
 122 685 l 5
 293 685 l 5
 293 130 l 6
 293 -50 165 -88 33 -139 c 5
 15 -93 l 5
 53.96875 -77.2197265625 90.4482421875 -62.060546875 122 -44.2841796875 c 5
EndSplineSet
EndChar
StartChar: u1D542
Encoding: 120130 120130 1554
Width: 739
Flags: HW
HStem: 0 52<171 222 559.648 626.868> 639 46<171 222>
VStem: 111 60<54 639> 222 60<54 639>
LayerCount: 2
Fore
SplineSet
111 0 m 5
 111 685 l 5
 282 685 l 5
 282 0 l 5
 111 0 l 5
222 54 m 5
 222 639 l 5
 171 639 l 5
 171 54 l 5
 222 54 l 5
403.739779321 405.146115384 m 5
 363 361 l 5
 559.6484375 52 l 5
 626.868164062 52 l 5
 403.739779321 405.146115384 l 5
447.462748142 452.52485083 m 5
 734 0 l 5
 517 0 l 5
 286 366 l 5
 580 685 l 5
 662 685 l 5
 447.462748142 452.52485083 l 5
EndSplineSet
EndChar
StartChar: u1D543
Encoding: 120131 120131 1555
Width: 567
Flags: W
HStem: 0 54<171 222 282 539> 639 46<171 222>
VStem: 111 60<54 639> 222 60<56 639>
LayerCount: 2
Fore
SplineSet
222 54 m 5
 222 639 l 5
 171 639 l 5
 171 54 l 5
 222 54 l 5
547 54 m 5
 539 0 l 5
 111 0 l 5
 111 685 l 5
 282 685 l 5
 282 56 l 5
 547 54 l 5
EndSplineSet
EndChar
StartChar: u1D544
Encoding: 120132 120132 1556
Width: 882
Flags: HW
HStem: 0 57<695.508 749.508> 628 57<235.18 292.637 640.492 694.492>
LayerCount: 2
Fore
SplineSet
441.666529313 329.666220267 m 1
 551 685 l 1
 747 685 l 1
 813 0 l 1
 643 0 l 1
 612 328 l 2
 601 438 590 564 586 626 c 1
 414 81 l 1
 357 81 l 1
 179 626 l 1
 176 558 165 435 156 330 c 2
 126 0 l 1
 69 0 l 1
 134 685 l 1
 331 685 l 1
 441.666529313 329.666220267 l 1
415.151417628 243.492107292 m 1
 292.637251761 628 l 1
 235.18011257 628 l 1
 387 152 l 1
 415.151417628 243.492107292 l 1
749.508029197 57 m 1
 694.491970803 628 l 1
 640.491970803 628 l 1
 695.508029197 57 l 1
 749.508029197 57 l 1
EndSplineSet
EndChar
StartChar: u1D546
Encoding: 120134 120134 1557
Width: 691
Flags: W
HStem: -11 51<251.294 440.748> 645 51<250.62 440.506>
VStem: 66 63<189.686 493.502> 190 54<112.816 572.795> 447 54<110.186 574.092> 562 63<189.761 495.716>
LayerCount: 2
Fore
SplineSet
345 696 m 0
 512 696 625 573 625 342 c 0
 625 117 515 -11 345 -11 c 0
 180 -11 66 113 66 341 c 0
 66 567 181 696 345 696 c 0
190 572.794634934 m 1
 151.276874621 522.825958192 129 446.252116783 129 341 c 0
 129 237.94115848 151.493280394 162.430267106 190 112.815601654 c 1
 190 572.794634934 l 1
244 620.125630505 m 1
 244 65.301952267 l 1
 273.504004482 48.3233566136 307.604671245 40 345 40 c 0
 383.451408445 40 417.703437775 47.9047136274 447 64.0449293782 c 1
 447 620.623214847 l 1
 417.564468881 637.020465252 383.256119352 645 345 645 c 0
 307.391961633 645 273.353619263 636.840694863 244 620.125630505 c 1
501 110.185735833 m 1
 540.234240213 159.864342699 562 236.509077515 562 342 c 0
 562 447.822705463 539.998617227 524.396513828 501 574.09181114 c 1
 501 110.185735833 l 1
EndSplineSet
EndChar
StartChar: u1D54A
Encoding: 120138 120138 1558
Width: 536
Flags: W
HStem: -11 51<151.418 356.974> 645 51<181.03 367.245> 645 17<191 245>
VStem: 66 61<459.427 595.103> 191 54<384 662> 310 54<26 348> 424 61<107.116 261.649>
LayerCount: 2
Fore
SplineSet
191 662 m 1xbe
 245 662 l 1
 245 384 l 1
 191 384 l 1
 191 662 l 1xbe
310 348 m 1
 364 348 l 1
 364 26 l 1
 310 26 l 1
 310 348 l 1
267 696 m 0xde
 356 696 410 668 464 620 c 1
 429 582 l 1
 378 626 332 645 269 645 c 0
 185 645 127 601 127 529 c 0
 127 459 164 427 287 390 c 0
 410 352 485 308 485 187 c 0
 485 70 396 -11 258 -11 c 0
 164 -11 95 22 39 75 c 1
 73 113 l 1
 124 69 177 40 257 40 c 0
 353 40 424 93 424 185 c 0
 424 268 383 302 261 340 c 0
 125 382 66 429 66 528 c 0
 66 625 147 696 267 696 c 0xde
EndSplineSet
EndChar
StartChar: u1D54B
Encoding: 120139 120139 1559
Width: 555
Flags: W
HStem: 0 42<252 303> 632 53<15 192 252 303 363 538>
VStem: 192 60<42 632> 303 60<42 632>
LayerCount: 2
Fore
SplineSet
538 632 m 1
 363 632 l 1
 363 0 l 1
 192 0 l 1
 192 632 l 1
 15 632 l 1
 15 685 l 1
 545 685 l 1
 538 632 l 1
252 632 m 1
 252 42 l 1
 303 42 l 1
 303 632 l 1
 252 632 l 1
EndSplineSet
EndChar
StartChar: u1D54C
Encoding: 120140 120140 1560
Width: 712
Flags: W
HStem: -11 52<276.024 453.281> 639 46<161 212>
VStem: 101 60<133.539 639> 212 60<91.4701 639> 550 61<133.539 685>
LayerCount: 2
Fore
SplineSet
272 54.9746504888 m 1
 296.913418938 45.8054819166 325.201546282 41 356 41 c 0
 471 41 550 109 550 219 c 2
 550 685 l 1
 611 685 l 1
 611 214 l 2
 611 82 506 -11 356 -11 c 0
 204 -11 101 82 101 214 c 2
 101 685 l 1
 272 685 l 1
 272 54.9746504888 l 1
212 91.4700720451 m 1
 212 639 l 1
 161 639 l 1
 161 219 l 2
 161 165.342040779 179.694434463 121.966020513 212 91.4700720451 c 1
EndSplineSet
EndChar
StartChar: u1D54D
Encoding: 120141 120141 1545
Width: 546
Flags: W
HStem: 0 21G<233.46 313.511> 636 49<96 151>
LayerCount: 2
Fore
SplineSet
302 153 m 1
 151 636 l 1
 96 636 l 1
 274 62 l 1
 302 153 l 1
530 685 m 1
 307 0 l 1
 240 0 l 1
 16 685 l 1
 199 685 l 1
 330 243 l 1
 468 685 l 1
 530 685 l 1
EndSplineSet
EndChar
StartChar: u1D54E
Encoding: 120142 120142 1546
Width: 810
Flags: W
HStem: 0 21G<176.591 258.854 549.146 633.38> 636 49<101 151 450 500>
LayerCount: 2
Fore
SplineSet
614 166 m 1
 500 636 l 1
 450 636 l 1
 591 56 l 1
 614 166 l 1
249 175 m 1
 151 636 l 1
 101 636 l 1
 221 56 l 1
 249 175 l 1
779 685 m 1
 629 0 l 1
 554 0 l 1
 404 618 l 1
 254 0 l 1
 181 0 l 1
 30 685 l 1
 201 685 l 1
 279 300 l 1
 371 685 l 1
 538 685 l 1
 637 277 l 1
 722 685 l 1
 779 685 l 1
EndSplineSet
EndChar
StartChar: u1D54F
Encoding: 120143 120143 1563
Width: 555
Flags: W
HStem: 0 49<378 503> 636 49<63 192>
LayerCount: 2
Fore
SplineSet
374 49 m 5
 503 49 l 5
 507 0 l 5
 378 0 l 5
 374 49 l 5
63 685 m 5
 192 685 l 5
 192 636 l 5
 63 636 l 5
 63 685 l 5
299.348632812 444.485351562 m 5
 457 685 l 5
 525 685 l 5
 329.322265625 386.47265625 l 5
 299.348632812 444.485351562 l 5
256.752929688 269.65625 m 5
 80 0 l 5
 12 0 l 5
 225.00390625 324.9609375 l 5
 256.752929688 269.65625 l 5
140 685 m 5
 208 685 l 5
 545 0 l 5
 477 0 l 5
 140 685 l 5
16 685 m 5
 84 685 l 5
 421 0 l 5
 353 0 l 5
 16 685 l 5
EndSplineSet
EndChar
StartChar: u1D550
Encoding: 120144 120144 1545
Width: 647
Flags: W
HStem: 0 49<269 398> 636 49<59 188>
VStem: 246 60<49 253.711> 269 37<0 49> 356 60<49 287> 356 42<0 49>
LayerCount: 2
Fore
SplineSet
269 49 m 1xd4
 398 49 l 1
 398 0 l 1
 269 0 l 1
 269 49 l 1xd4
59 685 m 1
 188 685 l 1
 188 636 l 1
 59 636 l 1
 59 685 l 1
633 685 m 1
 416 288 l 1
 416 0 l 1xc8
 356 0 l 1xc4
 356 287 l 1xc8
 137 685 l 1
 204 685 l 1
 388 341 l 1
 569 685 l 1
 633 685 l 1
306 263.788085938 m 25xd0
 306 0 l 1xd0
 246 0 l 1
 246 253.7109375 l 1xe0
 13 685 l 1
 80 685 l 1
 306 263.788085938 l 25xd0
EndSplineSet
EndChar
StartChar: u1D552
Encoding: 120146 120146 1564
Width: 566
Flags: W
HStem: -11 47<157.139 324.41 471.829 494.22> 15 21<170 228> 272 42<174.647 332> 485 49<168.028 367.133> 485 19<300 358>
VStem: 56 62<74.4731 218.279> 170 58<15 285> 300 58<34 272 314 504> 300 32<272 314> 403 58<99.9179 446.646>
LayerCount: 2
Fore
SplineSet
358 34 m 1x2f40
 300 34 l 1
 300 504 l 1
 358 504 l 1
 358 34 l 1x2f40
228 15 m 1x6640
 170 15 l 1
 170 285 l 1
 228 285 l 1
 228 15 l 1x6640
403 365 m 2
 403 448 369 485 282 485 c 0
 205 485 155 459 105 436 c 1
 85 479 l 1
 142 505 198 534 290 534 c 0
 409 534 461 475 461 368 c 2
 461 116 l 2
 461 58 477 41 505 30 c 1
 492 -11 l 1
 446 -2 419 21 411 77 c 1
 374 17 288 -11 218 -11 c 0
 117 -11 56 52 56 145 c 0
 56 255 139 314 273 314 c 2
 332 314 l 1
 332 272 l 1
 282 272 l 2
 177 272 118 231 118 148 c 0
 118 76 159 36 228 36 c 0xb6c0
 294 36 370 69 403 128 c 1
 403 365 l 2
EndSplineSet
EndChar
StartChar: u1D553
Encoding: 120147 120147 1565
Width: 677
Flags: W
HStem: -11 48<329.74 487.495> 0 48<124 226> 25 12<442 496> 486 48<335.212 490.803> 695 21G<105 266>
VStem: 105 58<48 695> 124 39<0 48> 208 58<91.6505 422.873 451 736> 208 18<0 48> 442 58<25 497> 552 61<130.787 402.821>
LayerCount: 2
Fore
SplineSet
500 25 m 1x3860
 442 25 l 1
 442 506 l 1
 500 497 l 1
 500 25 l 1x3860
105 743 m 1x1d60
 266 743 l 1
 266 695 l 1
 105 695 l 1
 105 743 l 1x1d60
124 48 m 1x5ae0
 226 48 l 1
 226 0 l 1
 124 0 l 1
 124 48 l 1x5ae0
163 0 m 1
 105 0 l 1
 105 706 l 1x5c60
 163 713 l 1
 163 0 l 1
423 534 m 0
 542 534 613 438 613 264 c 0
 613 96 541 -11 415 -11 c 0x9960
 349 -11 298 22 264 66 c 1
 258 0 l 1
 208 0 l 1x58e0
 208 736 l 1
 266 743 l 1
 266 451 l 1x5960
 303 501 355 534 423 534 c 0
404 37 m 0
 496 37 552 112 552 264 c 0
 552 418 500 486 411 486 c 0
 343 486 301 446 266 396 c 1
 266 119 l 1
 299 71 345 37 404 37 c 0
EndSplineSet
EndChar
